<svg width="300" height="157" viewBox="0 0 300 157" fill="none" xmlns="http://www.w3.org/2000/svg">
<path d="M0 124.27V113.121H11.2177V124.27H0ZM28.9616 124.27V105.737H47.6097V124.27H28.9616ZM66.4246 124.054V105.737H47.7764V87.2033H29.0083C29.6146 76.8343 36.4094 70.2255 43.6031 63.2288C52.2508 54.8191 61.1917 46.1221 60.4194 30C65.5552 33.7084 70.3946 37.8065 74.8942 42.2571C79.2948 46.5932 83.2652 51.3399 86.7504 56.4321C90.083 61.2822 92.7758 66.5371 94.7631 72.0681C96.676 77.4113 97.671 83.0362 97.7067 88.7074C97.7067 98.6843 94.3902 107.385 88.1128 113.868C85.2492 116.822 81.86 119.224 78.1165 120.952C74.4329 122.662 70.4749 123.714 66.424 124.059L66.4246 124.054ZM12.7041 105.737V92.3722H26.1506V105.737H12.7041Z" fill="#0706FF"/>
<path d="M66.4227 124.052V105.733H47.7746V87.1999H66.4227V105.733H85.0709V116.633C82.9365 118.347 80.5995 119.796 78.1117 120.946C74.4291 122.656 70.472 123.708 66.4221 124.052H66.4227ZM29.0029 87.1976C29.4526 79.5185 33.295 73.9025 38.1807 68.6643H47.6091V87.1976H29.0029Z" fill="#395AFF"/>
<path d="M122.046 101.517C122.34 101.543 122.681 101.563 123.069 101.576C123.457 101.59 123.919 101.596 124.454 101.597C127.585 101.597 129.906 100.813 131.417 99.2434C132.929 97.6741 133.685 95.5069 133.685 92.7419C133.685 89.8417 132.963 87.6479 131.518 86.1605C130.073 84.6731 127.786 83.9286 124.655 83.927C124.227 83.927 123.785 83.9335 123.33 83.9466C122.901 83.9579 122.472 83.9911 122.046 84.0462V101.517ZM140.146 92.7419C140.193 94.8825 139.811 97.0111 139.023 99.0038C138.328 100.71 137.234 102.228 135.832 103.432C134.359 104.652 132.642 105.549 130.795 106.064C128.629 106.674 126.385 106.97 124.133 106.941C123.009 106.941 121.698 106.895 120.2 106.802C118.717 106.711 117.242 106.518 115.785 106.223V79.3002C117.278 79.0293 118.786 78.8502 120.3 78.7639C121.866 78.6709 123.21 78.6245 124.334 78.6245C126.521 78.6 128.701 78.8684 130.816 79.4224C132.642 79.896 134.345 80.7515 135.812 81.9318C137.229 83.1099 138.332 84.6169 139.023 86.3196C139.82 88.3657 140.202 90.5484 140.146 92.7419V92.7419ZM153.511 78.6221C157.685 78.6221 160.883 79.36 163.105 80.8359C165.327 82.3118 166.438 84.6053 166.436 87.7164C166.513 89.3948 166.042 91.053 165.092 92.4427C164.091 93.731 162.75 94.7182 161.219 95.2948C161.781 95.9861 162.37 96.777 162.985 97.6677C163.6 98.5584 164.209 99.4891 164.811 100.46C165.413 101.43 165.995 102.441 166.557 103.491C167.119 104.542 167.64 105.572 168.12 106.583H161.121C160.611 105.679 160.094 104.761 159.57 103.83C159.046 102.899 158.509 101.996 157.958 101.121C157.408 100.243 156.864 99.412 156.327 98.6278C155.789 97.8435 155.252 97.1314 154.715 96.4914H151.625V106.583H145.364V79.3402C146.762 79.0697 148.176 78.8833 149.598 78.7818C151.056 78.6753 152.36 78.6221 153.511 78.6221ZM153.871 83.9258C153.416 83.9258 153.008 83.9391 152.647 83.9657C152.286 83.9923 151.945 84.0189 151.624 84.0456V91.544H153.39C155.744 91.544 157.43 91.2515 158.446 90.6663C159.463 90.0811 159.971 89.0839 159.971 87.6747C160.018 87.0964 159.898 86.5167 159.624 86.0042C159.35 85.4917 158.934 85.0679 158.426 84.7827C157.397 84.2122 155.879 83.927 153.872 83.927L153.871 83.9258ZM182.691 107.139C180.969 107.178 179.255 106.901 177.634 106.322C176.306 105.836 175.106 105.059 174.122 104.048C173.187 103.058 172.488 101.872 172.075 100.578C171.62 99.1398 171.397 97.6387 171.415 96.1309V78.9409H177.672V95.6136C177.651 96.5781 177.779 97.5401 178.053 98.4657C178.263 99.1693 178.618 99.8215 179.096 100.38C179.529 100.866 180.083 101.231 180.702 101.437C181.368 101.656 182.067 101.763 182.769 101.756C183.45 101.784 184.13 101.674 184.768 101.434C185.406 101.194 185.989 100.829 186.481 100.36C187.432 99.4295 187.907 97.8475 187.907 95.6136V78.9409H194.168V96.1321C194.185 97.6487 193.954 99.158 193.486 100.601C193.062 101.906 192.349 103.098 191.399 104.092C190.397 105.104 189.175 105.875 187.827 106.346C186.175 106.909 184.436 107.178 182.691 107.139V107.139ZM208.534 78.6221C212.682 78.6221 215.865 79.3467 218.086 80.796C220.307 82.2453 221.417 84.6184 221.417 87.9155C221.417 91.2395 220.293 93.6393 218.046 95.1148C215.799 96.5903 212.588 97.3283 208.414 97.3287H206.447V106.583H200.187V79.3402C201.619 79.0655 203.066 78.879 204.522 78.7818C206.047 78.6753 207.384 78.6221 208.534 78.6221ZM208.935 83.9258C208.48 83.9258 208.032 83.9391 207.591 83.9657C207.15 83.9923 206.768 84.0189 206.447 84.0456V92.0226H208.414C210.581 92.0226 212.213 91.73 213.31 91.1448C214.407 90.5596 214.955 89.4694 214.955 87.8744C214.981 87.2111 214.836 86.5523 214.536 85.9597C214.253 85.4533 213.836 85.0332 213.331 84.7446C212.741 84.4155 212.095 84.1991 211.425 84.1063C210.601 83.9812 209.769 83.9212 208.936 83.927L208.935 83.9258ZM226.033 106.583V78.9409H244.655V84.1659H232.294V89.9494H243.291V95.1744H232.294V106.583H226.033ZM265.803 106.583C265.494 105.622 265.161 104.636 264.805 103.623L263.74 100.6H252.878L251.822 103.632C251.469 104.645 251.14 105.629 250.836 106.583H244.331C245.378 103.603 246.371 100.851 247.31 98.3262C248.249 95.8015 249.169 93.4216 250.069 91.1865C250.968 88.953 251.853 86.8323 252.725 84.8244C253.598 82.8166 254.504 80.8554 255.443 78.9409H261.379C262.293 80.8554 263.193 82.8166 264.08 84.8244C264.967 86.8323 265.862 88.953 266.763 91.1865C267.664 93.42 268.584 95.7999 269.525 98.3262C270.466 100.853 271.46 103.605 272.509 106.583H265.803ZM258.281 85.2034C258.141 85.6047 257.937 86.1508 257.668 86.8416C257.399 87.5325 257.093 88.3308 256.749 89.2366C256.405 90.142 256.021 91.1392 255.596 92.2282C255.172 93.3171 254.74 94.4589 254.302 95.6535H262.255C261.829 94.4549 261.417 93.3096 261.019 92.2174C260.62 91.1253 260.24 90.1263 259.879 89.2205C259.52 88.3147 259.205 87.5168 258.934 86.8267C258.664 86.1366 258.446 85.5956 258.281 85.2034ZM294.743 106.583C292.95 103.418 291.01 100.294 288.923 97.2095C286.873 94.1731 284.648 91.2566 282.261 88.4745V106.583H276.08V78.9409H281.177C282.06 79.8185 283.036 80.8955 284.106 82.172C285.177 83.4484 286.267 84.8113 287.377 86.2606C288.488 87.7099 289.592 89.2122 290.688 90.7676C291.785 92.3229 292.816 93.8187 293.779 95.2549V78.9409H300V106.583H294.743Z" fill="#0706FF"/>
<path d="M117.274 122.818C117.388 122.829 117.539 122.839 117.726 122.849C117.913 122.849 118.168 122.849 118.49 122.849C119.81 122.849 120.792 122.519 121.437 121.858C122.092 121.186 122.419 120.251 122.419 119.053C122.419 117.834 122.102 116.9 121.468 116.249C120.834 115.598 119.852 115.273 118.521 115.273C117.939 115.273 117.524 115.288 117.274 115.319V122.818ZM124.477 119.053C124.477 119.983 124.331 120.794 124.04 121.486C123.749 122.167 123.334 122.741 122.793 123.206C122.263 123.66 121.619 124.001 120.86 124.228C120.112 124.445 119.28 124.554 118.365 124.554C117.929 124.554 117.435 124.533 116.884 124.492C116.334 124.461 115.809 124.388 115.31 124.275V113.847C115.809 113.734 116.339 113.661 116.9 113.63C117.461 113.599 117.96 113.584 118.397 113.584C119.301 113.584 120.127 113.692 120.875 113.909C121.624 114.116 122.263 114.446 122.793 114.901C123.334 115.345 123.749 115.913 124.04 116.605C124.331 117.287 124.477 118.103 124.477 119.053Z" fill="#4A4A4A"/>
<path d="M131.174 118.015C131.018 117.963 130.8 117.912 130.519 117.86C130.249 117.798 129.932 117.767 129.568 117.767C129.36 117.767 129.137 117.788 128.898 117.829C128.669 117.87 128.508 117.907 128.415 117.938V124.43H126.528V116.714C126.892 116.579 127.344 116.455 127.885 116.342C128.435 116.218 129.043 116.156 129.709 116.156C129.833 116.156 129.979 116.166 130.145 116.187C130.311 116.197 130.478 116.218 130.644 116.249C130.81 116.269 130.971 116.3 131.127 116.342C131.283 116.373 131.408 116.404 131.501 116.435L131.174 118.015Z" fill="#4A4A4A"/>
<path d="M139.504 124.182C139.14 124.275 138.667 124.368 138.085 124.461C137.503 124.564 136.864 124.616 136.168 124.616C135.513 124.616 134.962 124.523 134.515 124.337C134.079 124.151 133.725 123.892 133.455 123.562C133.195 123.231 133.008 122.839 132.894 122.384C132.78 121.92 132.722 121.413 132.722 120.866V116.326H134.609V120.572C134.609 121.439 134.734 122.059 134.983 122.431C135.243 122.803 135.69 122.989 136.324 122.989C136.552 122.989 136.791 122.978 137.041 122.958C137.301 122.937 137.493 122.911 137.618 122.88V116.326H139.504V124.182Z" fill="#4A4A4A"/>
<path d="M147.315 120.417C147.315 119.58 147.123 118.929 146.738 118.464C146.364 118 145.756 117.767 144.914 117.767C144.737 117.767 144.55 117.777 144.353 117.798C144.166 117.808 143.979 117.839 143.792 117.891V122.524C143.958 122.637 144.176 122.746 144.446 122.849C144.727 122.942 145.023 122.989 145.335 122.989C146.021 122.989 146.52 122.756 146.832 122.291C147.154 121.827 147.315 121.202 147.315 120.417ZM149.248 120.386C149.248 121.005 149.165 121.574 148.999 122.09C148.843 122.606 148.614 123.051 148.313 123.422C148.011 123.794 147.632 124.084 147.175 124.29C146.728 124.497 146.218 124.6 145.647 124.6C145.262 124.6 144.909 124.554 144.587 124.461C144.264 124.368 143.999 124.264 143.792 124.151V127.296H141.905V116.59C142.29 116.486 142.763 116.388 143.324 116.295C143.885 116.202 144.478 116.156 145.101 116.156C145.746 116.156 146.322 116.254 146.832 116.45C147.341 116.646 147.772 116.93 148.126 117.302C148.489 117.664 148.765 118.108 148.952 118.635C149.149 119.151 149.248 119.735 149.248 120.386Z" fill="#4A4A4A"/>
<path d="M154.061 123.113C154.643 123.113 155.085 123.082 155.386 123.02V120.943C155.282 120.912 155.131 120.881 154.934 120.85C154.736 120.819 154.518 120.804 154.279 120.804C154.071 120.804 153.858 120.819 153.64 120.85C153.432 120.881 153.24 120.938 153.063 121.021C152.897 121.104 152.762 121.222 152.658 121.377C152.554 121.522 152.502 121.708 152.502 121.935C152.502 122.379 152.642 122.689 152.923 122.865C153.203 123.03 153.583 123.113 154.061 123.113ZM153.905 116.125C154.529 116.125 155.053 116.202 155.48 116.357C155.906 116.512 156.243 116.729 156.493 117.008C156.753 117.287 156.935 117.628 157.039 118.031C157.153 118.423 157.21 118.857 157.21 119.332V124.244C156.919 124.306 156.477 124.378 155.885 124.461C155.303 124.554 154.643 124.6 153.905 124.6C153.416 124.6 152.969 124.554 152.564 124.461C152.159 124.368 151.811 124.218 151.52 124.011C151.239 123.805 151.016 123.536 150.849 123.206C150.693 122.875 150.615 122.467 150.615 121.982C150.615 121.517 150.704 121.124 150.88 120.804C151.068 120.484 151.317 120.226 151.629 120.029C151.941 119.823 152.299 119.678 152.704 119.595C153.12 119.502 153.552 119.456 153.998 119.456C154.206 119.456 154.425 119.472 154.653 119.502C154.882 119.523 155.126 119.564 155.386 119.626V119.317C155.386 119.1 155.36 118.893 155.308 118.697C155.256 118.501 155.163 118.33 155.027 118.186C154.903 118.031 154.731 117.912 154.513 117.829C154.305 117.747 154.04 117.705 153.718 117.705C153.281 117.705 152.881 117.736 152.517 117.798C152.154 117.86 151.857 117.932 151.629 118.015L151.395 116.497C151.634 116.414 151.982 116.331 152.439 116.249C152.897 116.166 153.385 116.125 153.905 116.125Z" fill="#4A4A4A"/>
<path d="M162.358 124.585C161.796 124.574 161.329 124.512 160.954 124.399C160.591 124.285 160.3 124.125 160.081 123.918C159.863 123.701 159.707 123.438 159.614 123.128C159.531 122.808 159.489 122.446 159.489 122.044V112.716L161.375 112.406V121.687C161.375 121.914 161.391 122.105 161.422 122.26C161.464 122.415 161.531 122.55 161.625 122.663C161.718 122.767 161.843 122.849 161.999 122.911C162.165 122.963 162.373 123.004 162.623 123.035L162.358 124.585Z" fill="#4A4A4A"/>
<path d="M166.986 124.585C166.425 124.574 165.957 124.512 165.583 124.399C165.219 124.285 164.928 124.125 164.71 123.918C164.491 123.701 164.336 123.438 164.242 123.128C164.159 122.808 164.117 122.446 164.117 122.044V112.716L166.004 112.406V121.687C166.004 121.914 166.019 122.105 166.05 122.26C166.092 122.415 166.16 122.55 166.253 122.663C166.347 122.767 166.471 122.849 166.627 122.911C166.794 122.963 167.001 123.004 167.251 123.035L166.986 124.585Z" fill="#4A4A4A"/>
<path d="M175.434 116.326C174.592 119.404 173.615 122.193 172.503 124.693C172.295 125.158 172.082 125.555 171.864 125.886C171.645 126.217 171.401 126.49 171.131 126.707C170.861 126.924 170.559 127.079 170.227 127.172C169.894 127.275 169.509 127.327 169.073 127.327C168.782 127.327 168.491 127.296 168.2 127.234C167.919 127.172 167.706 127.105 167.561 127.033L167.904 125.53C168.278 125.674 168.647 125.747 169.011 125.747C169.499 125.747 169.878 125.628 170.149 125.39C170.429 125.163 170.674 124.807 170.881 124.321C170.289 123.185 169.717 121.945 169.167 120.603C168.626 119.26 168.143 117.834 167.717 116.326H169.728C169.832 116.76 169.956 117.23 170.102 117.736C170.258 118.242 170.424 118.759 170.601 119.286C170.777 119.802 170.965 120.319 171.162 120.835C171.36 121.351 171.557 121.832 171.754 122.276C172.087 121.357 172.399 120.38 172.69 119.348C172.981 118.304 173.246 117.297 173.485 116.326H175.434Z" fill="#4A4A4A"/>
<path d="M184.226 118.449C184.694 117.674 185.151 116.889 185.598 116.094C186.045 115.298 186.45 114.498 186.814 113.692H188.996C188.414 114.787 187.806 115.877 187.172 116.961C186.549 118.036 185.878 119.12 185.161 120.215V124.43H183.197V120.246C182.48 119.141 181.804 118.046 181.17 116.961C180.536 115.877 179.928 114.787 179.346 113.692H181.653C182.017 114.498 182.417 115.298 182.854 116.094C183.29 116.889 183.748 117.674 184.226 118.449Z" fill="#4A4A4A"/>
<path d="M196.826 120.37C196.826 121.011 196.732 121.594 196.545 122.121C196.358 122.648 196.093 123.097 195.75 123.469C195.407 123.841 194.992 124.13 194.503 124.337C194.025 124.543 193.495 124.646 192.913 124.646C192.331 124.646 191.801 124.543 191.323 124.337C190.845 124.13 190.434 123.841 190.091 123.469C189.748 123.097 189.478 122.648 189.28 122.121C189.093 121.594 189 121.011 189 120.37C189 119.73 189.093 119.151 189.28 118.635C189.478 118.108 189.748 117.659 190.091 117.287C190.444 116.915 190.86 116.631 191.338 116.435C191.816 116.228 192.341 116.125 192.913 116.125C193.485 116.125 194.009 116.228 194.487 116.435C194.976 116.631 195.392 116.915 195.735 117.287C196.078 117.659 196.343 118.108 196.53 118.635C196.727 119.151 196.826 119.73 196.826 120.37ZM194.893 120.37C194.893 119.564 194.716 118.929 194.363 118.464C194.02 117.989 193.536 117.752 192.913 117.752C192.289 117.752 191.801 117.989 191.447 118.464C191.104 118.929 190.933 119.564 190.933 120.37C190.933 121.186 191.104 121.832 191.447 122.307C191.801 122.782 192.289 123.02 192.913 123.02C193.536 123.02 194.02 122.782 194.363 122.307C194.716 121.832 194.893 121.186 194.893 120.37Z" fill="#4A4A4A"/>
<path d="M205.458 124.182C205.094 124.275 204.621 124.368 204.039 124.461C203.457 124.564 202.818 124.616 202.121 124.616C201.466 124.616 200.916 124.523 200.469 124.337C200.032 124.151 199.679 123.892 199.409 123.562C199.149 123.231 198.962 122.839 198.847 122.384C198.733 121.92 198.676 121.413 198.676 120.866V116.326H200.562V120.572C200.562 121.439 200.687 122.059 200.936 122.431C201.196 122.803 201.643 122.989 202.277 122.989C202.506 122.989 202.745 122.978 202.994 122.958C203.254 122.937 203.446 122.911 203.571 122.88V116.326H205.458V124.182Z" fill="#4A4A4A"/>
<path d="M212.504 118.015C212.348 117.963 212.13 117.912 211.85 117.86C211.579 117.798 211.262 117.767 210.899 117.767C210.691 117.767 210.467 117.788 210.228 117.829C210 117.87 209.838 117.907 209.745 117.938V124.43H207.859V116.714C208.222 116.579 208.674 116.455 209.215 116.342C209.766 116.218 210.374 116.156 211.039 116.156C211.164 116.156 211.309 116.166 211.475 116.187C211.642 116.197 211.808 116.218 211.974 116.249C212.141 116.269 212.302 116.3 212.458 116.342C212.614 116.373 212.738 116.404 212.832 116.435L212.504 118.015Z" fill="#4A4A4A"/>
<path d="M216.189 123.082C216.688 123.082 217.051 123.025 217.28 122.911C217.509 122.787 217.623 122.581 217.623 122.291C217.623 122.023 217.498 121.801 217.249 121.625C217.01 121.45 216.61 121.258 216.048 121.052C215.705 120.928 215.388 120.799 215.097 120.665C214.817 120.52 214.572 120.355 214.365 120.169C214.157 119.983 213.99 119.761 213.866 119.502C213.751 119.234 213.694 118.909 213.694 118.526C213.694 117.783 213.97 117.199 214.521 116.776C215.071 116.342 215.82 116.125 216.765 116.125C217.244 116.125 217.701 116.171 218.137 116.264C218.574 116.347 218.901 116.43 219.12 116.512L218.777 118.031C218.569 117.938 218.304 117.855 217.981 117.783C217.659 117.7 217.285 117.659 216.859 117.659C216.474 117.659 216.163 117.726 215.924 117.86C215.685 117.984 215.565 118.18 215.565 118.449C215.565 118.583 215.586 118.702 215.627 118.805C215.679 118.909 215.763 119.007 215.877 119.1C215.991 119.182 216.142 119.27 216.329 119.363C216.516 119.446 216.745 119.533 217.015 119.626C217.462 119.792 217.841 119.957 218.153 120.122C218.465 120.277 218.719 120.458 218.917 120.665C219.125 120.861 219.275 121.088 219.369 121.346C219.463 121.605 219.509 121.914 219.509 122.276C219.509 123.051 219.218 123.639 218.636 124.042C218.065 124.435 217.244 124.631 216.173 124.631C215.456 124.631 214.879 124.569 214.443 124.445C214.006 124.331 213.699 124.238 213.523 124.166L213.85 122.601C214.131 122.715 214.463 122.823 214.848 122.927C215.243 123.03 215.69 123.082 216.189 123.082Z" fill="#4A4A4A"/>
</svg>
