<svg width="782" height="317" viewBox="0 0 782 317" fill="none" xmlns="http://www.w3.org/2000/svg">
  <g clip-path="url(#clip0_102_251)">
    <path d="M133 232.2V213.492H151.708V232.2H133ZM181.3 232.2V201.1H212.4V232.2H181.3ZM243.778 231.839V201.1H212.678V170H181.378C182.389 152.6 193.721 141.51 205.718 129.769C220.14 115.657 235.051 101.063 233.763 74.0088C242.328 80.2318 250.399 87.1087 257.903 94.5771C265.242 101.853 271.864 109.819 277.676 118.364C283.234 126.502 287.725 135.321 291.039 144.602C294.229 153.568 295.889 163.007 295.948 172.524C295.948 189.266 290.417 203.866 279.948 214.745C275.172 219.703 269.52 223.733 263.277 226.633C257.134 229.503 250.533 231.268 243.777 231.846L243.778 231.839ZM154.187 201.1V178.674H176.612V201.1H154.187Z" fill="white"/>
    <path d="M243.775 231.837V201.096H212.675V169.996H243.775V201.096H274.875V219.387C271.316 222.263 267.418 224.694 263.269 226.625C257.128 229.494 250.529 231.259 243.775 231.837ZM181.369 169.992C182.119 157.106 188.527 147.682 196.675 138.892H212.399V169.992H181.369Z" fill="white"/>
    <path d="M336.539 167.021C337.03 167.066 337.599 167.099 338.246 167.121C338.893 167.143 339.663 167.155 340.555 167.156C345.776 167.156 349.647 165.839 352.168 163.206C354.689 160.573 355.949 156.936 355.95 152.296C355.95 147.429 354.745 143.748 352.336 141.252C349.927 138.756 346.111 137.507 340.89 137.504C340.176 137.504 339.44 137.515 338.681 137.537C337.965 137.556 337.25 137.612 336.539 137.704V167.021ZM366.726 152.296C366.804 155.888 366.167 159.46 364.852 162.804C363.693 165.668 361.869 168.215 359.531 170.234C357.074 172.282 354.211 173.788 351.131 174.652C347.518 175.676 343.775 176.172 340.02 176.124C338.146 176.124 335.96 176.046 333.461 175.89C330.987 175.737 328.527 175.413 326.098 174.919V129.74C328.587 129.285 331.102 128.985 333.628 128.84C336.239 128.684 338.481 128.606 340.355 128.606C344.002 128.565 347.638 129.015 351.165 129.945C354.211 130.74 357.051 132.175 359.497 134.156C361.86 136.133 363.7 138.662 364.852 141.519C366.182 144.952 366.819 148.615 366.726 152.296ZM389.015 128.602C395.976 128.602 401.309 129.84 405.015 132.317C408.721 134.794 410.573 138.642 410.57 143.863C410.699 146.679 409.913 149.462 408.328 151.794C406.659 153.956 404.423 155.613 401.869 156.58C402.806 157.74 403.788 159.067 404.814 160.562C405.84 162.057 406.855 163.618 407.859 165.247C408.863 166.876 409.834 168.571 410.771 170.334C411.708 172.097 412.577 173.826 413.378 175.522H401.706C400.855 174.005 399.992 172.465 399.119 170.903C398.246 169.341 397.35 167.825 396.431 166.356C395.513 164.883 394.606 163.489 393.71 162.173C392.814 160.857 391.918 159.662 391.023 158.588H385.869V175.522H375.427V129.807C377.76 129.353 380.118 129.04 382.488 128.87C384.92 128.691 387.096 128.602 389.015 128.602ZM389.615 137.502C388.856 137.502 388.176 137.524 387.574 137.569C386.972 137.614 386.403 137.658 385.867 137.703V150.286H388.812C392.739 150.286 395.55 149.795 397.245 148.813C398.94 147.831 399.788 146.158 399.788 143.793C399.867 142.823 399.666 141.85 399.209 140.99C398.752 140.13 398.059 139.419 397.211 138.94C395.495 137.983 392.964 137.504 389.617 137.504L389.615 137.502ZM437.678 176.456C434.807 176.521 431.948 176.056 429.245 175.084C427.031 174.268 425.029 172.964 423.388 171.269C421.829 169.608 420.663 167.618 419.974 165.446C419.215 163.032 418.844 160.513 418.874 157.983V129.137H429.308V157.115C429.273 158.734 429.487 160.348 429.944 161.901C430.293 163.082 430.886 164.176 431.684 165.114C432.406 165.929 433.329 166.541 434.361 166.887C435.473 167.254 436.638 167.435 437.808 167.422C438.945 167.469 440.079 167.285 441.143 166.883C442.207 166.48 443.178 165.867 443.999 165.079C445.585 163.518 446.378 160.864 446.378 157.115V129.137H456.819V157.985C456.847 160.53 456.463 163.063 455.681 165.485C454.975 167.674 453.785 169.675 452.201 171.342C450.53 173.041 448.492 174.335 446.244 175.124C443.49 176.07 440.59 176.521 437.678 176.456ZM480.778 128.602C487.695 128.602 493.005 129.818 496.708 132.25C500.411 134.682 502.263 138.664 502.263 144.197C502.263 149.775 500.389 153.802 496.641 156.278C492.893 158.754 487.539 159.992 480.578 159.993H477.298V175.522H466.857V129.807C469.245 129.346 471.659 129.033 474.086 128.87C476.629 128.691 478.86 128.602 480.778 128.602ZM481.447 137.502C480.688 137.502 479.941 137.524 479.205 137.569C478.469 137.614 477.833 137.658 477.297 137.703V151.089H480.577C484.192 151.089 486.914 150.598 488.743 149.616C490.572 148.634 491.487 146.805 491.487 144.128C491.529 143.015 491.288 141.91 490.787 140.915C490.315 140.065 489.621 139.36 488.778 138.876C487.795 138.324 486.716 137.961 485.599 137.805C484.226 137.595 482.838 137.494 481.448 137.504L481.447 137.502ZM509.962 175.522V129.137H541.018V137.905H520.403V147.61H538.743V156.378H520.403V175.522H509.962ZM576.287 175.522C575.771 173.91 575.216 172.255 574.622 170.556L572.847 165.482H554.731L552.97 170.57C552.381 172.271 551.833 173.921 551.326 175.522H540.478C542.224 170.522 543.88 165.904 545.446 161.667C547.012 157.43 548.545 153.437 550.046 149.686C551.545 145.938 553.022 142.379 554.477 139.01C555.932 135.641 557.442 132.35 559.009 129.137H568.909C570.433 132.35 571.935 135.641 573.414 139.01C574.893 142.379 576.385 145.938 577.888 149.686C579.39 153.434 580.925 157.428 582.494 161.667C584.063 165.906 585.721 170.525 587.47 175.522H576.287ZM563.742 139.646C563.509 140.319 563.169 141.236 562.72 142.395C562.271 143.554 561.76 144.894 561.187 146.414C560.614 147.933 559.973 149.607 559.265 151.434C558.557 153.261 557.837 155.177 557.106 157.182H570.37C569.66 155.171 568.973 153.249 568.308 151.416C567.643 149.583 567.01 147.907 566.408 146.387C565.808 144.867 565.283 143.528 564.832 142.37C564.381 141.212 564.018 140.304 563.742 139.646ZM624.55 175.522C621.56 170.211 618.325 164.968 614.845 159.793C611.426 154.698 607.716 149.804 603.734 145.135V175.522H593.426V129.137H601.926C603.399 130.61 605.027 132.417 606.812 134.559C608.597 136.701 610.415 138.988 612.267 141.42C614.119 143.852 615.96 146.373 617.789 148.983C619.618 151.593 621.336 154.103 622.943 156.513V129.137H633.318V175.522H624.55Z" fill="white"/>
    <path d="M509.238 215.52C509.238 213.22 509.572 211.203 510.238 209.47C510.938 207.737 511.855 206.303 512.988 205.17C514.122 204.003 515.422 203.137 516.888 202.57C518.355 201.97 519.855 201.67 521.388 201.67C524.988 201.67 527.788 202.787 529.788 205.02C531.822 207.253 532.838 210.587 532.838 215.02C532.838 215.353 532.822 215.737 532.788 216.17C532.788 216.57 532.772 216.937 532.738 217.27H515.488C515.655 219.37 516.388 221.003 517.688 222.17C519.022 223.303 520.938 223.87 523.438 223.87C524.905 223.87 526.238 223.737 527.438 223.47C528.672 223.203 529.638 222.92 530.338 222.62L531.138 227.57C530.805 227.737 530.338 227.92 529.738 228.12C529.172 228.287 528.505 228.437 527.738 228.57C527.005 228.737 526.205 228.87 525.338 228.97C524.472 229.07 523.588 229.12 522.688 229.12C520.388 229.12 518.388 228.787 516.688 228.12C514.988 227.42 513.588 226.47 512.488 225.27C511.388 224.037 510.572 222.603 510.038 220.97C509.505 219.303 509.238 217.487 509.238 215.52ZM526.788 212.82C526.788 211.987 526.672 211.203 526.438 210.47C526.205 209.703 525.855 209.053 525.388 208.52C524.955 207.953 524.405 207.52 523.738 207.22C523.105 206.887 522.338 206.72 521.438 206.72C520.505 206.72 519.688 206.903 518.988 207.27C518.288 207.603 517.688 208.053 517.188 208.62C516.722 209.187 516.355 209.837 516.088 210.57C515.822 211.303 515.638 212.053 515.538 212.82H526.788Z" fill="white"/>
    <path d="M505.422 207.77C504.922 207.603 504.222 207.437 503.322 207.27C502.456 207.07 501.439 206.97 500.272 206.97C499.606 206.97 498.889 207.037 498.122 207.17C497.389 207.303 496.872 207.42 496.572 207.52V228.47H490.522V203.57C491.689 203.137 493.139 202.737 494.872 202.37C496.639 201.97 498.589 201.77 500.722 201.77C501.122 201.77 501.589 201.803 502.122 201.87C502.656 201.903 503.189 201.97 503.722 202.07C504.256 202.137 504.772 202.237 505.272 202.37C505.772 202.47 506.172 202.57 506.472 202.67L505.422 207.77Z" fill="white"/>
    <path d="M473.013 224.22C474.88 224.22 476.297 224.12 477.263 223.92V217.22C476.93 217.12 476.447 217.02 475.813 216.92C475.18 216.82 474.48 216.77 473.713 216.77C473.047 216.77 472.363 216.82 471.663 216.92C470.997 217.02 470.38 217.203 469.813 217.47C469.28 217.737 468.847 218.12 468.513 218.62C468.18 219.087 468.013 219.687 468.013 220.42C468.013 221.853 468.463 222.853 469.363 223.42C470.263 223.953 471.48 224.22 473.013 224.22ZM472.513 201.67C474.513 201.67 476.197 201.92 477.563 202.42C478.93 202.92 480.013 203.62 480.813 204.52C481.647 205.42 482.23 206.52 482.563 207.82C482.93 209.087 483.113 210.487 483.113 212.02V227.87C482.18 228.07 480.763 228.303 478.863 228.57C476.997 228.87 474.88 229.02 472.513 229.02C470.947 229.02 469.513 228.87 468.213 228.57C466.913 228.27 465.797 227.787 464.863 227.12C463.963 226.453 463.247 225.587 462.713 224.52C462.213 223.453 461.963 222.137 461.963 220.57C461.963 219.07 462.247 217.803 462.813 216.77C463.413 215.737 464.213 214.903 465.213 214.27C466.213 213.603 467.363 213.137 468.663 212.87C469.997 212.57 471.38 212.42 472.813 212.42C473.48 212.42 474.18 212.47 474.913 212.57C475.647 212.637 476.43 212.77 477.263 212.97V211.97C477.263 211.27 477.18 210.603 477.013 209.97C476.847 209.337 476.547 208.787 476.113 208.32C475.713 207.82 475.163 207.437 474.463 207.17C473.797 206.903 472.947 206.77 471.913 206.77C470.513 206.77 469.23 206.87 468.063 207.07C466.897 207.27 465.947 207.503 465.213 207.77L464.463 202.87C465.23 202.603 466.347 202.337 467.813 202.07C469.28 201.803 470.847 201.67 472.513 201.67Z" fill="white"/>
    <path d="M440.4 212.02C439.633 214.953 438.8 217.82 437.9 220.62C437.033 223.386 436.166 226.003 435.3 228.47H430.35C429.683 226.936 428.983 225.186 428.25 223.22C427.516 221.253 426.783 219.153 426.05 216.92C425.316 214.686 424.583 212.336 423.85 209.87C423.116 207.403 422.4 204.886 421.7 202.32H428.1C428.4 203.72 428.75 205.236 429.15 206.87C429.55 208.47 429.966 210.12 430.4 211.82C430.833 213.486 431.283 215.12 431.75 216.72C432.216 218.32 432.683 219.786 433.15 221.12C433.65 219.586 434.133 218.003 434.6 216.37C435.1 214.736 435.566 213.103 436 211.47C436.433 209.836 436.833 208.253 437.2 206.72C437.6 205.153 437.95 203.686 438.25 202.32H442.9C443.2 203.686 443.533 205.153 443.9 206.72C444.266 208.253 444.65 209.836 445.05 211.47C445.483 213.103 445.933 214.736 446.4 216.37C446.9 218.003 447.4 219.586 447.9 221.12C448.333 219.786 448.783 218.32 449.25 216.72C449.716 215.12 450.166 213.486 450.6 211.82C451.066 210.12 451.5 208.47 451.9 206.87C452.3 205.236 452.65 203.72 452.95 202.32H459.2C458.5 204.886 457.783 207.403 457.05 209.87C456.316 212.336 455.583 214.686 454.85 216.92C454.116 219.153 453.383 221.253 452.65 223.22C451.916 225.186 451.2 226.936 450.5 228.47H445.6C444.733 226.003 443.833 223.386 442.9 220.62C442 217.82 441.166 214.953 440.4 212.02Z" fill="white"/>
    <path d="M403.601 195.42L409.651 194.42V202.32H418.951V207.37H409.651V218.02C409.651 220.12 409.984 221.62 410.651 222.52C411.318 223.42 412.451 223.87 414.051 223.87C415.151 223.87 416.118 223.753 416.951 223.52C417.818 223.287 418.501 223.07 419.001 222.87L420.001 227.67C419.301 227.97 418.384 228.27 417.251 228.57C416.118 228.903 414.784 229.07 413.251 229.07C411.384 229.07 409.818 228.82 408.551 228.32C407.318 227.82 406.334 227.103 405.601 226.17C404.868 225.203 404.351 224.053 404.051 222.72C403.751 221.353 403.601 219.803 403.601 218.07V195.42Z" fill="white"/>
    <path d="M394.532 189.67C395.932 189.67 397.165 189.803 398.232 190.07C399.299 190.303 400.099 190.52 400.632 190.72L399.482 195.72C398.915 195.453 398.249 195.237 397.482 195.07C396.749 194.903 395.949 194.82 395.082 194.82C394.115 194.82 393.299 194.97 392.632 195.27C391.965 195.537 391.432 195.92 391.032 196.42C390.632 196.92 390.349 197.537 390.182 198.27C390.015 198.97 389.932 199.737 389.932 200.57V202.32H399.432V207.37H389.932V228.47H383.882V200.47C383.882 197.103 384.765 194.47 386.532 192.57C388.299 190.637 390.965 189.67 394.532 189.67Z" fill="white"/>
    <path d="M377.649 215.37C377.649 217.437 377.349 219.32 376.749 221.02C376.149 222.72 375.299 224.17 374.199 225.37C373.099 226.57 371.765 227.503 370.199 228.17C368.665 228.837 366.965 229.17 365.099 229.17C363.232 229.17 361.532 228.837 359.999 228.17C358.465 227.503 357.149 226.57 356.049 225.37C354.949 224.17 354.082 222.72 353.449 221.02C352.849 219.32 352.549 217.437 352.549 215.37C352.549 213.303 352.849 211.437 353.449 209.77C354.082 208.07 354.949 206.62 356.049 205.42C357.182 204.22 358.515 203.303 360.049 202.67C361.582 202.003 363.265 201.67 365.099 201.67C366.932 201.67 368.615 202.003 370.149 202.67C371.715 203.303 373.049 204.22 374.149 205.42C375.249 206.62 376.099 208.07 376.699 209.77C377.332 211.437 377.649 213.303 377.649 215.37ZM371.449 215.37C371.449 212.77 370.882 210.72 369.749 209.22C368.649 207.687 367.099 206.92 365.099 206.92C363.099 206.92 361.532 207.687 360.399 209.22C359.299 210.72 358.749 212.77 358.749 215.37C358.749 218.003 359.299 220.087 360.399 221.62C361.532 223.153 363.099 223.92 365.099 223.92C367.099 223.92 368.649 223.153 369.749 221.62C370.882 220.087 371.449 218.003 371.449 215.37Z" fill="white"/>
    <path d="M335.697 223.77C337.964 223.77 339.614 223.387 340.647 222.62C341.68 221.853 342.197 220.77 342.197 219.37C342.197 218.537 342.014 217.82 341.647 217.22C341.314 216.62 340.814 216.087 340.147 215.62C339.514 215.12 338.73 214.67 337.797 214.27C336.864 213.837 335.797 213.42 334.597 213.02C333.397 212.587 332.23 212.12 331.097 211.62C329.997 211.087 329.014 210.437 328.147 209.67C327.314 208.903 326.63 207.987 326.097 206.92C325.597 205.853 325.347 204.57 325.347 203.07C325.347 199.937 326.43 197.487 328.597 195.72C330.764 193.92 333.714 193.02 337.447 193.02C339.614 193.02 341.53 193.27 343.197 193.77C344.897 194.237 346.23 194.753 347.197 195.32L345.247 200.42C344.114 199.787 342.864 199.303 341.497 198.97C340.164 198.637 338.78 198.47 337.347 198.47C335.647 198.47 334.314 198.82 333.347 199.52C332.414 200.22 331.947 201.203 331.947 202.47C331.947 203.237 332.097 203.903 332.397 204.47C332.73 205.003 333.18 205.487 333.747 205.92C334.347 206.353 335.03 206.753 335.797 207.12C336.597 207.487 337.464 207.837 338.397 208.17C340.03 208.77 341.48 209.387 342.747 210.02C344.047 210.62 345.13 211.353 345.997 212.22C346.897 213.053 347.58 214.053 348.047 215.22C348.514 216.353 348.747 217.737 348.747 219.37C348.747 222.503 347.63 224.937 345.397 226.67C343.197 228.37 339.964 229.22 335.697 229.22C334.264 229.22 332.947 229.12 331.747 228.92C330.58 228.753 329.53 228.537 328.597 228.27C327.697 228.003 326.914 227.737 326.247 227.47C325.58 227.17 325.047 226.903 324.647 226.67L326.497 221.52C327.397 222.02 328.614 222.52 330.147 223.02C331.68 223.52 333.53 223.77 335.697 223.77Z" fill="white"/>
  </g>
  <defs>
    <clipPath id="clip0_102_251">
      <rect width="500.318" height="164.47" fill="white" transform="translate(133 74)"/>
    </clipPath>
  </defs>
</svg>
