<svg width="25" height="24" viewBox="0 0 25 24" fill="none" xmlns="http://www.w3.org/2000/svg">
<path d="M0.5 23.287V20.55H3.25543V23.287H0.5ZM7.61393 23.287V18.737H12.1945V23.287H7.61393ZM16.8161 23.2341V18.737H12.2355V14.187H7.62541C7.77432 11.6414 9.44337 10.019 11.2104 8.30124C13.3345 6.23665 15.5307 4.10151 15.341 0.143494C16.6025 1.05392 17.7913 2.06001 18.8965 3.15265C19.9774 4.21716 20.9527 5.38249 21.8088 6.63265C22.6274 7.82334 23.2888 9.11345 23.777 10.4713C24.2468 11.7831 24.4912 13.164 24.5 14.5563C24.5 17.0057 23.6854 19.1417 22.1434 20.7333C21.44 21.4586 20.6075 22.0482 19.688 22.4725C18.7832 22.8923 17.811 23.1506 16.8159 23.2352L16.8161 23.2341ZM3.62055 18.737V15.456H6.92345V18.737H3.62055Z" fill="#EBF0FC"/>
</svg>
