<svg width="178" height="47" viewBox="0 0 178 47" fill="none" xmlns="http://www.w3.org/2000/svg">
<path d="M2 46.9038C2 46.3516 1.55228 45.9038 1 45.9038C0.447715 45.9038 0 46.3516 0 46.9038H2ZM0 42.0962C0 42.6484 0.447715 43.0962 1 43.0962C1.55228 43.0962 2 42.6484 2 42.0962H0ZM2 41.9038C2 41.3516 1.55228 40.9038 1 40.9038C0.447715 40.9038 0 41.3516 0 41.9038H2ZM0 37.0962C0 37.6484 0.447715 38.0962 1 38.0962C1.55228 38.0962 2 37.6484 2 37.0962H0ZM2 36.9038C2 36.3516 1.55228 35.9038 1 35.9038C0.447715 35.9038 0 36.3516 0 36.9038H2ZM0 32.0962C0 32.6484 0.447715 33.0962 1 33.0962C1.55228 33.0962 2 32.6484 2 32.0962H0ZM2 31.9038C2 31.3516 1.55228 30.9038 1 30.9038C0.447715 30.9038 0 31.3516 0 31.9038H2ZM0 27.0962C0 27.6484 0.447715 28.0962 1 28.0962C1.55228 28.0962 2 27.6484 2 27.0962H0ZM2.00024 26.9037C2.00298 26.3515 1.55748 25.9015 1.00521 25.8988C0.452928 25.8961 0.0029999 26.3415 0.000263035 26.8938L2.00024 26.9037ZM0.683655 21.666C0.543748 22.2003 0.863443 22.7468 1.39771 22.8867C1.93198 23.0266 2.47851 22.7069 2.61842 22.1726L0.683655 21.666ZM2.6679 21.9875C2.81323 21.4547 2.49911 20.9049 1.96629 20.7596C1.43347 20.6143 0.883722 20.9284 0.738391 21.4612L2.6679 21.9875ZM2.75828 16.5893C2.48411 17.0687 2.6505 17.6796 3.12992 17.9538C3.60934 18.2279 4.22025 18.0616 4.49443 17.5821L2.75828 16.5893ZM4.59023 17.4165C4.86922 16.9399 4.709 16.3274 4.23237 16.0484C3.75573 15.7694 3.14317 15.9296 2.86418 16.4062L4.59023 17.4165ZM6.0762 12.2257C5.68764 12.6182 5.69081 13.2513 6.08328 13.6399C6.47575 14.0284 7.10891 14.0253 7.49748 13.6328L6.0762 12.2257ZM7.63281 13.4975C8.02528 13.1089 8.02845 12.4757 7.63989 12.0833C7.25132 11.6908 6.61816 11.6876 6.22569 12.0762L7.63281 13.4975ZM10.4062 8.86418C9.9296 9.14317 9.76938 9.75573 10.0484 10.2324C10.3274 10.709 10.9399 10.8692 11.4166 10.5902L10.4062 8.86418ZM11.5821 10.4944C12.0616 10.2203 12.2279 9.60934 11.9538 9.12992C11.6796 8.65049 11.0687 8.48411 10.5893 8.75828L11.5821 10.4944ZM15.4612 6.73839C14.9284 6.88372 14.6143 7.43347 14.7596 7.96629C14.9049 8.49911 15.4547 8.81323 15.9875 8.6679L15.4612 6.73839ZM16.1726 8.61842C16.7069 8.47851 17.0266 7.93198 16.8867 7.39771C16.7468 6.86344 16.2003 6.54375 15.666 6.68365L16.1726 8.61842ZM20.8938 6.00026C20.3415 6.003 19.896 6.45293 19.8988 7.00521C19.9015 7.55748 20.3515 8.00298 20.9037 8.00024L20.8938 6.00026ZM21.0997 8C21.652 8 22.0997 7.55228 22.0997 7C22.0997 6.44772 21.652 6 21.0997 6V8ZM26.0837 6C25.5314 6 25.0837 6.44772 25.0837 7C25.0837 7.55228 25.5314 8 26.0837 8V6ZM26.283 8C26.8353 8 27.283 7.55228 27.283 7C27.283 6.44772 26.8353 6 26.283 6V8ZM31.267 6C30.7147 6 30.267 6.44772 30.267 7C30.267 7.55228 30.7147 8 31.267 8V6ZM31.4663 8C32.0186 8 32.4663 7.55228 32.4663 7C32.4663 6.44772 32.0186 6 31.4663 6V8ZM36.4503 6C35.898 6 35.4503 6.44772 35.4503 7C35.4503 7.55228 35.898 8 36.4503 8V6ZM36.6497 8C37.202 8 37.6497 7.55228 37.6497 7C37.6497 6.44772 37.202 6 36.6497 6V8ZM41.6337 6C41.0814 6 40.6337 6.44772 40.6337 7C40.6337 7.55228 41.0814 8 41.6337 8V6ZM41.833 8C42.3853 8 42.833 7.55228 42.833 7C42.833 6.44772 42.3853 6 41.833 6V8ZM46.817 6C46.2647 6 45.817 6.44772 45.817 7C45.817 7.55228 46.2647 8 46.817 8V6ZM47.0163 8C47.5686 8 48.0163 7.55228 48.0163 7C48.0163 6.44772 47.5686 6 47.0163 6V8ZM52.0003 6C51.448 6 51.0003 6.44772 51.0003 7C51.0003 7.55228 51.448 8 52.0003 8V6ZM52.1997 8C52.752 8 53.1997 7.55228 53.1997 7C53.1997 6.44772 52.752 6 52.1997 6V8ZM57.1837 6C56.6314 6 56.1837 6.44772 56.1837 7C56.1837 7.55228 56.6314 8 57.1837 8V6ZM57.383 8C57.9353 8 58.383 7.55228 58.383 7C58.383 6.44772 57.9353 6 57.383 6V8ZM62.367 6C61.8147 6 61.367 6.44772 61.367 7C61.367 7.55228 61.8147 8 62.367 8V6ZM62.5663 8C63.1186 8 63.5663 7.55228 63.5663 7C63.5663 6.44772 63.1186 6 62.5663 6V8ZM67.5503 6C66.998 6 66.5503 6.44772 66.5503 7C66.5503 7.55228 66.998 8 67.5503 8V6ZM67.7497 8C68.302 8 68.7497 7.55228 68.7497 7C68.7497 6.44772 68.302 6 67.7497 6V8ZM72.7337 6C72.1814 6 71.7337 6.44772 71.7337 7C71.7337 7.55228 72.1814 8 72.7337 8V6ZM72.933 8C73.4853 8 73.933 7.55228 73.933 7C73.933 6.44772 73.4853 6 72.933 6V8ZM77.917 6C77.3647 6 76.917 6.44772 76.917 7C76.917 7.55228 77.3647 8 77.917 8V6ZM78.1163 8C78.6686 8 79.1163 7.55228 79.1163 7C79.1163 6.44772 78.6686 6 78.1163 6V8ZM83.1003 6C82.548 6 82.1003 6.44772 82.1003 7C82.1003 7.55228 82.548 8 83.1003 8V6ZM83.2997 8C83.852 8 84.2997 7.55228 84.2997 7C84.2997 6.44772 83.852 6 83.2997 6V8ZM88.2837 6C87.7314 6 87.2837 6.44772 87.2837 7C87.2837 7.55228 87.7314 8 88.2837 8V6ZM88.483 8C89.0353 8 89.483 7.55228 89.483 7C89.483 6.44772 89.0353 6 88.483 6V8ZM93.467 6C92.9147 6 92.467 6.44772 92.467 7C92.467 7.55228 92.9147 8 93.467 8V6ZM93.6664 8C94.2186 8 94.6664 7.55228 94.6664 7C94.6664 6.44772 94.2186 6 93.6664 6V8ZM98.6503 6C98.098 6 97.6503 6.44772 97.6503 7C97.6503 7.55228 98.098 8 98.6503 8V6ZM98.8497 8C99.402 8 99.8497 7.55228 99.8497 7C99.8497 6.44772 99.402 6 98.8497 6V8ZM103.834 6C103.281 6 102.834 6.44772 102.834 7C102.834 7.55228 103.281 8 103.834 8V6ZM104.033 8C104.585 8 105.033 7.55228 105.033 7C105.033 6.44772 104.585 6 104.033 6V8ZM109.017 6C108.465 6 108.017 6.44772 108.017 7C108.017 7.55228 108.465 8 109.017 8V6ZM109.216 8C109.769 8 110.216 7.55228 110.216 7C110.216 6.44772 109.769 6 109.216 6V8ZM114.2 6C113.648 6 113.2 6.44772 113.2 7C113.2 7.55228 113.648 8 114.2 8V6ZM114.4 8C114.952 8 115.4 7.55228 115.4 7C115.4 6.44772 114.952 6 114.4 6V8ZM119.384 6C118.831 6 118.384 6.44772 118.384 7C118.384 7.55228 118.831 8 119.384 8V6ZM119.583 8C120.135 8 120.583 7.55228 120.583 7C120.583 6.44772 120.135 6 119.583 6V8ZM124.567 6C124.015 6 123.567 6.44772 123.567 7C123.567 7.55228 124.015 8 124.567 8V6ZM124.766 8C125.319 8 125.766 7.55228 125.766 7C125.766 6.44772 125.319 6 124.766 6V8ZM129.75 6C129.198 6 128.75 6.44772 128.75 7C128.75 7.55228 129.198 8 129.75 8V6ZM129.95 8C130.502 8 130.95 7.55228 130.95 7C130.95 6.44772 130.502 6 129.95 6V8ZM134.934 6C134.381 6 133.934 6.44772 133.934 7C133.934 7.55228 134.381 8 134.934 8V6ZM135.133 8C135.685 8 136.133 7.55228 136.133 7C136.133 6.44772 135.685 6 135.133 6V8ZM140.117 6C139.565 6 139.117 6.44772 139.117 7C139.117 7.55228 139.565 8 140.117 8V6ZM140.316 8C140.869 8 141.316 7.55228 141.316 7C141.316 6.44772 140.869 6 140.316 6V8ZM145.3 6C144.748 6 144.3 6.44772 144.3 7C144.3 7.55228 144.748 8 145.3 8V6ZM145.5 8C146.052 8 146.5 7.55228 146.5 7C146.5 6.44772 146.052 6 145.5 6V8ZM150.484 6C149.931 6 149.484 6.44772 149.484 7C149.484 7.55228 149.931 8 150.484 8V6ZM150.683 8C151.235 8 151.683 7.55228 151.683 7C151.683 6.44772 151.235 6 150.683 6V8ZM155.667 6C155.115 6 154.667 6.44772 154.667 7C154.667 7.55228 155.115 8 155.667 8V6ZM155.866 8C156.419 8 156.866 7.55228 156.866 7C156.866 6.44772 156.419 6 155.866 6V8ZM160.85 6C160.298 6 159.85 6.44772 159.85 7C159.85 7.55228 160.298 8 160.85 8V6ZM161.05 8C161.602 8 162.05 7.55228 162.05 7C162.05 6.44772 161.602 6 161.05 6V8ZM166.034 6C165.481 6 165.034 6.44772 165.034 7C165.034 7.55228 165.481 8 166.034 8V6ZM166.233 8C166.785 8 167.233 7.55228 167.233 7C167.233 6.44772 166.785 6 166.233 6V8ZM171.217 6C170.665 6 170.217 6.44772 170.217 7C170.217 7.55228 170.665 8 171.217 8V6ZM171.416 8C171.969 8 172.416 7.55228 172.416 7C172.416 6.44772 171.969 6 171.416 6V8ZM176.4 6C175.848 6 175.4 6.44772 175.4 7C175.4 7.55228 175.848 8 176.4 8V6ZM2 47V46.9038H0V47H2ZM2 42.0962V41.9038H0V42.0962H2ZM2 37.0962V36.9038H0V37.0962H2ZM2 32.0962V31.9038H0V32.0962H2ZM2 27.0962V27H0V27.0962H2ZM2 27C2 26.9679 2.00008 26.9358 2.00024 26.9037L0.000263035 26.8938C8.7738e-05 26.9292 0 26.9646 0 27H2ZM2.61842 22.1726C2.63461 22.1108 2.65111 22.0491 2.6679 21.9875L0.738391 21.4612C0.719811 21.5293 0.701565 21.5976 0.683655 21.666L2.61842 22.1726ZM4.49443 17.5821C4.52609 17.5268 4.55803 17.4716 4.59023 17.4165L2.86418 16.4062C2.82858 16.467 2.79328 16.5281 2.75828 16.5893L4.49443 17.5821ZM7.49748 13.6328C7.54236 13.5875 7.58747 13.5424 7.63281 13.4975L6.22569 12.0762C6.17561 12.1258 6.12578 12.1756 6.0762 12.2257L7.49748 13.6328ZM11.4166 10.5902C11.4716 10.558 11.5268 10.5261 11.5821 10.4944L10.5893 8.75828C10.5281 8.79328 10.467 8.82858 10.4062 8.86418L11.4166 10.5902ZM15.9875 8.6679C16.0491 8.65111 16.1108 8.63461 16.1726 8.61842L15.666 6.68365C15.5976 6.70156 15.5293 6.71981 15.4612 6.73839L15.9875 8.6679ZM20.9037 8.00024C20.9358 8.00008 20.9679 8 21 8V6C20.9646 6 20.9292 6.00009 20.8938 6.00026L20.9037 8.00024ZM21 8H21.0997V6H21V8ZM26.0837 8H26.283V6H26.0837V8ZM31.267 8H31.4663V6H31.267V8ZM36.4503 8H36.6497V6H36.4503V8ZM41.6337 8H41.833V6H41.6337V8ZM46.817 8H47.0163V6H46.817V8ZM52.0003 8H52.1997V6H52.0003V8ZM57.1837 8H57.383V6H57.1837V8ZM62.367 8H62.5663V6H62.367V8ZM67.5503 8H67.7497V6H67.5503V8ZM72.7337 8H72.933V6H72.7337V8ZM77.917 8H78.1163V6H77.917V8ZM83.1003 8H83.2997V6H83.1003V8ZM88.2837 8H88.483V6H88.2837V8ZM93.467 8H93.6664V6H93.467V8ZM98.6503 8H98.8497V6H98.6503V8ZM103.834 8H104.033V6H103.834V8ZM109.017 8H109.216V6H109.017V8ZM114.2 8H114.4V6H114.2V8ZM119.384 8H119.583V6H119.384V8ZM124.567 8H124.766V6H124.567V8ZM129.75 8H129.95V6H129.75V8ZM134.934 8H135.133V6H134.934V8ZM140.117 8H140.316V6H140.117V8ZM145.3 8H145.5V6H145.3V8ZM150.484 8H150.683V6H150.484V8ZM155.667 8H155.866V6H155.667V8ZM160.85 8H161.05V6H160.85V8ZM166.034 8H166.233V6H166.034V8ZM171.217 8H171.416V6H171.217V8ZM176.4 8H176.5V6H176.4V8Z" fill="#A4A2A2"/>
<path d="M178 7L170.5 13.0622L170.5 0.937822L178 7Z" fill="#395AFF"/>
</svg>
