<svg width="14" height="78" viewBox="0 0 14 78" fill="none" xmlns="http://www.w3.org/2000/svg">
<path d="M8 1C8 0.447715 7.55228 2.4141e-08 7 0C6.44771 -2.41413e-08 6 0.447715 6 1L8 1ZM6 1.09679C6 1.64908 6.44771 2.09679 7 2.09679C7.55228 2.09679 8 1.64908 8 1.09679L6 1.09679ZM8 5.93654C8 5.38425 7.55228 4.93654 7 4.93654C6.44771 4.93654 6 5.38425 6 5.93654L8 5.93654ZM6 6.13013C6 6.68241 6.44771 7.13013 7 7.13013C7.55228 7.13013 8 6.68241 8 6.13013L6 6.13013ZM8 10.9699C8 10.4176 7.55228 9.96987 7 9.96987C6.44771 9.96987 6 10.4176 6 10.9699L8 10.9699ZM6 11.1635C6 11.7157 6.44771 12.1635 7 12.1635C7.55228 12.1635 8 11.7157 8 11.1635L6 11.1635ZM8 16.0032C8 15.4509 7.55228 15.0032 7 15.0032C6.44771 15.0032 6 15.4509 6 16.0032L8 16.0032ZM6 16.1968C6 16.7491 6.44771 17.1968 7 17.1968C7.55228 17.1968 8 16.7491 8 16.1968L6 16.1968ZM8 21.0365C8 20.4843 7.55228 20.0365 7 20.0365C6.44771 20.0365 6 20.4843 6 21.0365L8 21.0365ZM6 21.2301C6 21.7824 6.44771 22.2301 7 22.2301C7.55228 22.2301 8 21.7824 8 21.2301L6 21.2301ZM8 26.0699C8 25.5176 7.55228 25.0699 7 25.0699C6.44771 25.0699 6 25.5176 6 26.0699L8 26.0699ZM6 26.2635C6 26.8157 6.44771 27.2635 7 27.2635C7.55228 27.2635 8 26.8157 8 26.2635L6 26.2635ZM8 31.1032C8 30.5509 7.55228 30.1032 7 30.1032C6.44771 30.1032 6 30.5509 6 31.1032L8 31.1032ZM6 31.2968C6 31.8491 6.44771 32.2968 7 32.2968C7.55228 32.2968 8 31.8491 8 31.2968L6 31.2968ZM8 36.1365C8 35.5843 7.55228 35.1365 7 35.1365C6.44771 35.1365 6 35.5843 6 36.1365L8 36.1365ZM6 36.3301C6 36.8824 6.44771 37.3301 7 37.3301C7.55228 37.3301 8 36.8824 8 36.3301L6 36.3301ZM8 41.1699C8 40.6176 7.55228 40.1699 7 40.1699C6.44771 40.1699 6 40.6176 6 41.1699L8 41.1699ZM6 41.3635C6 41.9157 6.44771 42.3635 7 42.3635C7.55228 42.3635 8 41.9157 8 41.3635L6 41.3635ZM8 46.2032C8 45.6509 7.55228 45.2032 7 45.2032C6.44771 45.2032 6 45.6509 6 46.2032L8 46.2032ZM6 46.3968C6 46.9491 6.44771 47.3968 7 47.3968C7.55228 47.3968 8 46.9491 8 46.3968L6 46.3968ZM8 51.2365C8 50.6843 7.55228 50.2365 7 50.2365C6.44771 50.2365 6 50.6843 6 51.2365L8 51.2365ZM6 51.4301C6 51.9824 6.44771 52.4301 7 52.4301C7.55228 52.4301 8 51.9824 8 51.4301L6 51.4301ZM8 56.2699C8 55.7176 7.55228 55.2699 7 55.2699C6.44771 55.2699 6 55.7176 6 56.2699L8 56.2699ZM6 56.4635C6 57.0157 6.44771 57.4635 7 57.4635C7.55228 57.4635 8 57.0157 8 56.4635L6 56.4635ZM8 61.3032C8 60.7509 7.55228 60.3032 7 60.3032C6.44771 60.3032 6 60.7509 6 61.3032L8 61.3032ZM6 61.4968C6 62.0491 6.44771 62.4968 7 62.4968C7.55228 62.4968 8 62.0491 8 61.4968L6 61.4968ZM8 66.3365C8 65.7842 7.55228 65.3365 7 65.3365C6.44771 65.3365 6 65.7842 6 66.3365L8 66.3365ZM6 66.5301C6 67.0824 6.44771 67.5301 7 67.5301C7.55228 67.5301 8 67.0824 8 66.5301L6 66.5301ZM8 71.3699C8 70.8176 7.55228 70.3699 7 70.3699C6.44771 70.3699 6 70.8176 6 71.3699L8 71.3699ZM6 71.5635C6 72.1157 6.44771 72.5635 7 72.5635C7.55228 72.5635 8 72.1157 8 71.5635L6 71.5635ZM8 76.4032C8 75.8509 7.55228 75.4032 7 75.4032C6.44771 75.4032 6 75.8509 6 76.4032L8 76.4032ZM6 1L6 1.09679L8 1.09679L8 1L6 1ZM6 5.93654L6 6.13013L8 6.13013L8 5.93654L6 5.93654ZM6 10.9699L6 11.1635L8 11.1635L8 10.9699L6 10.9699ZM6 16.0032L6 16.1968L8 16.1968L8 16.0032L6 16.0032ZM6 21.0365L6 21.2301L8 21.2301L8 21.0365L6 21.0365ZM6 26.0699L6 26.2635L8 26.2635L8 26.0699L6 26.0699ZM6 31.1032L6 31.2968L8 31.2968L8 31.1032L6 31.1032ZM6 36.1365L6 36.3301L8 36.3301L8 36.1365L6 36.1365ZM6 41.1699L6 41.3635L8 41.3635L8 41.1699L6 41.1699ZM6 46.2032L6 46.3968L8 46.3968L8 46.2032L6 46.2032ZM6 51.2365L6 51.4301L8 51.4301L8 51.2365L6 51.2365ZM6 56.2699L6 56.4635L8 56.4635L8 56.2699L6 56.2699ZM6 61.3032L6 61.4968L8 61.4968L8 61.3032L6 61.3032ZM6 66.3365L6 66.5301L8 66.5301L8 66.3365L6 66.3365ZM6 71.3699L6 71.5635L8 71.5635L8 71.3699L6 71.3699ZM6 76.4032L6 76.5L8 76.5L8 76.4032L6 76.4032Z" fill="#A4A2A2"/>
<path d="M7 78L0.937823 70.5L13.0622 70.5L7 78Z" fill="#395AFF"/>
</svg>
