<svg width="39" height="40" viewBox="0 0 39 40" fill="none" xmlns="http://www.w3.org/2000/svg">
<g opacity="0.7" clip-path="url(#clip0_2336_1951)">
<path d="M38.3906 19.9746C38.3906 30.6641 29.9355 39.325 19.5 39.325C9.06445 39.325 0.609375 30.6641 0.609375 19.9746C0.609375 9.28511 9.06445 0.624268 19.5 0.624268C29.9355 0.624268 38.3906 9.28511 38.3906 19.9746ZM17.3139 30.2194L31.3295 15.8627C31.8018 15.3789 31.8018 14.583 31.3295 14.0993L29.608 12.3359C29.1357 11.8522 28.3588 11.8522 27.8865 12.3359L16.4531 24.0398L11.1135 18.5702C10.6412 18.0864 9.86426 18.0864 9.39199 18.5702L7.67051 20.3335C7.19824 20.8173 7.19824 21.6132 7.67051 22.0969L15.5924 30.2116C16.0646 30.6953 16.8416 30.6953 17.3139 30.2116V30.2194Z" fill="#0706FF"/>
</g>
<defs>
<clipPath id="clip0_2336_1951">
<rect width="39" height="39.9491" fill="white"/>
</clipPath>
</defs>
</svg>
