<svg width="48" height="48" viewBox="0 0 48 48" fill="none" xmlns="http://www.w3.org/2000/svg">
<circle cx="24" cy="24" r="24" fill="#0706FF"/>
<path d="M28.125 29.875L29.875 28.125L25.25 23.5V17.75H22.75V24.5L28.125 29.875ZM24 36.5C22.2708 36.5 20.6458 36.1719 19.125 35.5156C17.6042 34.8594 16.2812 33.9688 15.1562 32.8438C14.0312 31.7188 13.1406 30.3958 12.4844 28.875C11.8281 27.3542 11.5 25.7292 11.5 24C11.5 22.2708 11.8281 20.6458 12.4844 19.125C13.1406 17.6042 14.0312 16.2812 15.1562 15.1562C16.2812 14.0312 17.6042 13.1406 19.125 12.4844C20.6458 11.8281 22.2708 11.5 24 11.5C25.7292 11.5 27.3542 11.8281 28.875 12.4844C30.3958 13.1406 31.7188 14.0312 32.8438 15.1562C33.9688 16.2812 34.8594 17.6042 35.5156 19.125C36.1719 20.6458 36.5 22.2708 36.5 24C36.5 25.7292 36.1719 27.3542 35.5156 28.875C34.8594 30.3958 33.9688 31.7188 32.8438 32.8438C31.7188 33.9688 30.3958 34.8594 28.875 35.5156C27.3542 36.1719 25.7292 36.5 24 36.5ZM24 34C26.7708 34 29.1302 33.026 31.0781 31.0781C33.026 29.1302 34 26.7708 34 24C34 21.2292 33.026 18.8698 31.0781 16.9219C29.1302 14.974 26.7708 14 24 14C21.2292 14 18.8698 14.974 16.9219 16.9219C14.974 18.8698 14 21.2292 14 24C14 26.7708 14.974 29.1302 16.9219 31.0781C18.8698 33.026 21.2292 34 24 34Z" fill="white"/>
</svg>
