<svg width="48" height="48" viewBox="0 0 48 48" fill="none" xmlns="http://www.w3.org/2000/svg">
<circle cx="24" cy="24" r="24" fill="#0706FF"/>
<path d="M30.8571 29.7142H18.2856V26.8571L21.7531 24.2565L24.5089 26.0937C24.923 26.3698 25.468 26.3461 25.8568 26.0352L31.571 21.4638C32.0639 21.0695 32.1438 20.3503 31.7495 19.8574C31.3553 19.3647 30.6361 19.2846 30.1432 19.679L25.0814 23.7284L22.3482 21.9062C21.9451 21.6374 21.4161 21.6522 21.0286 21.9429L18.2857 24V17.1429C18.2857 16.5117 17.774 16 17.1429 16C16.5117 16 16 16.5117 16 17.1429V30.8571C16 31.4883 16.5117 32 17.1429 32H30.8571C31.4883 32 32 31.4883 32 30.8571C32 30.226 31.4882 29.7142 30.8571 29.7142Z" fill="white"/>
</svg>
