<svg width="48" height="48" viewBox="0 0 48 48" fill="none" xmlns="http://www.w3.org/2000/svg">
<circle cx="24" cy="24" r="24" fill="#0706FF"/>
<path d="M24 24C22.625 24 21.4479 23.5104 20.4688 22.5312C19.4896 21.5521 19 20.375 19 19C19 17.625 19.4896 16.4479 20.4688 15.4688C21.4479 14.4896 22.625 14 24 14C25.375 14 26.5521 14.4896 27.5312 15.4688C28.5104 16.4479 29 17.625 29 19C29 20.375 28.5104 21.5521 27.5312 22.5312C26.5521 23.5104 25.375 24 24 24ZM14 34V30.5C14 29.7917 14.1823 29.1406 14.5469 28.5469C14.9115 27.9531 15.3958 27.5 16 27.1875C17.2917 26.5417 18.6042 26.0573 19.9375 25.7344C21.2708 25.4115 22.625 25.25 24 25.25C25.375 25.25 26.7292 25.4115 28.0625 25.7344C29.3958 26.0573 30.7083 26.5417 32 27.1875C32.6042 27.5 33.0885 27.9531 33.4531 28.5469C33.8177 29.1406 34 29.7917 34 30.5V34H14ZM16.5 31.5H31.5V30.5C31.5 30.2708 31.4427 30.0625 31.3281 29.875C31.2135 29.6875 31.0625 29.5417 30.875 29.4375C29.75 28.875 28.6146 28.4531 27.4688 28.1719C26.3229 27.8906 25.1667 27.75 24 27.75C22.8333 27.75 21.6771 27.8906 20.5312 28.1719C19.3854 28.4531 18.25 28.875 17.125 29.4375C16.9375 29.5417 16.7865 29.6875 16.6719 29.875C16.5573 30.0625 16.5 30.2708 16.5 30.5V31.5ZM24 21.5C24.6875 21.5 25.276 21.2552 25.7656 20.7656C26.2552 20.276 26.5 19.6875 26.5 19C26.5 18.3125 26.2552 17.724 25.7656 17.2344C25.276 16.7448 24.6875 16.5 24 16.5C23.3125 16.5 22.724 16.7448 22.2344 17.2344C21.7448 17.724 21.5 18.3125 21.5 19C21.5 19.6875 21.7448 20.276 22.2344 20.7656C22.724 21.2552 23.3125 21.5 24 21.5Z" fill="white"/>
</svg>
