<svg width="20" height="20" viewBox="0 0 20 20" fill="none" xmlns="http://www.w3.org/2000/svg">
<g clip-path="url(#clip0_2036_858)">
<path d="M16.6665 1.15766e-05H15.2023C14.7643 -0.00114639 14.3304 0.0845773 13.9258 0.252222C13.5211 0.419866 13.1537 0.666102 12.8448 0.976678L10.1432 3.67834C9.51969 4.30445 9.16868 5.15143 9.16649 6.03501V8.92085C6.44482 10.9333 2.84899 13.615 2.39899 14.0658C2.0364 14.4309 1.79556 14.8991 1.70948 15.4063C1.6234 15.9135 1.69629 16.435 1.91816 16.8992L0.243989 18.5775C0.0877629 18.7338 0 18.9457 0 19.1667C0 19.3876 0.0877629 19.5996 0.243989 19.7558C0.400262 19.9121 0.612185 19.9998 0.833155 19.9998C1.05413 19.9998 1.26605 19.9121 1.42232 19.7558L3.09482 18.0833C3.55911 18.3098 4.0827 18.385 4.59197 18.2985C5.10124 18.212 5.57058 17.968 5.93399 17.6008C6.38482 17.15 9.06649 13.555 11.0832 10.8333H13.9682C14.4062 10.8345 14.8401 10.7488 15.2447 10.5811C15.6494 10.4135 16.0168 10.1673 16.3257 9.85668L19.0273 7.15501C19.6493 6.52823 19.9987 5.68133 19.9998 4.79835V3.33334C19.9998 2.44929 19.6486 1.60144 19.0235 0.976322C18.3984 0.351201 17.5505 1.15766e-05 16.6665 1.15766e-05ZM4.75566 16.4225C4.59721 16.5746 4.3861 16.6595 4.16649 16.6595C3.94687 16.6595 3.73577 16.5746 3.57732 16.4225C3.4211 16.2662 3.33333 16.0543 3.33333 15.8333C3.33333 15.6124 3.4211 15.4005 3.57732 15.2442C3.85982 14.9642 6.07732 13.2917 8.53399 11.4658C6.70732 13.9217 5.03482 16.1408 4.75566 16.4225ZM18.3332 4.79835C18.3321 5.24014 18.1566 5.66362 17.8448 5.97668L15.1432 8.67835C14.9886 8.83359 14.8048 8.95668 14.6024 9.04049C14.4 9.12431 14.183 9.1672 13.964 9.16668H12.309L13.1348 8.04335L16.4223 4.75585C16.5019 4.67897 16.5654 4.58702 16.6091 4.48535C16.6527 4.38368 16.6757 4.27433 16.6767 4.16368C16.6777 4.05303 16.6566 3.9433 16.6147 3.84088C16.5728 3.73847 16.5109 3.64543 16.4327 3.56718C16.3544 3.48894 16.2614 3.42706 16.159 3.38516C16.0565 3.34326 15.9468 3.32217 15.8362 3.32314C15.7255 3.3241 15.6162 3.34709 15.5145 3.39076C15.4128 3.43443 15.3209 3.49792 15.244 3.57751L11.9573 6.86418L10.8332 7.69085V6.03501C10.8343 5.59322 11.0098 5.16973 11.3215 4.85668L14.0232 2.15501C14.1777 1.99977 14.3615 1.87668 14.5639 1.79286C14.7663 1.70905 14.9833 1.66616 15.2023 1.66668H16.6665C17.1085 1.66668 17.5324 1.84227 17.845 2.15483C18.1576 2.46739 18.3332 2.89132 18.3332 3.33334V4.79835Z" fill="white"/>
</g>
<defs>
<clipPath id="clip0_2036_858">
<rect width="20" height="20" fill="white"/>
</clipPath>
</defs>
</svg>
