<svg width="20" height="20" viewBox="0 0 20 20" fill="none" xmlns="http://www.w3.org/2000/svg">
<g clip-path="url(#clip0_2036_720)">
<path d="M16.6263 4.61335L13.7213 1.70835C13.181 1.16509 12.5382 0.734373 11.8303 0.44114C11.1224 0.147906 10.3634 -0.00202547 9.59714 2.06635e-05H5.83464C4.72997 0.00134388 3.67093 0.440756 2.88982 1.22187C2.1087 2.00299 1.66929 3.06202 1.66797 4.16669V15.8334C1.66929 16.938 2.1087 17.9971 2.88982 18.7782C3.67093 19.5593 4.72997 19.9987 5.83464 20H14.168C15.2726 19.9987 16.3317 19.5593 17.1128 18.7782C17.8939 17.9971 18.3333 16.938 18.3346 15.8334V8.73752C18.3367 7.97128 18.1868 7.21225 17.8935 6.50434C17.6003 5.79643 17.1696 5.15371 16.6263 4.61335ZM15.448 5.79169C15.7022 6.05369 15.921 6.34786 16.0988 6.66669H12.5013C12.2803 6.66669 12.0683 6.57889 11.912 6.42261C11.7558 6.26633 11.668 6.05437 11.668 5.83335V2.23585C11.9868 2.41367 12.281 2.63248 12.543 2.88669L15.448 5.79169ZM16.668 15.8334C16.668 16.4964 16.4046 17.1323 15.9357 17.6011C15.4669 18.07 14.831 18.3334 14.168 18.3334H5.83464C5.17159 18.3334 4.53571 18.07 4.06687 17.6011C3.59803 17.1323 3.33464 16.4964 3.33464 15.8334V4.16669C3.33464 3.50365 3.59803 2.86776 4.06687 2.39892C4.53571 1.93008 5.17159 1.66669 5.83464 1.66669H9.59714C9.73464 1.66669 9.8663 1.69335 10.0013 1.70585V5.83335C10.0013 6.49639 10.2647 7.13228 10.7335 7.60112C11.2024 8.06996 11.8383 8.33335 12.5013 8.33335H16.6288C16.6413 8.46835 16.668 8.60002 16.668 8.73752V15.8334ZM13.938 11.0925C14.0901 11.2526 14.1725 11.4665 14.1671 11.6873C14.1616 11.9081 14.0687 12.1177 13.9088 12.27L10.918 15.115C10.4478 15.5778 9.81387 15.8359 9.15422 15.8333C8.49457 15.8306 7.8627 15.5674 7.3963 15.1009L6.11297 13.9559C5.94787 13.8087 5.84801 13.6019 5.83535 13.3811C5.82908 13.2717 5.84441 13.1622 5.88046 13.0588C5.91652 12.9554 5.97258 12.8601 6.04547 12.7784C6.11835 12.6966 6.20662 12.63 6.30524 12.5824C6.40386 12.5347 6.5109 12.507 6.62024 12.5007C6.84106 12.4881 7.05787 12.5637 7.22297 12.7109L8.5438 13.8892C8.61942 13.9741 8.71161 14.0426 8.8147 14.0906C8.91779 14.1385 9.02961 14.1649 9.14327 14.168C9.25692 14.1711 9.37002 14.151 9.47559 14.1088C9.58116 14.0665 9.67697 14.0032 9.75714 13.9225L12.7571 11.0634C12.8365 10.9875 12.93 10.9281 13.0324 10.8885C13.1347 10.8489 13.2439 10.8299 13.3536 10.8326C13.4633 10.8353 13.5714 10.8597 13.6717 10.9043C13.772 10.9489 13.8625 11.0128 13.938 11.0925Z" fill="white"/>
</g>
<defs>
<clipPath id="clip0_2036_720">
<rect width="20" height="20" fill="white"/>
</clipPath>
</defs>
</svg>
