<svg width="20" height="20" viewBox="0 0 20 20" fill="none" xmlns="http://www.w3.org/2000/svg">
<g clip-path="url(#clip0_2036_922)">
<path d="M15.8333 0H4.16667C3.062 0.00132321 2.00296 0.440735 1.22185 1.22185C0.440735 2.00296 0.00132321 3.062 0 4.16667L0 15.8333C0.00132321 16.938 0.440735 17.997 1.22185 18.7782C2.00296 19.5593 3.062 19.9987 4.16667 20H15.8333C16.938 19.9987 17.997 19.5593 18.7782 18.7782C19.5593 17.997 19.9987 16.938 20 15.8333V4.16667C19.9987 3.062 19.5593 2.00296 18.7782 1.22185C17.997 0.440735 16.938 0.00132321 15.8333 0V0ZM18.3333 15.8333C18.3333 16.4964 18.0699 17.1323 17.6011 17.6011C17.1323 18.0699 16.4964 18.3333 15.8333 18.3333H4.16667C3.50363 18.3333 2.86774 18.0699 2.3989 17.6011C1.93006 17.1323 1.66667 16.4964 1.66667 15.8333V4.16667C1.66667 3.50363 1.93006 2.86774 2.3989 2.3989C2.86774 1.93006 3.50363 1.66667 4.16667 1.66667H15.8333C16.4964 1.66667 17.1323 1.93006 17.6011 2.3989C18.0699 2.86774 18.3333 3.50363 18.3333 4.16667V15.8333Z" fill="white"/>
<path d="M7.778 13.266L4.51217 10.0002C4.35589 9.84394 4.14397 9.75618 3.923 9.75618C3.70203 9.75618 3.49011 9.84394 3.33383 10.0002C3.17761 10.1564 3.08984 10.3684 3.08984 10.5893C3.08984 10.8103 3.17761 11.0222 3.33383 11.1785L6.59967 14.4443C6.75444 14.5992 6.9382 14.722 7.14045 14.8058C7.34271 14.8896 7.55949 14.9327 7.77842 14.9327C7.99734 14.9327 8.21412 14.8896 8.41638 14.8058C8.61863 14.722 8.80239 14.5992 8.95717 14.4443L16.6672 6.73433C16.8234 6.57806 16.9112 6.36614 16.9112 6.14517C16.9112 5.9242 16.8234 5.71227 16.6672 5.556C16.5109 5.39977 16.299 5.31201 16.078 5.31201C15.857 5.31201 15.6451 5.39977 15.4888 5.556L7.778 13.266Z" fill="white"/>
</g>
<defs>
<clipPath id="clip0_2036_922">
<rect width="20" height="20" fill="white"/>
</clipPath>
</defs>
</svg>
