<svg width="20" height="20" viewBox="0 0 20 20" fill="none" xmlns="http://www.w3.org/2000/svg">
<g clip-path="url(#clip0_2036_945)">
<path d="M15.8333 0.833496H4.16667C3.062 0.834819 2.00296 1.27423 1.22185 2.05535C0.440735 2.83646 0.00132321 3.8955 0 5.00016L0 11.6668C0.00132321 12.7715 0.440735 13.8305 1.22185 14.6116C2.00296 15.3928 3.062 15.8322 4.16667 15.8335H9.16667V17.5002H5.83333C5.61232 17.5002 5.40036 17.588 5.24408 17.7442C5.0878 17.9005 5 18.1125 5 18.3335C5 18.5545 5.0878 18.7665 5.24408 18.9228C5.40036 19.079 5.61232 19.1668 5.83333 19.1668H14.1667C14.3877 19.1668 14.5996 19.079 14.7559 18.9228C14.9122 18.7665 15 18.5545 15 18.3335C15 18.1125 14.9122 17.9005 14.7559 17.7442C14.5996 17.588 14.3877 17.5002 14.1667 17.5002H10.8333V15.8335H15.8333C16.938 15.8322 17.997 15.3928 18.7782 14.6116C19.5593 13.8305 19.9987 12.7715 20 11.6668V5.00016C19.9987 3.8955 19.5593 2.83646 18.7782 2.05535C17.997 1.27423 16.938 0.834819 15.8333 0.833496ZM18.3333 11.6668C18.3333 12.3299 18.0699 12.9658 17.6011 13.4346C17.1323 13.9034 16.4964 14.1668 15.8333 14.1668H4.16667C3.50363 14.1668 2.86774 13.9034 2.3989 13.4346C1.93006 12.9658 1.66667 12.3299 1.66667 11.6668V5.00016C1.66667 4.33712 1.93006 3.70124 2.3989 3.2324C2.86774 2.76355 3.50363 2.50016 4.16667 2.50016H15.8333C16.4964 2.50016 17.1323 2.76355 17.6011 3.2324C18.0699 3.70124 18.3333 4.33712 18.3333 5.00016V11.6668ZM16.6667 8.3335C16.6667 8.55451 16.5789 8.76647 16.4226 8.92275C16.2663 9.07903 16.0543 9.16683 15.8333 9.16683H13.3625L11.9458 11.296C11.8695 11.4104 11.766 11.5042 11.6446 11.5689C11.5231 11.6336 11.3876 11.6673 11.25 11.6668C11.2325 11.6668 11.215 11.6668 11.1983 11.6668C11.0525 11.6578 10.9117 11.6107 10.7898 11.5301C10.668 11.4495 10.5695 11.3383 10.5042 11.2077L8.64667 7.49016L7.77667 8.796C7.70054 8.91009 7.59743 9.00364 7.47649 9.06832C7.35554 9.13301 7.22049 9.16685 7.08333 9.16683H4.16667C3.94565 9.16683 3.73369 9.07903 3.57741 8.92275C3.42113 8.76647 3.33333 8.55451 3.33333 8.3335C3.33333 8.11248 3.42113 7.90052 3.57741 7.74424C3.73369 7.58796 3.94565 7.50016 4.16667 7.50016H6.6375L8.05417 5.371C8.13436 5.24813 8.24596 5.14895 8.3774 5.08375C8.50883 5.01854 8.65532 4.98968 8.80167 5.00016C8.94747 5.00914 9.08834 5.05629 9.21018 5.13688C9.33201 5.21747 9.43052 5.32867 9.49583 5.45933L11.3533 9.17516L12.2233 7.86933C12.2996 7.75554 12.4028 7.66232 12.5238 7.59793C12.6447 7.53354 12.7797 7.49996 12.9167 7.50016H15.8333C16.0543 7.50016 16.2663 7.58796 16.4226 7.74424C16.5789 7.90052 16.6667 8.11248 16.6667 8.3335Z" fill="white"/>
</g>
<defs>
<clipPath id="clip0_2036_945">
<rect width="20" height="20" fill="white"/>
</clipPath>
</defs>
</svg>
