<svg width="20" height="20" viewBox="0 0 20 20" fill="none" xmlns="http://www.w3.org/2000/svg">
<g clip-path="url(#clip0_2036_763)">
<path d="M15.8333 0.833252H4.16667C3.062 0.834575 2.00296 1.27399 1.22185 2.0551C0.440735 2.83622 0.00132321 3.89526 0 4.99992L0 14.9999C0.00132321 16.1046 0.440735 17.1636 1.22185 17.9447C2.00296 18.7258 3.062 19.1653 4.16667 19.1666H15.8333C16.938 19.1653 17.997 18.7258 18.7782 17.9447C19.5593 17.1636 19.9987 16.1046 20 14.9999V4.99992C19.9987 3.89526 19.5593 2.83622 18.7782 2.0551C17.997 1.27399 16.938 0.834575 15.8333 0.833252ZM4.16667 2.49992H15.8333C16.4964 2.49992 17.1323 2.76331 17.6011 3.23215C18.0699 3.70099 18.3333 4.33688 18.3333 4.99992V5.83325H1.66667V4.99992C1.66667 4.33688 1.93006 3.70099 2.3989 3.23215C2.86774 2.76331 3.50363 2.49992 4.16667 2.49992ZM15.8333 17.4999H4.16667C3.50363 17.4999 2.86774 17.2365 2.3989 16.7677C1.93006 16.2988 1.66667 15.663 1.66667 14.9999V7.49992H18.3333V14.9999C18.3333 15.663 18.0699 16.2988 17.6011 16.7677C17.1323 17.2365 16.4964 17.4999 15.8333 17.4999ZM15.8333 10.8333C15.8333 11.0543 15.7455 11.2662 15.5893 11.4225C15.433 11.5788 15.221 11.6666 15 11.6666H5C4.77899 11.6666 4.56702 11.5788 4.41074 11.4225C4.25446 11.2662 4.16667 11.0543 4.16667 10.8333C4.16667 10.6122 4.25446 10.4003 4.41074 10.244C4.56702 10.0877 4.77899 9.99992 5 9.99992H15C15.221 9.99992 15.433 10.0877 15.5893 10.244C15.7455 10.4003 15.8333 10.6122 15.8333 10.8333ZM12.5 14.1666C12.5 14.3876 12.4122 14.5996 12.2559 14.7558C12.0996 14.9121 11.8877 14.9999 11.6667 14.9999H5C4.77899 14.9999 4.56702 14.9121 4.41074 14.7558C4.25446 14.5996 4.16667 14.3876 4.16667 14.1666C4.16667 13.9456 4.25446 13.7336 4.41074 13.5773C4.56702 13.421 4.77899 13.3333 5 13.3333H11.6667C11.8877 13.3333 12.0996 13.421 12.2559 13.5773C12.4122 13.7336 12.5 13.9456 12.5 14.1666ZM2.5 4.16658C2.5 4.00177 2.54887 3.84065 2.64044 3.70361C2.73201 3.56657 2.86216 3.45976 3.01443 3.39669C3.1667 3.33361 3.33426 3.31711 3.49591 3.34926C3.65756 3.38142 3.80605 3.46079 3.92259 3.57733C4.03913 3.69387 4.1185 3.84236 4.15065 4.00401C4.18281 4.16566 4.16631 4.33322 4.10323 4.48549C4.04016 4.63776 3.93335 4.76791 3.79631 4.85948C3.65927 4.95104 3.49815 4.99992 3.33333 4.99992C3.11232 4.99992 2.90036 4.91212 2.74408 4.75584C2.5878 4.59956 2.5 4.3876 2.5 4.16658ZM5 4.16658C5 4.00177 5.04887 3.84065 5.14044 3.70361C5.23201 3.56657 5.36216 3.45976 5.51443 3.39669C5.6667 3.33361 5.83426 3.31711 5.99591 3.34926C6.15756 3.38142 6.30605 3.46079 6.42259 3.57733C6.53913 3.69387 6.6185 3.84236 6.65065 4.00401C6.68281 4.16566 6.66631 4.33322 6.60323 4.48549C6.54016 4.63776 6.43335 4.76791 6.29631 4.85948C6.15927 4.95104 5.99815 4.99992 5.83333 4.99992C5.61232 4.99992 5.40036 4.91212 5.24408 4.75584C5.0878 4.59956 5 4.3876 5 4.16658ZM7.5 4.16658C7.5 4.00177 7.54887 3.84065 7.64044 3.70361C7.73201 3.56657 7.86216 3.45976 8.01443 3.39669C8.1667 3.33361 8.33426 3.31711 8.49591 3.34926C8.65756 3.38142 8.80604 3.46079 8.92259 3.57733C9.03913 3.69387 9.1185 3.84236 9.15065 4.00401C9.18281 4.16566 9.16631 4.33322 9.10323 4.48549C9.04016 4.63776 8.93335 4.76791 8.79631 4.85948C8.65927 4.95104 8.49815 4.99992 8.33333 4.99992C8.11232 4.99992 7.90036 4.91212 7.74408 4.75584C7.5878 4.59956 7.5 4.3876 7.5 4.16658Z" fill="white"/>
</g>
<defs>
<clipPath id="clip0_2036_763">
<rect width="20" height="20" fill="white"/>
</clipPath>
</defs>
</svg>
