<svg width="20" height="20" viewBox="0 0 20 20" fill="none" xmlns="http://www.w3.org/2000/svg">
<path d="M1.11595 18.7646L6.63532 13.2452C5.58846 11.9528 4.9583 10.3098 4.9583 8.52086C4.9583 4.37388 8.33219 1 12.4792 1C16.6262 1 20 4.37388 20 8.52086C20 12.6678 16.6261 16.0417 12.4791 16.0417C10.6902 16.0417 9.04717 15.4115 7.75476 14.3647L2.2354 19.8841C2.08076 20.0386 1.8302 20.0386 1.67556 19.8841L1.11592 19.3244C0.961353 19.1698 0.961355 18.9192 1.11595 18.7646ZM12.4791 14.4584C15.7533 14.4584 18.4166 11.795 18.4166 8.52086C18.4166 5.24673 15.7533 2.58335 12.4791 2.58335C9.205 2.58335 6.54162 5.24673 6.54162 8.52086C6.54162 11.795 9.205 14.4584 12.4791 14.4584Z" fill="white"/>
</svg>
