<svg width="20" height="20" viewBox="0 0 20 20" fill="none" xmlns="http://www.w3.org/2000/svg">
<path d="M13.3346 5C13.5556 5 13.7676 5.0878 13.9239 5.24408C14.0802 5.40036 14.168 5.61232 14.168 5.83333C14.168 6.05435 14.0802 6.26631 13.9239 6.42259C13.7676 6.57887 13.5556 6.66667 13.3346 6.66667H6.66797C6.44696 6.66667 6.23499 6.57887 6.07871 6.42259C5.92243 6.26631 5.83464 6.05435 5.83464 5.83333C5.83464 5.61232 5.92243 5.40036 6.07871 5.24408C6.23499 5.0878 6.44696 5 6.66797 5H13.3346ZM19.7571 19.7558C19.6009 19.9121 19.3889 19.9998 19.168 19.9998C18.947 19.9998 18.7351 19.9121 18.5788 19.7558L16.573 17.75C15.979 18.1291 15.2893 18.3315 14.5846 18.3333C13.843 18.3333 13.1179 18.1134 12.5012 17.7013C11.8846 17.2893 11.4039 16.7036 11.1201 16.0184C10.8363 15.3332 10.762 14.5792 10.9067 13.8517C11.0514 13.1243 11.4085 12.4561 11.933 11.9317C12.4574 11.4072 13.1256 11.0501 13.853 10.9054C14.5805 10.7607 15.3345 10.835 16.0197 11.1188C16.7049 11.4026 17.2906 11.8833 17.7026 12.4999C18.1147 13.1166 18.3346 13.8417 18.3346 14.5833C18.3328 15.288 18.1304 15.9776 17.7513 16.5717L19.7571 18.5775C19.9134 18.7338 20.0011 18.9457 20.0011 19.1667C20.0011 19.3876 19.9134 19.5996 19.7571 19.7558ZM14.5846 16.6667C14.9967 16.6667 15.3995 16.5445 15.7421 16.3156C16.0847 16.0866 16.3517 15.7613 16.5094 15.3806C16.6671 14.9999 16.7083 14.581 16.6279 14.1769C16.5476 13.7728 16.3491 13.4016 16.0578 13.1102C15.7664 12.8188 15.3952 12.6204 14.9911 12.54C14.5869 12.4596 14.1681 12.5009 13.7874 12.6586C13.4067 12.8163 13.0813 13.0833 12.8524 13.4259C12.6235 13.7685 12.5013 14.1713 12.5013 14.5833C12.5013 15.1359 12.7208 15.6658 13.1115 16.0565C13.5022 16.4472 14.0321 16.6667 14.5846 16.6667ZM10.8346 18.3333H5.83464C5.17159 18.3333 4.53571 18.0699 4.06687 17.6011C3.59803 17.1323 3.33464 16.4964 3.33464 15.8333V4.16667C3.33464 3.50363 3.59803 2.86774 4.06687 2.3989C4.53571 1.93006 5.17159 1.66667 5.83464 1.66667H15.8346C16.0556 1.66667 16.2676 1.75446 16.4239 1.91074C16.5802 2.06702 16.668 2.27899 16.668 2.5V9.16667C16.668 9.38768 16.7558 9.59964 16.912 9.75592C17.0683 9.9122 17.2803 10 17.5013 10C17.7223 10 17.9343 9.9122 18.0906 9.75592C18.2468 9.59964 18.3346 9.38768 18.3346 9.16667V2.5C18.3346 1.83696 18.0712 1.20107 17.6024 0.732233C17.1336 0.263392 16.4977 0 15.8346 0L5.83464 0C4.72997 0.00132321 3.67093 0.440735 2.88982 1.22185C2.1087 2.00296 1.66929 3.062 1.66797 4.16667V15.8333C1.66929 16.938 2.1087 17.997 2.88982 18.7782C3.67093 19.5593 4.72997 19.9987 5.83464 20H10.8346C11.0556 20 11.2676 19.9122 11.4239 19.7559C11.5802 19.5996 11.668 19.3877 11.668 19.1667C11.668 18.9457 11.5802 18.7337 11.4239 18.5774C11.2676 18.4211 11.0556 18.3333 10.8346 18.3333Z" fill="white"/>
</svg>
