<svg width="20" height="20" viewBox="0 0 20 20" fill="none" xmlns="http://www.w3.org/2000/svg">
<g clip-path="url(#clip0_2036_836)">
<path d="M16.6893 18.355H15.8559V16.9759C15.8542 16.5291 15.7629 16.0872 15.5876 15.6763C15.4123 15.2654 15.1564 14.8938 14.8351 14.5834C13.2318 13.0342 12.5776 11.2592 12.5301 8.35337H13.3534C13.5745 8.35337 13.7864 8.26557 13.9427 8.10929C14.099 7.95301 14.1868 7.74105 14.1868 7.52003C14.1868 7.29902 14.099 7.08706 13.9427 6.93078C13.7864 6.7745 13.5745 6.6867 13.3534 6.6867H12.8901C13.1904 6.1824 13.3504 5.60697 13.3534 5.02003C13.3534 3.8742 12.3851 1.92253 11.7759 0.9617C11.5875 0.667156 11.328 0.424768 11.0213 0.256873C10.7146 0.0889785 10.3706 0.000976562 10.0209 0.000976562C9.67129 0.000976562 9.32726 0.0889785 9.02056 0.256873C8.71386 0.424768 8.45435 0.667156 8.26594 0.9617C7.65594 1.92337 6.6876 3.87837 6.6876 5.02087C6.69106 5.60775 6.851 6.18308 7.15094 6.68753H6.6901C6.46909 6.68753 6.25713 6.77533 6.10085 6.93161C5.94457 7.08789 5.85677 7.29985 5.85677 7.52087C5.85677 7.74188 5.94457 7.95384 6.10085 8.11012C6.25713 8.2664 6.46909 8.3542 6.6901 8.3542H7.51427C7.46594 11.26 6.81094 13.0342 5.20927 14.5834C4.88856 14.894 4.63318 15.2656 4.45816 15.6763C4.28313 16.087 4.192 16.5286 4.1901 16.975V18.3542H3.35677C3.13576 18.3542 2.9238 18.442 2.76752 18.5983C2.61123 18.7546 2.52344 18.9665 2.52344 19.1875C2.52344 19.4085 2.61123 19.6205 2.76752 19.7768C2.9238 19.9331 3.13576 20.0209 3.35677 20.0209H16.6901C16.9111 20.0209 17.1231 19.9331 17.2794 19.7768C17.4356 19.6205 17.5234 19.4085 17.5234 19.1875C17.5234 18.9665 17.4356 18.7546 17.2794 18.5983C17.1231 18.442 16.9111 18.3542 16.6901 18.3542L16.6893 18.355ZM9.6751 1.85503C9.71306 1.79744 9.76471 1.75017 9.82543 1.71747C9.88616 1.68476 9.95405 1.66764 10.023 1.66764C10.092 1.66764 10.1599 1.68476 10.2206 1.71747C10.2813 1.75017 10.333 1.79744 10.3709 1.85503C11.0102 2.81584 11.4579 3.89109 11.6893 5.0217C11.6893 5.46373 11.5137 5.88765 11.2011 6.20021C10.8886 6.51277 10.4646 6.68837 10.0226 6.68837C9.58058 6.68837 9.15665 6.51277 8.84409 6.20021C8.53153 5.88765 8.35594 5.46373 8.35594 5.0217C8.58793 3.89139 9.03584 2.81647 9.6751 1.85587V1.85503ZM10.8668 8.35503C10.9118 11.285 11.5334 13.3142 12.9684 15.0217H7.0776C8.51094 13.3142 9.13427 11.2842 9.1801 8.35503H10.8668ZM5.85677 16.9759C5.85801 16.8793 5.86805 16.7831 5.88677 16.6884H14.1601C14.1781 16.7832 14.1879 16.8794 14.1893 16.9759V18.355H5.85594L5.85677 16.9759Z" fill="white"/>
</g>
<defs>
<clipPath id="clip0_2036_836">
<rect width="20" height="20" fill="white"/>
</clipPath>
</defs>
</svg>
