<svg width="20" height="20" viewBox="0 0 20 20" fill="none" xmlns="http://www.w3.org/2000/svg">
<g clip-path="url(#clip0_2036_633)">
<path d="M18.6289 8.02415C17.4414 6.09018 14.7402 2.84546 9.9995 2.84546C5.25875 2.84546 2.55762 6.09018 1.37014 8.02415C1.00304 8.61789 0.808594 9.30216 0.808594 10.0002C0.808594 10.6983 1.00304 11.3826 1.37014 11.9763C2.55762 13.9103 5.25875 17.155 9.9995 17.155C14.7402 17.155 17.4414 13.9103 18.6289 11.9763C18.996 11.3826 19.1904 10.6983 19.1904 10.0002C19.1904 9.30216 18.996 8.61789 18.6289 8.02415ZM17.3235 11.1747C16.3037 12.833 13.9953 15.6237 9.9995 15.6237C6.0037 15.6237 3.69534 12.833 2.67553 11.1747C2.45743 10.8218 2.34191 10.4151 2.34191 10.0002C2.34191 9.58535 2.45743 9.17867 2.67553 8.82576C3.69534 7.16741 6.0037 4.37671 9.9995 4.37671C13.9953 4.37671 16.3037 7.16435 17.3235 8.82576C17.5416 9.17867 17.6571 9.58535 17.6571 10.0002C17.6571 10.4151 17.5416 10.8218 17.3235 11.1747Z" fill="white"/>
<path d="M10 6.17188C9.24287 6.17188 8.50274 6.39639 7.87321 6.81703C7.24368 7.23767 6.75302 7.83554 6.46328 8.53504C6.17353 9.23454 6.09772 10.0042 6.24543 10.7468C6.39314 11.4894 6.75774 12.1715 7.29311 12.7069C7.82848 13.2423 8.51059 13.6069 9.25317 13.7546C9.99576 13.9023 10.7655 13.8265 11.465 13.5367C12.1645 13.247 12.7623 12.7563 13.183 12.1268C13.6036 11.4973 13.8281 10.7571 13.8281 10C13.8269 8.98509 13.4232 8.0121 12.7056 7.29445C11.9879 6.5768 11.0149 6.17309 10 6.17188ZM10 12.2969C9.54572 12.2969 9.10165 12.1622 8.72393 11.9098C8.34621 11.6574 8.05181 11.2987 7.87797 10.879C7.70412 10.4593 7.65864 9.99745 7.74726 9.5519C7.83589 9.10635 8.05464 8.69709 8.37587 8.37586C8.69709 8.05464 9.10635 7.83588 9.5519 7.74726C9.99745 7.65863 10.4593 7.70412 10.879 7.87796C11.2987 8.05181 11.6574 8.34621 11.9098 8.72392C12.1622 9.10164 12.2969 9.54572 12.2969 10C12.2969 10.6092 12.0549 11.1934 11.6241 11.6241C11.1934 12.0549 10.6092 12.2969 10 12.2969Z" fill="white"/>
</g>
<defs>
<clipPath id="clip0_2036_633">
<rect width="18.375" height="18.375" fill="white" transform="translate(0.8125 0.8125)"/>
</clipPath>
</defs>
</svg>
