<svg width="20" height="20" viewBox="0 0 20 20" fill="none" xmlns="http://www.w3.org/2000/svg">
<path d="M5.83333 4.99992H19.1667C19.3877 4.99992 19.5996 4.91212 19.7559 4.75584C19.9122 4.59956 20 4.3876 20 4.16659C20 3.94557 19.9122 3.73361 19.7559 3.57733C19.5996 3.42105 19.3877 3.33325 19.1667 3.33325H5.83333C5.61232 3.33325 5.40036 3.42105 5.24408 3.57733C5.0878 3.73361 5 3.94557 5 4.16659C5 4.3876 5.0878 4.59956 5.24408 4.75584C5.40036 4.91212 5.61232 4.99992 5.83333 4.99992Z" fill="white"/>
<path d="M19.1667 9.16675H5.83333C5.61232 9.16675 5.40036 9.25455 5.24408 9.41083C5.0878 9.56711 5 9.77907 5 10.0001C5 10.2211 5.0878 10.4331 5.24408 10.5893C5.40036 10.7456 5.61232 10.8334 5.83333 10.8334H19.1667C19.3877 10.8334 19.5996 10.7456 19.7559 10.5893C19.9122 10.4331 20 10.2211 20 10.0001C20 9.77907 19.9122 9.56711 19.7559 9.41083C19.5996 9.25455 19.3877 9.16675 19.1667 9.16675Z" fill="white"/>
<path d="M19.1667 15H5.83333C5.61232 15 5.40036 15.0878 5.24408 15.2441C5.0878 15.4004 5 15.6123 5 15.8333C5 16.0543 5.0878 16.2663 5.24408 16.4226C5.40036 16.5789 5.61232 16.6667 5.83333 16.6667H19.1667C19.3877 16.6667 19.5996 16.5789 19.7559 16.4226C19.9122 16.2663 20 16.0543 20 15.8333C20 15.6123 19.9122 15.4004 19.7559 15.2441C19.5996 15.0878 19.3877 15 19.1667 15Z" fill="white"/>
<path d="M1.66667 5.83333C2.58714 5.83333 3.33333 5.08714 3.33333 4.16667C3.33333 3.24619 2.58714 2.5 1.66667 2.5C0.746192 2.5 0 3.24619 0 4.16667C0 5.08714 0.746192 5.83333 1.66667 5.83333Z" fill="white"/>
<path d="M1.66667 11.6666C2.58714 11.6666 3.33333 10.9204 3.33333 9.99992C3.33333 9.07944 2.58714 8.33325 1.66667 8.33325C0.746192 8.33325 0 9.07944 0 9.99992C0 10.9204 0.746192 11.6666 1.66667 11.6666Z" fill="white"/>
<path d="M1.66667 17.5001C2.58714 17.5001 3.33333 16.7539 3.33333 15.8334C3.33333 14.9129 2.58714 14.1667 1.66667 14.1667C0.746192 14.1667 0 14.9129 0 15.8334C0 16.7539 0.746192 17.5001 1.66667 17.5001Z" fill="white"/>
</svg>
