<svg width="20" height="20" viewBox="0 0 20 20" fill="none" xmlns="http://www.w3.org/2000/svg">
<g clip-path="url(#clip0_2036_966)">
<path d="M19.1654 13.3335C18.9443 13.3335 18.7324 13.4213 18.5761 13.5776C18.4198 13.7339 18.332 13.9458 18.332 14.1668V15.8335C18.332 16.4965 18.0686 17.1324 17.5998 17.6013C17.131 18.0701 16.4951 18.3335 15.832 18.3335H14.1654C13.9444 18.3335 13.7324 18.4213 13.5761 18.5776C13.4198 18.7339 13.332 18.9458 13.332 19.1668C13.332 19.3878 13.4198 19.5998 13.5761 19.7561C13.7324 19.9124 13.9444 20.0002 14.1654 20.0002H15.832C16.9367 19.9988 17.9957 19.5594 18.7768 18.7783C19.558 17.9972 19.9974 16.9382 19.9987 15.8335V14.1668C19.9987 13.9458 19.9109 13.7339 19.7546 13.5776C19.5983 13.4213 19.3864 13.3335 19.1654 13.3335Z" fill="white"/>
<path d="M0.833333 6.66667C1.05435 6.66667 1.26631 6.57887 1.42259 6.42259C1.57887 6.26631 1.66667 6.05435 1.66667 5.83333V4.16667C1.66667 3.50363 1.93006 2.86774 2.3989 2.3989C2.86774 1.93006 3.50363 1.66667 4.16667 1.66667H5.83333C6.05435 1.66667 6.26631 1.57887 6.42259 1.42259C6.57887 1.26631 6.66667 1.05435 6.66667 0.833333C6.66667 0.61232 6.57887 0.400358 6.42259 0.244078C6.26631 0.0877974 6.05435 0 5.83333 0L4.16667 0C3.062 0.00132321 2.00296 0.440735 1.22185 1.22185C0.440735 2.00296 0.00132321 3.062 0 4.16667L0 5.83333C0 6.05435 0.0877974 6.26631 0.244078 6.42259C0.400358 6.57887 0.61232 6.66667 0.833333 6.66667Z" fill="white"/>
<path d="M5.83333 18.3335H4.16667C3.50363 18.3335 2.86774 18.0701 2.3989 17.6013C1.93006 17.1324 1.66667 16.4965 1.66667 15.8335V14.1668C1.66667 13.9458 1.57887 13.7339 1.42259 13.5776C1.26631 13.4213 1.05435 13.3335 0.833333 13.3335C0.61232 13.3335 0.400358 13.4213 0.244078 13.5776C0.0877974 13.7339 0 13.9458 0 14.1668L0 15.8335C0.00132321 16.9382 0.440735 17.9972 1.22185 18.7783C2.00296 19.5594 3.062 19.9988 4.16667 20.0002H5.83333C6.05435 20.0002 6.26631 19.9124 6.42259 19.7561C6.57887 19.5998 6.66667 19.3878 6.66667 19.1668C6.66667 18.9458 6.57887 18.7339 6.42259 18.5776C6.26631 18.4213 6.05435 18.3335 5.83333 18.3335Z" fill="white"/>
<path d="M15.832 0H14.1654C13.9444 0 13.7324 0.0877974 13.5761 0.244078C13.4198 0.400358 13.332 0.61232 13.332 0.833333C13.332 1.05435 13.4198 1.26631 13.5761 1.42259C13.7324 1.57887 13.9444 1.66667 14.1654 1.66667H15.832C16.4951 1.66667 17.131 1.93006 17.5998 2.3989C18.0686 2.86774 18.332 3.50363 18.332 4.16667V5.83333C18.332 6.05435 18.4198 6.26631 18.5761 6.42259C18.7324 6.57887 18.9443 6.66667 19.1654 6.66667C19.3864 6.66667 19.5983 6.57887 19.7546 6.42259C19.9109 6.26631 19.9987 6.05435 19.9987 5.83333V4.16667C19.9974 3.062 19.558 2.00296 18.7768 1.22185C17.9957 0.440735 16.9367 0.00132321 15.832 0V0Z" fill="white"/>
<path d="M10.0013 9.16667C10.6606 9.16667 11.305 8.97117 11.8532 8.6049C12.4014 8.23863 12.8286 7.71803 13.0809 7.10895C13.3332 6.49986 13.3992 5.82964 13.2706 5.18303C13.142 4.53643 12.8245 3.94249 12.3583 3.47631C11.8921 3.01014 11.2982 2.69267 10.6516 2.56405C10.005 2.43543 9.33478 2.50144 8.72569 2.75374C8.1166 3.00603 7.59601 3.43327 7.22974 3.98143C6.86347 4.5296 6.66797 5.17406 6.66797 5.83334C6.66797 6.71739 7.01916 7.56524 7.64428 8.19036C8.2694 8.81548 9.11725 9.16667 10.0013 9.16667ZM10.0013 4.16667C10.3309 4.16667 10.6532 4.26442 10.9273 4.44755C11.2013 4.63069 11.415 4.89099 11.5411 5.19553C11.6672 5.50007 11.7003 5.83518 11.6359 6.15849C11.5716 6.48179 11.4129 6.77876 11.1798 7.01185C10.9467 7.24493 10.6498 7.40367 10.3265 7.46798C10.0032 7.53229 9.66804 7.49928 9.3635 7.37313C9.05895 7.24699 8.79865 7.03337 8.61552 6.75929C8.43238 6.4852 8.33464 6.16297 8.33464 5.83334C8.33464 5.39131 8.51023 4.96738 8.82279 4.65482C9.13535 4.34226 9.55927 4.16667 10.0013 4.16667Z" fill="white"/>
<path d="M15.0013 16.6668C15.2223 16.6668 15.4343 16.579 15.5906 16.4228C15.7468 16.2665 15.8346 16.0545 15.8346 15.8335C15.8333 14.5078 15.3061 13.2368 14.3687 12.2994C13.4313 11.362 12.1603 10.8348 10.8346 10.8335H9.16797C7.84229 10.8348 6.57129 11.362 5.6339 12.2994C4.6965 13.2368 4.16929 14.5078 4.16797 15.8335C4.16797 16.0545 4.25577 16.2665 4.41205 16.4228C4.56833 16.579 4.78029 16.6668 5.0013 16.6668C5.22232 16.6668 5.43428 16.579 5.59056 16.4228C5.74684 16.2665 5.83464 16.0545 5.83464 15.8335C5.83464 14.9494 6.18583 14.1016 6.81095 13.4765C7.43607 12.8514 8.28391 12.5002 9.16797 12.5002H10.8346C11.7187 12.5002 12.5665 12.8514 13.1917 13.4765C13.8168 14.1016 14.168 14.9494 14.168 15.8335C14.168 16.0545 14.2558 16.2665 14.412 16.4228C14.5683 16.579 14.7803 16.6668 15.0013 16.6668Z" fill="white"/>
</g>
<defs>
<clipPath id="clip0_2036_966">
<rect width="20" height="20" fill="white"/>
</clipPath>
</defs>
</svg>
