<svg width="24" height="24" viewBox="0 0 24 24" fill="none" xmlns="http://www.w3.org/2000/svg">
<path d="M15.9617 5.11489C14.2766 3.42979 12.6596 1.82128 12.183 0C11.7064 1.81277 10.0894 3.42128 8.40425 5.11489C5.86808 7.64255 3 10.5106 3 14.817C3 19.8894 7.11064 24 12.183 24C17.2553 24 21.366 19.8894 21.366 14.817C21.366 10.5106 18.4894 7.64255 15.9617 5.11489ZM6.89787 16.9532C6.33617 16.9362 4.25957 13.3532 8.11489 9.54043L10.6681 12.3234C10.7532 12.4085 10.7532 12.5447 10.6681 12.6298C10.6596 12.6383 10.6596 12.6383 10.6511 12.6468C10.0383 13.2681 7.45106 15.8723 7.12766 16.7745C7.05957 16.9617 6.95745 16.9532 6.89787 16.9532ZM12.183 21.6766C10.4383 21.6766 9.02553 20.2638 9.02553 18.5191C9.02553 17.7191 9.34043 17.0043 9.80851 16.434C10.3787 15.7362 12.183 13.7787 12.183 13.7787C12.183 13.7787 13.9532 15.7702 14.5489 16.4255C15.0681 16.9957 15.3489 17.7447 15.3404 18.5191C15.3404 20.2638 13.9277 21.6766 12.183 21.6766ZM18.2255 16.5532C18.1574 16.6979 18.0043 16.9532 17.7915 16.9617C17.417 16.9787 17.383 16.783 17.1021 16.3745C16.4979 15.4809 11.2383 9.98298 10.2511 8.91915C9.38298 7.98298 10.1319 7.32766 10.4723 6.97872C10.9064 6.54468 12.166 5.28511 12.166 5.28511C12.166 5.28511 15.9362 8.85957 17.5021 11.3021C19.0681 13.7447 18.5404 15.8553 18.2255 16.5532Z" fill="white"/>
</svg>
