<svg width="190" height="61" viewBox="0 0 190 61" fill="none" xmlns="http://www.w3.org/2000/svg">
<path d="M0 61V53.786H7.08771V61H0ZM18.2989 61V49.0075H30.0815V61H18.2989ZM41.9693 60.8607V49.0075H30.1868V37.0151H18.3285C18.7115 30.3055 23.0047 26.0291 27.5499 21.5016C33.0138 16.0599 38.663 10.4323 38.175 0C41.4201 2.39964 44.4777 5.05143 47.3207 7.93134C50.1012 10.7371 52.6098 13.8086 54.8119 17.1037C56.9175 20.242 58.619 23.6424 59.8746 27.2214C61.0832 30.6789 61.7119 34.3186 61.7344 37.9883C61.7344 44.4442 59.639 50.0741 55.6727 54.2692C53.8634 56.1809 51.722 57.735 49.3567 58.8532C47.0293 59.9598 44.5285 60.6405 41.9689 60.8635L41.9693 60.8607ZM8.0269 49.0075V40.3598H16.5228V49.0075H8.0269Z" fill="white"/>
<path d="M41.9673 60.8599V49.006H30.1848V37.0135H41.9673V49.006H53.7499V56.0592C52.4013 57.1682 50.9247 58.1055 49.3528 58.8501C47.026 59.9566 44.5262 60.6369 41.9673 60.8599ZM18.3242 37.012C18.6084 32.043 21.0361 28.409 24.123 25.0195H30.0802V37.012H18.3242Z" fill="white"/>
<path d="M77.1119 35.8655C77.2978 35.8827 77.5134 35.8956 77.7586 35.904C78.0039 35.9125 78.2955 35.917 78.6334 35.9175C80.6116 35.9175 82.0781 35.4098 83.0331 34.3944C83.9881 33.379 84.4657 31.9766 84.466 30.1874C84.466 28.3108 84.0096 26.8912 83.0968 25.9287C82.184 24.9663 80.7385 24.4845 78.7603 24.4835C78.4898 24.4835 78.2109 24.4877 77.9234 24.4962C77.652 24.5035 77.3812 24.525 77.1119 24.5606V35.8655ZM88.5486 30.1874C88.578 31.5726 88.3367 32.9499 87.8386 34.2394C87.3996 35.3437 86.7085 36.3258 85.8227 37.1044C84.8917 37.8942 83.8071 38.4748 82.6402 38.8081C81.2713 39.2029 79.8535 39.3941 78.4307 39.3757C77.7208 39.3757 76.8924 39.3456 75.9458 39.2854C75.0086 39.2265 74.0765 39.1013 73.1562 38.911V21.4896C74.0993 21.3143 75.052 21.1984 76.0091 21.1426C76.9981 21.0824 77.8477 21.0523 78.5577 21.0523C79.9394 21.0365 81.3169 21.2102 82.6531 21.5687C83.8069 21.8751 84.8831 22.4287 85.8098 23.1925C86.7051 23.9547 87.4019 24.9299 87.8386 26.0317C88.3424 27.3557 88.5837 28.768 88.5486 30.1874ZM96.993 21.0508C99.6301 21.0508 101.651 21.5283 103.055 22.4833C104.459 23.4383 105.16 24.9224 105.159 26.9356C105.208 28.0216 104.91 29.0946 104.31 29.9938C103.678 30.8274 102.83 31.4663 101.863 31.8393C102.218 32.2866 102.59 32.7985 102.979 33.3748C103.367 33.9512 103.752 34.5534 104.132 35.1814C104.513 35.8094 104.88 36.4633 105.235 37.143C105.591 37.8227 105.92 38.4896 106.223 39.1435H101.801C101.479 38.5584 101.152 37.9647 100.821 37.3624C100.49 36.7601 100.151 36.1756 99.8026 35.6091C99.4548 35.0412 99.1112 34.5035 98.7717 33.9961C98.4323 33.4886 98.0929 33.0278 97.7537 32.6136H95.8011V39.1435H91.845V21.5154C92.7288 21.3405 93.6221 21.2198 94.5202 21.1541C95.4415 21.0852 96.2658 21.0508 96.993 21.0508ZM97.2203 24.4827C96.9329 24.4827 96.6751 24.4913 96.447 24.5085C96.219 24.5258 96.0034 24.543 95.8003 24.5602V29.4123H96.9161C98.4037 29.4123 99.4687 29.223 100.111 28.8443C100.753 28.4657 101.074 27.8204 101.074 26.9086C101.104 26.5343 101.028 26.1592 100.855 25.8276C100.682 25.496 100.419 25.2217 100.098 25.0372C99.448 24.668 98.489 24.4835 97.221 24.4835L97.2203 24.4827ZM115.429 39.5037C114.342 39.5287 113.258 39.3494 112.234 38.9746C111.396 38.6601 110.637 38.1573 110.016 37.5035C109.425 36.8629 108.983 36.0956 108.722 35.2582C108.435 34.3273 108.294 33.356 108.305 32.3804V21.2571H112.258V32.0456C112.245 32.6698 112.326 33.2923 112.499 33.8912C112.632 34.3465 112.856 34.7685 113.159 35.1301C113.432 35.4446 113.782 35.6803 114.173 35.8138C114.594 35.9553 115.035 36.025 115.479 36.0201C115.909 36.0382 116.339 35.9674 116.742 35.8122C117.145 35.6569 117.513 35.4203 117.824 35.1166C118.425 34.5148 118.726 33.4912 118.726 32.0456V21.2571H122.681V32.3811C122.692 33.3625 122.546 34.3392 122.25 35.2732C121.982 36.1171 121.532 36.889 120.932 37.5317C120.299 38.1868 119.527 38.6857 118.675 38.9901C117.631 39.3549 116.532 39.5288 115.429 39.5037ZM131.758 21.0508C134.379 21.0508 136.39 21.5197 137.794 22.4575C139.197 23.3953 139.898 24.9309 139.898 27.0643C139.898 29.2153 139.188 30.7681 137.768 31.7229C136.348 32.6777 134.32 33.1552 131.683 33.1554H130.44V39.1435H126.484V21.5154C127.389 21.3377 128.304 21.2171 129.223 21.1541C130.187 21.0852 131.032 21.0508 131.758 21.0508ZM132.012 24.4827C131.724 24.4827 131.441 24.4913 131.162 24.5085C130.883 24.5258 130.643 24.543 130.439 24.5602V29.722H131.682C133.052 29.722 134.083 29.5326 134.776 29.154C135.469 28.7753 135.815 28.0699 135.815 27.0377C135.831 26.6086 135.74 26.1823 135.55 25.7988C135.372 25.4711 135.108 25.1993 134.789 25.0125C134.417 24.7996 134.008 24.6595 133.585 24.5995C133.064 24.5186 132.539 24.4797 132.012 24.4835L132.012 24.4827ZM142.815 39.1435V21.2571H154.581V24.6381H146.771V28.3804H153.719V31.7615H146.771V39.1435H142.815ZM167.943 39.1435C167.747 38.5219 167.537 37.8836 167.312 37.2286L166.64 35.272H159.776L159.109 37.234C158.886 37.8898 158.678 38.5263 158.486 39.1435H154.376C155.038 37.2155 155.665 35.4346 156.258 33.8009C156.852 32.1672 157.433 30.6272 158.001 29.181C158.569 27.7357 159.129 26.3634 159.68 25.0642C160.231 23.765 160.803 22.4959 161.397 21.2571H165.148C165.725 22.4959 166.294 23.765 166.854 25.0642C167.415 26.3634 167.98 27.7357 168.549 29.181C169.118 30.6262 169.7 32.1662 170.294 33.8009C170.889 35.4357 171.517 37.2165 172.18 39.1435H167.943ZM163.19 25.3094C163.102 25.5691 162.973 25.9224 162.803 26.3695C162.633 26.8165 162.439 27.3331 162.222 27.9192C162.005 28.5051 161.762 29.1504 161.494 29.855C161.226 30.5596 160.953 31.2985 160.676 32.0715H165.701C165.432 31.2959 165.172 30.5548 164.92 29.8481C164.668 29.1414 164.428 28.495 164.2 27.9088C163.973 27.3227 163.774 26.8064 163.603 26.3598C163.432 25.9133 163.295 25.5632 163.19 25.3094ZM186.228 39.1435C185.095 37.0957 183.869 35.074 182.551 33.0783C181.255 31.1135 179.85 29.2263 178.341 27.4261V39.1435H174.436V21.2571H177.656C178.214 21.825 178.831 22.5219 179.507 23.3479C180.184 24.1738 180.873 25.0557 181.574 25.9935C182.276 26.9313 182.973 27.9034 183.666 28.9099C184.359 29.9163 185.01 30.8842 185.619 31.8135V21.2571H189.55V39.1435H186.228Z" fill="white"/>
<path d="M142.539 54.5672C142.539 53.6803 142.665 52.9027 142.918 52.2343C143.183 51.5659 143.53 51.0132 143.96 50.5762C144.389 50.1263 144.882 49.7921 145.437 49.5736C145.993 49.3422 146.561 49.2266 147.142 49.2266C148.506 49.2266 149.567 49.6572 150.325 50.5184C151.095 51.3795 151.48 52.6649 151.48 54.3744C151.48 54.503 151.474 54.6508 151.461 54.8179C151.461 54.9721 151.455 55.1135 151.442 55.2421H144.907C144.97 56.0518 145.248 56.6817 145.74 57.1315C146.246 57.5686 146.972 57.7871 147.919 57.7871C148.475 57.7871 148.98 57.7357 149.434 57.6328C149.902 57.53 150.268 57.4208 150.533 57.3051L150.836 59.2138C150.71 59.2781 150.533 59.3488 150.306 59.4259C150.091 59.4902 149.838 59.548 149.548 59.5994C149.27 59.6637 148.967 59.7151 148.639 59.7537C148.31 59.7922 147.976 59.8115 147.635 59.8115C146.763 59.8115 146.006 59.683 145.362 59.4259C144.718 59.156 144.187 58.7897 143.77 58.3269C143.354 57.8513 143.044 57.2986 142.842 56.6688C142.64 56.0261 142.539 55.3256 142.539 54.5672ZM149.188 53.5261C149.188 53.2048 149.144 52.9027 149.055 52.6199C148.967 52.3243 148.834 52.0736 148.658 51.868C148.493 51.6495 148.285 51.4824 148.033 51.3667C147.793 51.2382 147.502 51.1739 147.161 51.1739C146.808 51.1739 146.498 51.2446 146.233 51.386C145.968 51.5145 145.74 51.688 145.551 51.9065C145.374 52.1251 145.235 52.3757 145.134 52.6585C145.033 52.9413 144.964 53.2305 144.926 53.5261H149.188Z" fill="white"/>
<path d="M141.094 51.5793C140.905 51.515 140.64 51.4507 140.299 51.3865C139.97 51.3094 139.585 51.2708 139.143 51.2708C138.891 51.2708 138.619 51.2965 138.329 51.3479C138.051 51.3993 137.855 51.4443 137.741 51.4829V59.5614H135.449V49.9597C135.891 49.7926 136.441 49.6384 137.097 49.497C137.767 49.3427 138.505 49.2656 139.314 49.2656C139.465 49.2656 139.642 49.2785 139.844 49.3042C140.046 49.317 140.248 49.3427 140.45 49.3813C140.652 49.407 140.848 49.4456 141.037 49.497C141.227 49.5356 141.378 49.5741 141.492 49.6127L141.094 51.5793Z" fill="white"/>
<path d="M128.815 57.922C129.523 57.922 130.059 57.8835 130.425 57.8064V55.2228C130.299 55.1842 130.116 55.1457 129.876 55.1071C129.636 55.0685 129.371 55.0493 129.081 55.0493C128.828 55.0493 128.569 55.0685 128.304 55.1071C128.051 55.1457 127.818 55.2164 127.603 55.3192C127.401 55.422 127.237 55.5698 127.11 55.7626C126.984 55.9426 126.921 56.1739 126.921 56.4567C126.921 57.0094 127.091 57.395 127.432 57.6136C127.773 57.8192 128.234 57.922 128.815 57.922ZM128.626 49.2266C129.384 49.2266 130.021 49.323 130.539 49.5158C131.057 49.7086 131.467 49.9785 131.77 50.3255C132.086 50.6726 132.307 51.0968 132.433 51.5981C132.572 52.0865 132.642 52.6263 132.642 53.2176V59.3295C132.288 59.4066 131.751 59.4966 131.032 59.5994C130.324 59.7151 129.523 59.773 128.626 59.773C128.032 59.773 127.489 59.7151 126.997 59.5994C126.504 59.4838 126.081 59.2974 125.728 59.0403C125.387 58.7832 125.115 58.449 124.913 58.0377C124.724 57.6264 124.629 57.1187 124.629 56.5146C124.629 55.9362 124.736 55.4477 124.951 55.0493C125.178 54.6508 125.481 54.3295 125.86 54.0852C126.239 53.8282 126.675 53.6482 127.167 53.5454C127.672 53.4297 128.197 53.3719 128.74 53.3719C128.992 53.3719 129.257 53.3911 129.535 53.4297C129.813 53.4554 130.11 53.5068 130.425 53.5839V53.1983C130.425 52.9284 130.394 52.6713 130.331 52.4271C130.268 52.1829 130.154 51.9708 129.99 51.7909C129.838 51.5981 129.63 51.4502 129.365 51.3474C129.112 51.2446 128.79 51.1932 128.399 51.1932C127.868 51.1932 127.382 51.2317 126.94 51.3088C126.498 51.386 126.138 51.4759 125.86 51.5788L125.576 49.6893C125.867 49.5865 126.29 49.4836 126.845 49.3808C127.401 49.278 127.994 49.2266 128.626 49.2266Z" fill="white"/>
<path d="M116.46 53.217C116.169 54.3481 115.854 55.4535 115.513 56.5332C115.184 57.6001 114.856 58.6091 114.527 59.5602H112.652C112.4 58.969 112.134 58.2942 111.857 57.5358C111.579 56.7774 111.301 55.9676 111.023 55.1065C110.745 54.2453 110.467 53.3391 110.19 52.3879C109.912 51.4367 109.64 50.4663 109.375 49.4766H111.8C111.913 50.0164 112.046 50.6013 112.198 51.2311C112.349 51.8481 112.507 52.4843 112.671 53.1398C112.835 53.7825 113.006 54.4124 113.183 55.0293C113.359 55.6463 113.536 56.2119 113.713 56.726C113.902 56.1347 114.085 55.5242 114.262 54.8944C114.452 54.2645 114.629 53.6347 114.793 53.0049C114.957 52.3751 115.108 51.7645 115.247 51.1732C115.399 50.5691 115.531 50.0036 115.645 49.4766H117.407C117.52 50.0036 117.647 50.5691 117.786 51.1732C117.925 51.7645 118.07 52.3751 118.221 53.0049C118.386 53.6347 118.556 54.2645 118.733 54.8944C118.922 55.5242 119.112 56.1347 119.301 56.726C119.465 56.2119 119.636 55.6463 119.813 55.0293C119.989 54.4124 120.16 53.7825 120.324 53.1398C120.501 52.4843 120.665 51.8481 120.817 51.2311C120.968 50.6013 121.101 50.0164 121.214 49.4766H123.582C123.317 50.4663 123.046 51.4367 122.768 52.3879C122.49 53.3391 122.212 54.2453 121.934 55.1065C121.656 55.9676 121.379 56.7774 121.101 57.5358C120.823 58.2942 120.551 58.969 120.286 59.5602H118.43C118.101 58.6091 117.76 57.6001 117.407 56.5332C117.066 55.4535 116.75 54.3481 116.46 53.217Z" fill="white"/>
<path d="M102.52 46.8173L104.812 46.4316V49.478H108.335V51.4253H104.812V55.532C104.812 56.3418 104.938 56.9202 105.19 57.2672C105.443 57.6143 105.872 57.7878 106.479 57.7878C106.895 57.7878 107.262 57.7428 107.577 57.6529C107.906 57.5629 108.165 57.4793 108.354 57.4022L108.733 59.2531C108.468 59.3688 108.12 59.4845 107.691 59.6002C107.262 59.7287 106.756 59.793 106.176 59.793C105.468 59.793 104.875 59.6966 104.395 59.5038C103.928 59.311 103.555 59.0346 103.277 58.6747C102.999 58.302 102.804 57.8585 102.69 57.3444C102.576 56.8174 102.52 56.2197 102.52 55.5513V46.8173Z" fill="white"/>
<path d="M99.0817 44.5996C99.6121 44.5996 100.079 44.651 100.484 44.7539C100.888 44.8438 101.191 44.9274 101.393 45.0045L100.957 46.9325C100.742 46.8297 100.49 46.7462 100.199 46.6819C99.9215 46.6176 99.6185 46.5855 99.2901 46.5855C98.9239 46.5855 98.6145 46.6433 98.3619 46.759C98.1093 46.8618 97.9073 47.0097 97.7557 47.2025C97.6042 47.3953 97.4968 47.6331 97.4337 47.9158C97.3705 48.1858 97.339 48.4814 97.339 48.8027V49.4776H100.938V51.4249H97.339V59.5612H95.0469V48.7642C95.0469 47.466 95.3815 46.4505 96.0509 45.7179C96.7202 44.9724 97.7305 44.5996 99.0817 44.5996Z" fill="white"/>
<path d="M92.6852 54.5094C92.6852 55.3063 92.5715 56.0326 92.3442 56.6881C92.1169 57.3436 91.7948 57.9028 91.3781 58.3655C90.9614 58.8282 90.4562 59.1881 89.8627 59.4452C89.2817 59.7023 88.6377 59.8308 87.9305 59.8308C87.2233 59.8308 86.5792 59.7023 85.9983 59.4452C85.4174 59.1881 84.9185 58.8282 84.5018 58.3655C84.085 57.9028 83.7567 57.3436 83.5168 56.6881C83.2894 56.0326 83.1758 55.3063 83.1758 54.5094C83.1758 53.7125 83.2894 52.9927 83.5168 52.35C83.7567 51.6945 84.085 51.1353 84.5018 50.6726C84.9312 50.2099 85.4363 49.8564 86.0172 49.6122C86.5981 49.3551 87.2359 49.2266 87.9305 49.2266C88.625 49.2266 89.2628 49.3551 89.8437 49.6122C90.4373 49.8564 90.9424 50.2099 91.3592 50.6726C91.7759 51.1353 92.0979 51.6945 92.3252 52.35C92.5652 52.9927 92.6852 53.7125 92.6852 54.5094ZM90.3362 54.5094C90.3362 53.5068 90.1215 52.7163 89.6922 52.1379C89.2754 51.5466 88.6882 51.251 87.9305 51.251C87.1728 51.251 86.5792 51.5466 86.1498 52.1379C85.7331 52.7163 85.5247 53.5068 85.5247 54.5094C85.5247 55.5248 85.7331 56.3282 86.1498 56.9195C86.5792 57.5107 87.1728 57.8064 87.9305 57.8064C88.6882 57.8064 89.2754 57.5107 89.6922 56.9195C90.1215 56.3282 90.3362 55.5248 90.3362 54.5094Z" fill="white"/>
<path d="M76.7919 57.7481C77.6506 57.7481 78.2757 57.6003 78.6672 57.3046C79.0587 57.009 79.2545 56.5913 79.2545 56.0514C79.2545 55.7301 79.185 55.4537 79.0461 55.2224C78.9198 54.991 78.7304 54.7853 78.4778 54.6054C78.2379 54.4126 77.9411 54.2391 77.5875 54.0848C77.2339 53.9177 76.8298 53.757 76.3751 53.6028C75.9205 53.4357 75.4785 53.2558 75.0491 53.063C74.6324 52.8573 74.2598 52.6066 73.9315 52.311C73.6158 52.0154 73.3569 51.6619 73.1548 51.2506C72.9654 50.8393 72.8707 50.3444 72.8707 49.766C72.8707 48.5578 73.2811 47.613 74.102 46.9318C74.9228 46.2377 76.0405 45.8906 77.4549 45.8906C78.2757 45.8906 79.0019 45.987 79.6333 46.1798C80.2774 46.3598 80.7825 46.559 81.1488 46.7775L80.41 48.7441C79.9806 48.4999 79.507 48.3135 78.9893 48.185C78.4841 48.0565 77.96 47.9922 77.417 47.9922C76.7729 47.9922 76.2678 48.1272 75.9015 48.3971C75.5479 48.667 75.3711 49.0462 75.3711 49.5346C75.3711 49.8303 75.428 50.0873 75.5416 50.3058C75.6679 50.5115 75.8384 50.6979 76.0531 50.865C76.2804 51.0321 76.5393 51.1863 76.8298 51.3277C77.1328 51.4691 77.4612 51.6041 77.8148 51.7326C78.4336 51.964 78.9829 52.2018 79.4628 52.446C79.9553 52.6773 80.3658 52.9601 80.6941 53.2943C81.0351 53.6157 81.294 54.0013 81.4708 54.4511C81.6476 54.8882 81.736 55.4216 81.736 56.0514C81.736 57.2597 81.3129 58.198 80.4668 58.8664C79.6333 59.5219 78.4083 59.8497 76.7919 59.8497C76.2488 59.8497 75.75 59.8111 75.2954 59.734C74.8534 59.6697 74.4556 59.5862 74.102 59.4833C73.761 59.3805 73.4642 59.2777 73.2116 59.1749C72.9591 59.0592 72.757 58.9563 72.6055 58.8664L73.3064 56.8805C73.6473 57.0733 74.1083 57.2661 74.6892 57.4589C75.2701 57.6517 75.971 57.7481 76.7919 57.7481Z" fill="white"/>
</svg>
