<svg width="780" height="224" viewBox="0 0 780 224" fill="none" xmlns="http://www.w3.org/2000/svg">
<path fill-rule="evenodd" clip-rule="evenodd" d="M708.212 73.982C689.635 77.297 679.586 94.714 685.334 113.635C686.856 118.646 688.511 121.63 691.488 124.727C696.896 130.355 699.139 131.399 714.735 135.544C722.036 137.484 729.689 140.179 731.74 141.532C741.199 147.77 742.333 163.417 733.883 171.104C730.133 174.516 725.516 175.991 718.611 175.984C711.033 175.977 706.743 174.636 702.131 170.831C698.16 167.555 694.029 158.706 693.529 155.706C693.445 155.206 693.155 153.873 693.155 153.287C692.029 153.206 687.029 153.206 687.029 153.206L682.327 153.287L682.966 157.888C683.954 165.001 688.93 174.283 694.376 179.175C700.992 185.117 706.798 187 718.51 187C734.117 187 742.687 182.459 748.149 171.295C751.725 163.987 752.041 152.093 748.849 144.99C744.115 134.457 738.412 130.582 720.377 125.645C704.013 121.164 700.168 119.08 697.033 112.99C691.149 101.557 697.194 87.945 709.462 85.002C723.203 81.705 735.068 88.5855 738.201 103.99C738.201 103.99 739.574 103.99 743.61 103.99H748.773L748.246 100.058C747.613 95.337 744.247 88.34 740.313 83.568C734.215 76.169 719.904 71.895 708.212 73.982ZM256.752 130.24L257.029 186.206H287.529H318.51V180.504V174.99H293.01H267.51V154.99V134.99H290.51H313.51V129.49V123.99H290.51H267.51V105.007V86.024L292.76 85.757L318.105 85.5496V80.5496V74.99H287.554H256.493L256.752 130.24ZM340.752 130.19L341.01 185.49H346.01H351.01L351.51 140.49L352.01 95.49L354.81 99.99C356.35 102.465 368.725 122.715 382.31 144.99L407.029 186.206H412.529H417.51V130.542V74.99H412.51H407.51V119.49C407.51 143.965 407.121 163.99 406.646 163.99C406.171 163.99 401.509 156.902 396.286 148.24C387.567 133.781 374.782 112.772 358.405 85.99L352.252 74.9833H346.252L340.752 74.9237V130.19ZM440.752 130.24L441.01 185.49H472.01H503.01L503.312 180.24L503.615 174.99H477.562H451.51V154.99V134.99H475.01H498.51V129.49V123.99H475.01H451.51V105.007V86.024L477.26 85.757L503.01 85.49V80V74.99H472.054H440.493L440.752 130.24ZM591.605 75.5496C591.605 75.7896 599.835 90.211 610.01 107.75L628.51 139.639V162.867V185.618L633.568 185.585L639.01 185.49L639.51 161.99L640.01 138.49L650.148 120.99C655.723 111.365 663.935 97.19 668.395 89.49L676.505 75.49L670.605 75.5496C667.605 75.5496 665.613 75.5484 664.605 75.5496C664.605 75.5496 664.266 75.9848 664.038 76.3C663.473 77.082 656.71 88.789 649.01 102.315C641.31 115.84 634.576 126.781 634.045 126.627C633.515 126.473 626.354 114.792 618.132 100.668L603.605 75.5496H597.105C593.895 75.5496 592.105 75.5496 591.605 75.5496Z" fill="#4E5054"/>
<path d="M543.885 74.0342C525.308 77.3492 515.259 94.7662 521.007 113.687C522.529 118.698 524.184 121.682 527.161 124.779C532.569 130.407 534.812 131.451 550.408 135.596C557.709 137.536 565.362 140.231 567.413 141.584C576.872 147.822 578.006 163.469 569.556 171.156C565.806 174.568 561.189 176.043 554.284 176.036C546.706 176.029 542.416 174.688 537.804 170.883C533.833 167.607 529.702 158.758 529.202 155.758C529.118 155.258 528.828 153.926 528.828 153.339C527.702 153.258 522.702 153.258 522.702 153.258L518 153.339L518.639 157.94C519.627 165.053 524.603 174.335 530.049 179.227C536.665 185.169 542.471 187.052 554.183 187.052C569.79 187.052 578.36 182.511 583.822 171.347C587.398 164.039 587.714 152.145 584.522 145.042C579.788 134.509 574.085 130.634 556.05 125.697C539.686 121.216 535.841 119.132 532.706 113.042C526.822 101.609 532.867 87.9972 545.135 85.0542C558.876 81.7572 570.741 88.6377 573.874 104.042H579.283H584.446L583.919 100.11C583.286 95.3892 579.92 88.3922 575.986 83.6202C569.888 76.2212 555.577 71.9472 543.885 74.0342Z" fill="#4E5054"/>
<path d="M185.01 75.049C173.859 78.666 165.557 87.037 161.807 98.445C159.343 105.942 158.715 147.751 160.924 157.274C163.897 170.094 170.217 178.32 181.072 183.501C188.837 187.206 200.647 188.069 208.643 185.513C219.572 182.021 226.625 175.591 231.704 164.49C233.726 160.069 234.031 157.607 234.337 143.24L234.682 126.99H216.096H197.51V132.461V137.932L210.76 138.211L224.01 138.49L224.331 142.421C224.772 147.811 222.79 158.527 220.547 162.888C215.066 173.54 201.196 178.673 188.317 174.814C183.043 173.234 176.279 167.096 173.38 161.26C171.066 156.603 171.01 155.862 171.013 129.99C171.016 100.75 171.174 99.86 177.663 92.468C182.977 86.416 187.723 84.514 197.51 84.514C204.294 84.514 206.817 84.947 210.01 86.66C215.718 89.723 219.269 93.847 222.015 100.603L224.407 106.49H229.209H234.01L233.5 103C233 98.4999 229.382 89.815 225.899 85.675C216.515 74.523 199.922 70.211 185.01 75.049Z" fill="#4E5054"/>
<path fill-rule="evenodd" clip-rule="evenodd" d="M86 52C86 43.1634 93.1634 36 102 36C110.837 36 118 43.1634 118 52C118 60.8366 110.837 68 102 68C93.1634 68 86 60.8366 86 52ZM102 45C98.134 45 95 48.134 95 52C95 55.866 98.134 59 102 59C105.866 59 109 55.866 109 52C109 48.134 105.866 45 102 45ZM28 100C28 86.1929 39.1929 75 53 75H93C106.807 75 118 86.1929 118 100C118 113.807 106.807 125 93 125H53C39.1929 125 28 113.807 28 100ZM53 84C44.1634 84 37 91.1634 37 100C37 108.837 44.1634 116 53 116H93C101.837 116 109 108.837 109 100C109 91.1634 101.837 84 93 84H53ZM76 135C62.1929 135 51 146.193 51 160C51 173.807 62.1929 185 76 185H93C106.807 185 118 173.807 118 160C118 146.193 106.807 135 93 135H76ZM60 160C60 151.163 67.1634 144 76 144H93C101.837 144 109 151.163 109 160C109 168.837 101.837 176 93 176H76C67.1634 176 60 168.837 60 160Z" fill="#FF4F1F"/>
</svg>
