<svg width="24" height="24" viewBox="0 0 24 24" fill="none" xmlns="http://www.w3.org/2000/svg">
<path fill-rule="evenodd" clip-rule="evenodd" d="M5.78711 3.6697C5.78711 5.15376 4.67002 6.34125 2.87635 6.34125H2.84347C1.11647 6.34125 0 5.15376 0 3.6697C0 2.15425 1.15048 1 2.91025 1C4.67002 1 5.75372 2.15425 5.78711 3.6697ZM5.44828 8.45065V23.9066H0.304156V8.45065H5.44828ZM23.9998 23.9069L24 15.0449C24 10.2975 21.4622 8.08799 18.0772 8.08799C15.346 8.08799 14.1232 9.58815 13.4404 10.6405V8.45134H8.29569C8.36349 9.90164 8.29569 23.9073 8.29569 23.9073H13.4404V15.2754C13.4404 14.8135 13.4738 14.3527 13.6098 14.022C13.9816 13.0991 14.8281 12.1437 16.2493 12.1437C18.1115 12.1437 18.8559 13.561 18.8559 15.6379V23.9069H23.9998Z" fill="#0706FF"/>
</svg>
