<svg width="501" height="165" viewBox="0 0 501 165" fill="none" xmlns="http://www.w3.org/2000/svg">
  <g clip-path="url(#clip0_719_3849)">
    <path d="M0 158.2V139.492H18.708V158.2H0ZM48.3 158.2V127.1H79.4V158.2H48.3ZM110.778 157.839V127.1H79.678V96H48.378C49.389 78.6 60.721 67.51 72.718 55.769C87.14 41.657 102.051 27.0628 100.763 0.00878906C109.328 6.23178 117.399 13.1087 124.903 20.5771C132.242 27.8533 138.864 35.8187 144.676 44.3638C150.234 52.5025 154.725 61.3207 158.039 70.6021C161.229 79.5684 162.889 89.0072 162.948 98.5239C162.948 115.266 157.417 129.866 146.948 140.745C142.172 145.703 136.52 149.733 130.277 152.633C124.134 155.503 117.533 157.268 110.777 157.846L110.778 157.839ZM21.187 127.1V104.674H43.612V127.1H21.187Z" fill="#0706FF"/>
    <path d="M110.775 157.837V127.097H79.6751V95.9966H110.775V127.097H141.875V145.388C138.316 148.264 134.418 150.694 130.269 152.625C124.128 155.495 117.529 157.259 110.775 157.837ZM48.3691 95.9927C49.1191 83.1067 55.5271 73.6826 63.6751 64.8926H79.3991V95.9927H48.3691Z" fill="#395AFF"/>
    <path d="M203.539 93.0206C204.029 93.0652 204.598 93.0986 205.246 93.1206C205.893 93.1426 206.663 93.1542 207.555 93.1556C212.776 93.1556 216.647 91.8389 219.168 89.2056C221.688 86.5722 222.949 82.9356 222.95 78.2956C222.95 73.4289 221.745 69.7476 219.336 67.2516C216.926 64.7556 213.111 63.5062 207.89 63.5036C207.176 63.5036 206.439 63.5146 205.681 63.5366C204.964 63.5554 204.249 63.6112 203.539 63.7036V93.0206ZM233.726 78.2956C233.803 81.8878 233.166 85.4597 231.852 88.8036C230.693 91.6675 228.869 94.2143 226.531 96.2336C224.073 98.2817 221.211 99.7872 218.131 100.652C214.517 101.675 210.775 102.171 207.02 102.124C205.146 102.124 202.959 102.046 200.461 101.89C197.987 101.737 195.527 101.412 193.098 100.919V55.7396C195.587 55.285 198.102 54.9844 200.628 54.8396C203.238 54.6836 205.481 54.6056 207.355 54.6056C211.002 54.5646 214.638 55.015 218.165 55.9446C221.21 56.7393 224.051 58.1749 226.497 60.1556C228.86 62.1324 230.699 64.6614 231.852 67.5186C233.182 70.952 233.818 74.6148 233.726 78.2956ZM256.015 54.6016C262.975 54.6016 268.309 55.8399 272.015 58.3166C275.721 60.7932 277.572 64.6419 277.57 69.8626C277.699 72.679 276.912 75.4615 275.328 77.7936C273.659 79.9554 271.423 81.6121 268.869 82.5796C269.806 83.7396 270.788 85.0669 271.814 86.5616C272.84 88.0562 273.855 89.6179 274.859 91.2466C275.863 92.8752 276.833 94.5709 277.771 96.3336C278.708 98.0962 279.577 99.8256 280.378 101.522H268.706C267.854 100.004 266.992 98.4646 266.119 96.9026C265.245 95.3406 264.349 93.8249 263.431 92.3556C262.513 90.8829 261.606 89.4886 260.71 88.1726C259.814 86.8566 258.918 85.6616 258.023 84.5876H252.869V101.522H242.427V55.8066C244.759 55.3528 247.117 55.0399 249.488 54.8696C251.92 54.6909 254.095 54.6016 256.015 54.6016ZM256.615 63.5016C255.856 63.5016 255.176 63.5239 254.574 63.5686C253.972 63.6132 253.403 63.6579 252.867 63.7026V76.2856H255.812C259.738 76.2856 262.549 75.7946 264.245 74.8126C265.94 73.8306 266.788 72.1572 266.788 69.7926C266.866 68.822 266.665 67.8493 266.209 66.9893C265.752 66.1294 265.059 65.4181 264.211 64.9396C262.495 63.9822 259.963 63.5036 256.617 63.5036L256.615 63.5016ZM304.678 102.456C301.806 102.521 298.947 102.055 296.245 101.084C294.031 100.268 292.029 98.964 290.388 97.2686C288.829 95.6071 287.662 93.6174 286.974 91.4456C286.215 89.0317 285.843 86.5127 285.874 83.9826V55.1366H296.308V83.1146C296.272 84.7331 296.487 86.3474 296.944 87.9006C297.293 89.0813 297.886 90.1758 298.684 91.1136C299.405 91.929 300.328 92.5404 301.361 92.8866C302.472 93.2534 303.637 93.4341 304.808 93.4216C305.944 93.4684 307.079 93.285 308.142 92.8823C309.206 92.4797 310.178 91.8662 310.999 91.0786C312.585 89.5179 313.378 86.8632 313.378 83.1146V55.1366H323.819V83.9846C323.846 86.5296 323.462 89.0623 322.681 91.4846C321.974 93.673 320.785 95.6747 319.201 97.3416C317.53 99.0404 315.492 100.334 313.244 101.124C310.489 102.07 307.589 102.521 304.678 102.456ZM347.778 54.6016C354.694 54.6016 360.004 55.8176 363.708 58.2496C367.411 60.6816 369.263 64.6639 369.263 70.1966C369.263 75.7746 367.389 79.8016 363.641 82.2776C359.893 84.7536 354.538 85.9919 347.578 85.9926H344.298V101.522H333.857V55.8066C336.245 55.3457 338.659 55.0328 341.086 54.8696C343.629 54.6909 345.86 54.6016 347.778 54.6016ZM348.447 63.5016C347.688 63.5016 346.941 63.5239 346.205 63.5686C345.469 63.6132 344.833 63.6579 344.297 63.7026V77.0886H347.577C351.191 77.0886 353.913 76.5976 355.743 75.6156C357.572 74.6336 358.487 72.8042 358.487 70.1276C358.529 69.0146 358.288 67.9091 357.787 66.9146C357.315 66.0648 356.62 65.3599 355.778 64.8756C354.794 64.3234 353.716 63.9602 352.599 63.8046C351.225 63.5946 349.837 63.4939 348.448 63.5036L348.447 63.5016ZM376.962 101.522V55.1366H408.018V63.9046H387.403V73.6096H405.743V82.3776H387.403V101.522H376.962ZM443.287 101.522C442.771 99.9096 442.216 98.2542 441.622 96.5556L439.847 91.4816H421.731L419.97 96.5696C419.381 98.2702 418.833 99.9209 418.326 101.522H407.478C409.224 96.5216 410.88 91.9032 412.446 87.6666C414.012 83.4299 415.545 79.4362 417.046 75.6856C418.545 71.9376 420.022 68.3789 421.477 65.0096C422.931 61.6402 424.442 58.3492 426.009 55.1366H435.909C437.433 58.3492 438.934 61.6402 440.414 65.0096C441.893 68.3789 443.384 71.9376 444.888 75.6856C446.39 79.4336 447.925 83.4272 449.494 87.6666C451.062 91.9059 452.721 96.5242 454.47 101.522H443.287ZM430.742 65.6456C430.509 66.3189 430.168 67.2352 429.72 68.3946C429.271 69.5539 428.76 70.8936 428.187 72.4136C427.613 73.9329 426.973 75.6062 426.265 77.4336C425.557 79.2609 424.837 81.1769 424.106 83.1816H437.37C436.66 81.1702 435.972 79.2482 435.308 77.4156C434.643 75.5829 434.01 73.9066 433.408 72.3866C432.808 70.8666 432.282 69.5276 431.832 68.3696C431.381 67.2116 431.018 66.3036 430.742 65.6456ZM491.55 101.522C488.56 96.2109 485.325 90.9679 481.845 85.7926C478.425 80.6974 474.716 75.8033 470.734 71.1346V101.522H460.426V55.1366H468.926C470.398 56.6092 472.027 58.4166 473.812 60.5586C475.596 62.7006 477.415 64.9876 479.267 67.4196C481.119 69.8516 482.959 72.3726 484.789 74.9826C486.618 77.5926 488.336 80.1026 489.943 82.5126V55.1366H500.318V101.522H491.55Z" fill="#0706FF"/>
    <path d="M451.527 154.469V119.819H473.777V125.169H457.827V133.719H472.027V138.969H457.827V149.119H474.977V154.469H451.527Z" fill="#4A4A4A"/>
    <path d="M451.527 154.469V119.819H473.777V125.169H457.827V133.719H472.027V138.969H457.827V149.119H474.977V154.469H451.527Z" fill="#1A1A1A"/>
    <path d="M426.095 119.47C431.095 119.47 434.912 120.386 437.545 122.22C440.212 124.053 441.545 126.853 441.545 130.62C441.545 135.32 439.228 138.503 434.595 140.17C435.228 140.936 435.945 141.87 436.745 142.97C437.545 144.07 438.362 145.27 439.195 146.57C440.028 147.836 440.828 149.153 441.595 150.52C442.362 151.853 443.045 153.17 443.645 154.47H436.595C435.962 153.27 435.278 152.07 434.545 150.87C433.812 149.636 433.062 148.453 432.295 147.32C431.562 146.153 430.828 145.07 430.095 144.07C429.362 143.036 428.678 142.12 428.045 141.32C427.578 141.353 427.178 141.37 426.845 141.37C426.512 141.37 426.195 141.37 425.895 141.37H422.845V154.47H416.545V120.32C418.078 119.986 419.712 119.77 421.445 119.67C423.178 119.536 424.728 119.47 426.095 119.47ZM426.545 124.92C425.212 124.92 423.978 124.97 422.845 125.07V136.27H425.595C427.128 136.27 428.478 136.186 429.645 136.02C430.812 135.853 431.778 135.553 432.545 135.12C433.345 134.686 433.945 134.103 434.345 133.37C434.745 132.636 434.945 131.703 434.945 130.57C434.945 129.503 434.745 128.603 434.345 127.87C433.945 127.136 433.362 126.553 432.595 126.12C431.862 125.686 430.978 125.386 429.945 125.22C428.912 125.02 427.778 124.92 426.545 124.92Z" fill="#4A4A4A"/>
    <path d="M426.095 119.47C431.095 119.47 434.912 120.386 437.545 122.22C440.212 124.053 441.545 126.853 441.545 130.62C441.545 135.32 439.228 138.503 434.595 140.17C435.228 140.936 435.945 141.87 436.745 142.97C437.545 144.07 438.362 145.27 439.195 146.57C440.028 147.836 440.828 149.153 441.595 150.52C442.362 151.853 443.045 153.17 443.645 154.47H436.595C435.962 153.27 435.278 152.07 434.545 150.87C433.812 149.636 433.062 148.453 432.295 147.32C431.562 146.153 430.828 145.07 430.095 144.07C429.362 143.036 428.678 142.12 428.045 141.32C427.578 141.353 427.178 141.37 426.845 141.37C426.512 141.37 426.195 141.37 425.895 141.37H422.845V154.47H416.545V120.32C418.078 119.986 419.712 119.77 421.445 119.67C423.178 119.536 424.728 119.47 426.095 119.47ZM426.545 124.92C425.212 124.92 423.978 124.97 422.845 125.07V136.27H425.595C427.128 136.27 428.478 136.186 429.645 136.02C430.812 135.853 431.778 135.553 432.545 135.12C433.345 134.686 433.945 134.103 434.345 133.37C434.745 132.636 434.945 131.703 434.945 130.57C434.945 129.503 434.745 128.603 434.345 127.87C433.945 127.136 433.362 126.553 432.595 126.12C431.862 125.686 430.978 125.386 429.945 125.22C428.912 125.02 427.778 124.92 426.545 124.92Z" fill="#1A1A1A"/>
    <path d="M402.365 154.469C401.898 153.103 401.415 151.753 400.915 150.419C400.415 149.086 399.932 147.719 399.465 146.319H384.865C384.398 147.719 383.915 149.103 383.415 150.469C382.948 151.803 382.482 153.136 382.015 154.469H375.465C376.765 150.769 377.998 147.353 379.165 144.219C380.332 141.086 381.465 138.119 382.565 135.319C383.698 132.519 384.815 129.853 385.915 127.319C387.015 124.786 388.148 122.286 389.315 119.819H395.265C396.432 122.286 397.565 124.786 398.665 127.319C399.765 129.853 400.865 132.519 401.965 135.319C403.098 138.119 404.248 141.086 405.415 144.219C406.615 147.353 407.865 150.769 409.165 154.469H402.365ZM392.165 126.519C391.398 128.286 390.515 130.436 389.515 132.969C388.548 135.503 387.532 138.253 386.465 141.219H397.865C396.798 138.253 395.765 135.486 394.765 132.919C393.765 130.353 392.898 128.219 392.165 126.519Z" fill="#4A4A4A"/>
    <path d="M402.365 154.469C401.898 153.103 401.415 151.753 400.915 150.419C400.415 149.086 399.932 147.719 399.465 146.319H384.865C384.398 147.719 383.915 149.103 383.415 150.469C382.948 151.803 382.482 153.136 382.015 154.469H375.465C376.765 150.769 377.998 147.353 379.165 144.219C380.332 141.086 381.465 138.119 382.565 135.319C383.698 132.519 384.815 129.853 385.915 127.319C387.015 124.786 388.148 122.286 389.315 119.819H395.265C396.432 122.286 397.565 124.786 398.665 127.319C399.765 129.853 400.865 132.519 401.965 135.319C403.098 138.119 404.248 141.086 405.415 144.219C406.615 147.353 407.865 150.769 409.165 154.469H402.365ZM392.165 126.519C391.398 128.286 390.515 130.436 389.515 132.969C388.548 135.503 387.532 138.253 386.465 141.219H397.865C396.798 138.253 395.765 135.486 394.765 132.919C393.765 130.353 392.898 128.219 392.165 126.519Z" fill="#1A1A1A"/>
    <path d="M352.422 123.719C352.956 125.519 353.522 127.403 354.122 129.369C354.722 131.303 355.339 133.253 355.972 135.219C356.639 137.153 357.289 139.069 357.922 140.969C358.589 142.836 359.222 144.603 359.822 146.269C360.322 144.469 360.806 142.519 361.272 140.419C361.739 138.286 362.206 136.086 362.672 133.819C363.139 131.519 363.589 129.186 364.022 126.819C364.489 124.453 364.922 122.119 365.322 119.819H371.822C370.656 126.086 369.356 132.119 367.922 137.919C366.489 143.686 364.889 149.203 363.122 154.469H357.122C354.522 147.736 352.006 140.386 349.572 132.419C348.339 136.453 347.089 140.286 345.822 143.919C344.556 147.553 343.289 151.069 342.022 154.469H336.022C334.222 149.203 332.606 143.686 331.172 137.919C329.772 132.119 328.489 126.086 327.322 119.819H334.072C334.472 122.086 334.889 124.403 335.322 126.769C335.789 129.136 336.256 131.469 336.722 133.769C337.222 136.036 337.722 138.236 338.222 140.369C338.722 142.503 339.222 144.469 339.722 146.269C340.356 144.569 340.989 142.786 341.622 140.919C342.289 139.019 342.939 137.103 343.572 135.169C344.206 133.203 344.806 131.253 345.372 129.319C345.972 127.386 346.522 125.519 347.022 123.719H352.422Z" fill="#4A4A4A"/>
    <path d="M352.422 123.719C352.956 125.519 353.522 127.403 354.122 129.369C354.722 131.303 355.339 133.253 355.972 135.219C356.639 137.153 357.289 139.069 357.922 140.969C358.589 142.836 359.222 144.603 359.822 146.269C360.322 144.469 360.806 142.519 361.272 140.419C361.739 138.286 362.206 136.086 362.672 133.819C363.139 131.519 363.589 129.186 364.022 126.819C364.489 124.453 364.922 122.119 365.322 119.819H371.822C370.656 126.086 369.356 132.119 367.922 137.919C366.489 143.686 364.889 149.203 363.122 154.469H357.122C354.522 147.736 352.006 140.386 349.572 132.419C348.339 136.453 347.089 140.286 345.822 143.919C344.556 147.553 343.289 151.069 342.022 154.469H336.022C334.222 149.203 332.606 143.686 331.172 137.919C329.772 132.119 328.489 126.086 327.322 119.819H334.072C334.472 122.086 334.889 124.403 335.322 126.769C335.789 129.136 336.256 131.469 336.722 133.769C337.222 136.036 337.722 138.236 338.222 140.369C338.722 142.503 339.222 144.469 339.722 146.269C340.356 144.569 340.989 142.786 341.622 140.919C342.289 139.019 342.939 137.103 343.572 135.169C344.206 133.203 344.806 131.253 345.372 129.319C345.972 127.386 346.522 125.519 347.022 123.719H352.422Z" fill="#1A1A1A"/>
    <path d="M321.685 119.819V125.269H311.035V154.469H304.685V125.269H294.035V119.819H321.685Z" fill="#4A4A4A"/>
    <path d="M321.685 119.819V125.269H311.035V154.469H304.685V125.269H294.035V119.819H321.685Z" fill="#1A1A1A"/>
    <path d="M266.41 154.469V119.819H288.31V125.169H272.71V134.019H286.56V139.369H272.71V154.469H266.41Z" fill="#4A4A4A"/>
    <path d="M266.41 154.469V119.819H288.31V125.169H272.71V134.019H286.56V139.369H272.71V154.469H266.41Z" fill="#1A1A1A"/>
    <path d="M229.448 137.12C229.448 139.02 229.682 140.753 230.148 142.32C230.615 143.853 231.282 145.17 232.148 146.27C233.048 147.336 234.132 148.17 235.398 148.77C236.665 149.37 238.098 149.67 239.698 149.67C241.265 149.67 242.682 149.37 243.948 148.77C245.215 148.17 246.282 147.336 247.148 146.27C248.048 145.17 248.732 143.853 249.198 142.32C249.665 140.753 249.898 139.02 249.898 137.12C249.898 135.22 249.665 133.503 249.198 131.97C248.732 130.403 248.048 129.086 247.148 128.02C246.282 126.92 245.215 126.07 243.948 125.47C242.682 124.87 241.265 124.57 239.698 124.57C238.098 124.57 236.665 124.87 235.398 125.47C234.132 126.07 233.048 126.92 232.148 128.02C231.282 129.12 230.615 130.436 230.148 131.97C229.682 133.503 229.448 135.22 229.448 137.12ZM256.498 137.12C256.498 140.086 256.048 142.703 255.148 144.97C254.282 147.236 253.082 149.136 251.548 150.67C250.048 152.17 248.282 153.303 246.248 154.07C244.215 154.836 242.048 155.22 239.748 155.22C237.448 155.22 235.265 154.836 233.198 154.07C231.165 153.303 229.382 152.17 227.848 150.67C226.348 149.136 225.148 147.236 224.248 144.97C223.348 142.703 222.898 140.086 222.898 137.12C222.898 134.153 223.348 131.553 224.248 129.32C225.148 127.053 226.365 125.153 227.898 123.62C229.465 122.086 231.265 120.936 233.298 120.17C235.332 119.403 237.482 119.02 239.748 119.02C242.015 119.02 244.165 119.403 246.198 120.17C248.232 120.936 249.998 122.086 251.498 123.62C253.032 125.153 254.248 127.053 255.148 129.32C256.048 131.553 256.498 134.153 256.498 137.12Z" fill="#4A4A4A"/>
    <path d="M229.448 137.12C229.448 139.02 229.682 140.753 230.148 142.32C230.615 143.853 231.282 145.17 232.148 146.27C233.048 147.336 234.132 148.17 235.398 148.77C236.665 149.37 238.098 149.67 239.698 149.67C241.265 149.67 242.682 149.37 243.948 148.77C245.215 148.17 246.282 147.336 247.148 146.27C248.048 145.17 248.732 143.853 249.198 142.32C249.665 140.753 249.898 139.02 249.898 137.12C249.898 135.22 249.665 133.503 249.198 131.97C248.732 130.403 248.048 129.086 247.148 128.02C246.282 126.92 245.215 126.07 243.948 125.47C242.682 124.87 241.265 124.57 239.698 124.57C238.098 124.57 236.665 124.87 235.398 125.47C234.132 126.07 233.048 126.92 232.148 128.02C231.282 129.12 230.615 130.436 230.148 131.97C229.682 133.503 229.448 135.22 229.448 137.12ZM256.498 137.12C256.498 140.086 256.048 142.703 255.148 144.97C254.282 147.236 253.082 149.136 251.548 150.67C250.048 152.17 248.282 153.303 246.248 154.07C244.215 154.836 242.048 155.22 239.748 155.22C237.448 155.22 235.265 154.836 233.198 154.07C231.165 153.303 229.382 152.17 227.848 150.67C226.348 149.136 225.148 147.236 224.248 144.97C223.348 142.703 222.898 140.086 222.898 137.12C222.898 134.153 223.348 131.553 224.248 129.32C225.148 127.053 226.365 125.153 227.898 123.62C229.465 122.086 231.265 120.936 233.298 120.17C235.332 119.403 237.482 119.02 239.748 119.02C242.015 119.02 244.165 119.403 246.198 120.17C248.232 120.936 249.998 122.086 251.498 123.62C253.032 125.153 254.248 127.053 255.148 129.32C256.048 131.553 256.498 134.153 256.498 137.12Z" fill="#1A1A1A"/>
    <path d="M202.696 149.77C204.963 149.77 206.613 149.386 207.646 148.62C208.68 147.853 209.196 146.77 209.196 145.37C209.196 144.536 209.013 143.82 208.646 143.22C208.313 142.62 207.813 142.086 207.146 141.62C206.513 141.12 205.73 140.67 204.796 140.27C203.863 139.836 202.796 139.42 201.596 139.02C200.396 138.586 199.23 138.12 198.096 137.62C196.996 137.086 196.013 136.436 195.146 135.67C194.313 134.903 193.63 133.986 193.096 132.92C192.596 131.853 192.346 130.57 192.346 129.07C192.346 125.936 193.43 123.486 195.596 121.72C197.763 119.92 200.713 119.02 204.446 119.02C206.613 119.02 208.53 119.27 210.196 119.77C211.896 120.236 213.23 120.753 214.196 121.32L212.246 126.42C211.113 125.786 209.863 125.303 208.496 124.97C207.163 124.636 205.78 124.47 204.346 124.47C202.646 124.47 201.313 124.82 200.346 125.52C199.413 126.22 198.946 127.203 198.946 128.47C198.946 129.236 199.096 129.903 199.396 130.47C199.73 131.003 200.18 131.486 200.746 131.92C201.346 132.353 202.03 132.753 202.796 133.12C203.596 133.486 204.463 133.836 205.396 134.17C207.03 134.77 208.48 135.386 209.746 136.02C211.046 136.62 212.13 137.353 212.996 138.22C213.896 139.053 214.58 140.053 215.046 141.22C215.513 142.353 215.746 143.736 215.746 145.37C215.746 148.503 214.63 150.936 212.396 152.67C210.196 154.37 206.963 155.22 202.696 155.22C201.263 155.22 199.946 155.12 198.746 154.92C197.58 154.753 196.53 154.536 195.596 154.27C194.696 154.003 193.913 153.736 193.246 153.47C192.58 153.17 192.046 152.903 191.646 152.67L193.496 147.52C194.396 148.02 195.613 148.52 197.146 149.02C198.68 149.52 200.53 149.77 202.696 149.77Z" fill="#4A4A4A"/>
    <path d="M202.696 149.77C204.963 149.77 206.613 149.386 207.646 148.62C208.68 147.853 209.196 146.77 209.196 145.37C209.196 144.536 209.013 143.82 208.646 143.22C208.313 142.62 207.813 142.086 207.146 141.62C206.513 141.12 205.73 140.67 204.796 140.27C203.863 139.836 202.796 139.42 201.596 139.02C200.396 138.586 199.23 138.12 198.096 137.62C196.996 137.086 196.013 136.436 195.146 135.67C194.313 134.903 193.63 133.986 193.096 132.92C192.596 131.853 192.346 130.57 192.346 129.07C192.346 125.936 193.43 123.486 195.596 121.72C197.763 119.92 200.713 119.02 204.446 119.02C206.613 119.02 208.53 119.27 210.196 119.77C211.896 120.236 213.23 120.753 214.196 121.32L212.246 126.42C211.113 125.786 209.863 125.303 208.496 124.97C207.163 124.636 205.78 124.47 204.346 124.47C202.646 124.47 201.313 124.82 200.346 125.52C199.413 126.22 198.946 127.203 198.946 128.47C198.946 129.236 199.096 129.903 199.396 130.47C199.73 131.003 200.18 131.486 200.746 131.92C201.346 132.353 202.03 132.753 202.796 133.12C203.596 133.486 204.463 133.836 205.396 134.17C207.03 134.77 208.48 135.386 209.746 136.02C211.046 136.62 212.13 137.353 212.996 138.22C213.896 139.053 214.58 140.053 215.046 141.22C215.513 142.353 215.746 143.736 215.746 145.37C215.746 148.503 214.63 150.936 212.396 152.67C210.196 154.37 206.963 155.22 202.696 155.22C201.263 155.22 199.946 155.12 198.746 154.92C197.58 154.753 196.53 154.536 195.596 154.27C194.696 154.003 193.913 153.736 193.246 153.47C192.58 153.17 192.046 152.903 191.646 152.67L193.496 147.52C194.396 148.02 195.613 148.52 197.146 149.02C198.68 149.52 200.53 149.77 202.696 149.77Z" fill="#1A1A1A"/>
  </g>
  <defs>
    <clipPath id="clip0_719_3849">
      <rect width="500.318" height="164.47" fill="white"/>
    </clipPath>
  </defs>
</svg>
