<svg width="152" height="54" viewBox="0 0 152 54" fill="none" xmlns="http://www.w3.org/2000/svg">
<path d="M0 53.7166V47.3639H6.35282V53.7166H0ZM16.4016 53.7166V43.156H26.9625V53.7166H16.4016ZM37.6177 53.5939V43.156H27.0569V32.5954H16.4281C16.7714 26.687 20.6195 22.9212 24.6934 18.9343C29.5908 14.1424 34.6542 9.18664 34.2169 0C37.1254 2.11312 39.8661 4.44829 42.4143 6.98433C44.9064 9.45508 47.155 12.1598 49.1287 15.0615C51.016 17.8251 52.5411 20.8195 53.6665 23.9711C54.7498 27.0158 55.3133 30.2209 55.3335 33.4525C55.3335 39.1375 53.4553 44.0953 49.9003 47.7894C48.2785 49.4728 46.3592 50.8414 44.2392 51.8261C42.1531 52.8006 39.9115 53.4 37.6174 53.5964L37.6177 53.5939ZM7.19463 43.156V35.5408H14.8097V43.156H7.19463Z" fill="#0706FF"/>
<path d="M37.6175 53.5932V43.1547H27.0566V32.5941H37.6175V43.1547H48.1783V49.3657C46.9696 50.3424 45.6461 51.1677 44.2372 51.8234C42.1517 52.7978 39.911 53.3969 37.6175 53.5932ZM16.4258 32.5928C16.6805 28.2171 18.8565 25.017 21.6234 22.0322H26.9629V32.5928H16.4258Z" fill="#395AFF"/>
<path d="M70.0626 14.0488C70.1977 14.0611 70.3544 14.0703 70.5326 14.0763C70.7109 14.0824 70.9228 14.0856 71.1684 14.086C72.6062 14.086 73.6721 13.7234 74.3662 12.9983C75.0603 12.2732 75.4074 11.2718 75.4076 9.9942C75.4076 8.65414 75.0759 7.64048 74.4125 6.95319C73.749 6.26591 72.6984 5.9219 71.2607 5.92117C71.0641 5.92117 70.8613 5.9242 70.6524 5.93025C70.4551 5.93545 70.2582 5.9508 70.0626 5.97624V14.0488ZM78.3749 9.9942C78.3963 10.9833 78.2209 11.9669 77.8589 12.8876C77.5398 13.6762 77.0376 14.3775 76.3937 14.9335C75.717 15.4974 74.9288 15.912 74.0806 16.15C73.0857 16.4319 72.0552 16.5684 71.0211 16.5553C70.5051 16.5553 69.903 16.5338 69.215 16.4909C68.5338 16.4488 67.8563 16.3594 67.1875 16.2235V3.78332C67.8729 3.65815 68.5654 3.57539 69.261 3.5355C69.9799 3.49255 70.5973 3.47107 71.1133 3.47107C72.1176 3.45979 73.1188 3.5838 74.09 3.83977C74.9286 4.0586 75.7108 4.45391 76.3843 4.99928C77.035 5.54362 77.5415 6.23998 77.8589 7.02671C78.2251 7.97212 78.4005 8.98067 78.3749 9.9942ZM84.5125 3.46997C86.4292 3.46997 87.8978 3.81095 88.9183 4.49291C89.9388 5.17487 90.4486 6.23461 90.4479 7.67214C90.4834 8.44766 90.2668 9.21383 89.8305 9.85597C89.3709 10.4512 88.7553 10.9074 88.052 11.1738C88.3101 11.4932 88.5804 11.8587 88.8629 12.2703C89.1454 12.6818 89.4249 13.1118 89.7014 13.5603C89.9779 14.0088 90.2451 14.4757 90.5033 14.961C90.7614 15.4464 91.0006 15.9226 91.2211 16.3896H88.0071C87.7727 15.9718 87.5352 15.5478 87.2947 15.1177C87.0542 14.6876 86.8075 14.2703 86.5546 13.8657C86.3018 13.4602 86.052 13.0762 85.8053 12.7139C85.5586 12.3515 85.3119 12.0225 85.0654 11.7267H83.6462V16.3896H80.7708V3.80177C81.4132 3.67682 82.0625 3.59067 82.7152 3.54377C83.3849 3.49457 83.984 3.46997 84.5125 3.46997ZM84.6777 5.92062C84.4688 5.92062 84.2814 5.92677 84.1157 5.93907C83.9499 5.95137 83.7932 5.96366 83.6456 5.97596V9.44074H84.4566C85.5378 9.44074 86.3119 9.30554 86.7787 9.03514C87.2455 8.76474 87.4789 8.30399 87.4789 7.65287C87.5006 7.38563 87.4452 7.11778 87.3195 6.88099C87.1938 6.64419 87.0028 6.44834 86.7693 6.31658C86.2968 6.05297 85.5998 5.92117 84.6782 5.92117L84.6777 5.92062ZM97.9124 16.6467C97.1217 16.6646 96.3345 16.5366 95.5903 16.269C94.9806 16.0444 94.4294 15.6853 93.9775 15.2185C93.5482 14.761 93.227 14.2131 93.0374 13.6151C92.8284 12.9504 92.7262 12.2568 92.7345 11.5601V3.61728H95.6076V11.3211C95.5979 11.7668 95.657 12.2113 95.7828 12.639C95.879 12.9641 96.0422 13.2655 96.2619 13.5237C96.4606 13.7482 96.7148 13.9166 96.9991 14.0119C97.3052 14.1129 97.6259 14.1627 97.9482 14.1592C98.2612 14.1721 98.5735 14.1216 98.8665 14.0107C99.1595 13.8999 99.427 13.7309 99.653 13.514C100.09 13.0843 100.308 12.3533 100.308 11.3211V3.61728H103.183V11.5607C103.191 12.2615 103.085 12.9589 102.87 13.6258C102.675 14.2284 102.348 14.7796 101.912 15.2386C101.451 15.7064 100.89 16.0626 100.271 16.28C99.5127 16.5405 98.7142 16.6646 97.9124 16.6467ZM109.781 3.46997C111.685 3.46997 113.147 3.8048 114.167 4.47446C115.187 5.14412 115.697 6.24067 115.697 7.76411C115.697 9.30003 115.181 10.4089 114.149 11.0907C113.117 11.7724 111.642 12.1134 109.725 12.1136H108.822V16.3896H105.947V3.80177C106.605 3.67488 107.27 3.58871 107.938 3.54377C108.638 3.49457 109.252 3.46997 109.781 3.46997ZM109.965 5.92062C109.756 5.92062 109.55 5.92677 109.347 5.93907C109.145 5.95137 108.97 5.96366 108.822 5.97596V9.66185H109.725C110.721 9.66185 111.47 9.52665 111.974 9.25625C112.478 8.98585 112.729 8.48214 112.729 7.74511C112.741 7.43865 112.675 7.13426 112.537 6.8604C112.407 6.62642 112.215 6.43231 111.983 6.29895C111.713 6.14692 111.416 6.0469 111.108 6.00405C110.73 5.94623 110.348 5.91851 109.965 5.92117L109.965 5.92062ZM117.817 16.3896V3.61728H126.368V6.03158H120.692V8.70389H125.742V11.1182H120.692V16.3896H117.817ZM136.08 16.3896C135.938 15.9457 135.785 15.4899 135.622 15.0222L135.133 13.625H130.144L129.659 15.026C129.497 15.4943 129.347 15.9488 129.207 16.3896H126.22C126.7 15.0128 127.156 13.7411 127.588 12.5745C128.019 11.408 128.441 10.3083 128.854 9.27553C129.267 8.2435 129.674 7.26361 130.074 6.33585C130.475 5.40809 130.891 4.5019 131.322 3.61728H134.048C134.468 4.5019 134.882 5.40809 135.289 6.33585C135.696 7.26361 136.107 8.2435 136.521 9.27553C136.935 10.3076 137.357 11.4072 137.789 12.5745C138.221 13.7419 138.678 15.0135 139.159 16.3896H136.08ZM132.626 6.51098C132.562 6.69638 132.468 6.9487 132.344 7.26792C132.221 7.58715 132.08 7.95603 131.922 8.37457C131.764 8.79292 131.588 9.25368 131.393 9.75684C131.198 10.26 131 10.7876 130.798 11.3396H134.451C134.255 10.7857 134.066 10.2565 133.883 9.75189C133.7 9.24726 133.526 8.78567 133.36 8.36713C133.195 7.9486 133.05 7.5799 132.926 7.26104C132.802 6.94218 132.702 6.69216 132.626 6.51098ZM149.37 16.3896C148.547 14.9272 147.656 13.4836 146.698 12.0585C145.756 10.6555 144.734 9.30793 143.638 8.02239V16.3896H140.8V3.61728H143.14C143.546 4.02279 143.994 4.52044 144.486 5.11025C144.977 5.70006 145.478 6.32979 145.988 6.99945C146.498 7.66911 147.004 8.36328 147.508 9.08195C148.012 9.80062 148.485 10.4918 148.927 11.1554V3.61728H151.784V16.3896H149.37Z" fill="#0706FF"/>
<path d="M75.3569 52.5926C75.1975 52.1259 75.0325 51.665 74.8618 51.2097C74.691 50.7545 74.526 50.2878 74.3667 49.8098H69.3815C69.2222 50.2878 69.0571 50.7602 68.8864 51.2268C68.7271 51.682 68.5677 52.1373 68.4084 52.5926H66.1719C66.6158 51.3292 67.0369 50.1626 67.4352 49.0928C67.8336 48.023 68.2206 47.01 68.5962 46.054C68.9831 45.098 69.3644 44.1875 69.74 43.3225C70.1156 42.4575 70.5026 41.6039 70.9009 40.7617H72.9326C73.3309 41.6039 73.7179 42.4575 74.0935 43.3225C74.4691 44.1875 74.8447 45.098 75.2203 46.054C75.6073 47.01 75.9999 48.023 76.3983 49.0928C76.808 50.1626 77.2348 51.3292 77.6787 52.5926H75.3569ZM71.8741 43.0493C71.6123 43.6526 71.3107 44.3866 70.9692 45.2516C70.6392 46.1166 70.292 47.0556 69.9278 48.0685H73.8203C73.4561 47.0556 73.1033 46.1109 72.7618 45.2346C72.4204 44.3582 72.1245 43.6298 71.8741 43.0493Z" fill="#4A4A4A"/>
<path d="M75.3569 52.5926C75.1975 52.1259 75.0325 51.665 74.8618 51.2097C74.691 50.7545 74.526 50.2878 74.3667 49.8098H69.3815C69.2222 50.2878 69.0571 50.7602 68.8864 51.2268C68.7271 51.682 68.5677 52.1373 68.4084 52.5926H66.1719C66.6158 51.3292 67.0369 50.1626 67.4352 49.0928C67.8336 48.023 68.2206 47.01 68.5962 46.054C68.9831 45.098 69.3644 44.1875 69.74 43.3225C70.1156 42.4575 70.5026 41.6039 70.9009 40.7617H72.9326C73.3309 41.6039 73.7179 42.4575 74.0935 43.3225C74.4691 44.1875 74.8447 45.098 75.2203 46.054C75.6073 47.01 75.9999 48.023 76.3983 49.0928C76.808 50.1626 77.2348 51.3292 77.6787 52.5926H75.3569ZM71.8741 43.0493C71.6123 43.6526 71.3107 44.3866 70.9692 45.2516C70.6392 46.1166 70.292 47.0556 69.9278 48.0685H73.8203C73.4561 47.0556 73.1033 46.1109 72.7618 45.2346C72.4204 44.3582 72.1245 43.6298 71.8741 43.0493Z" fill="#1A1A1A"/>
<path d="M88.1713 52.5926C87.7844 51.9438 87.3519 51.2496 86.8738 50.5098C86.3958 49.7586 85.9007 49.0074 85.3885 48.2563C84.8764 47.4937 84.3528 46.7596 83.8179 46.054C83.2943 45.337 82.7935 44.6939 82.3155 44.1249V52.5926H80.1985V40.7617H81.957C82.4122 41.2397 82.9016 41.8088 83.4252 42.4689C83.9488 43.1176 84.4723 43.7948 84.9959 44.5005C85.5308 45.2061 86.043 45.9174 86.5324 46.6345C87.0332 47.3401 87.4771 48.0002 87.864 48.6148V40.7617H89.9981V52.5926H88.1713Z" fill="#4A4A4A"/>
<path d="M88.1713 52.5926C87.7844 51.9438 87.3519 51.2496 86.8738 50.5098C86.3958 49.7586 85.9007 49.0074 85.3885 48.2563C84.8764 47.4937 84.3528 46.7596 83.8179 46.054C83.2943 45.337 82.7935 44.6939 82.3155 44.1249V52.5926H80.1985V40.7617H81.957C82.4122 41.2397 82.9016 41.8088 83.4252 42.4689C83.9488 43.1176 84.4723 43.7948 84.9959 44.5005C85.5308 45.2061 86.043 45.9174 86.5324 46.6345C87.0332 47.3401 87.4771 48.0002 87.864 48.6148V40.7617H89.9981V52.5926H88.1713Z" fill="#1A1A1A"/>
<path d="M101.714 52.5926C101.554 52.1259 101.389 51.665 101.219 51.2097C101.048 50.7545 100.883 50.2878 100.724 49.8098H95.7385C95.5791 50.2878 95.4141 50.7602 95.2434 51.2268C95.084 51.682 94.9247 52.1373 94.7653 52.5926H92.5288C92.9727 51.3292 93.3938 50.1626 93.7922 49.0928C94.1905 48.023 94.5775 47.01 94.9531 46.054C95.3401 45.098 95.7214 44.1875 96.097 43.3225C96.4726 42.4575 96.8595 41.6039 97.2579 40.7617H99.2895C99.6879 41.6039 100.075 42.4575 100.45 43.3225C100.826 44.1875 101.202 45.098 101.577 46.054C101.964 47.01 102.357 48.023 102.755 49.0928C103.165 50.1626 103.592 51.3292 104.036 52.5926H101.714ZM98.231 43.0493C97.9693 43.6526 97.6676 44.3866 97.3262 45.2516C96.9961 46.1166 96.649 47.0556 96.2848 48.0685H100.177C99.8131 47.0556 99.4602 46.1109 99.1188 45.2346C98.7774 44.3582 98.4814 43.6298 98.231 43.0493Z" fill="#4A4A4A"/>
<path d="M101.714 52.5926C101.554 52.1259 101.389 51.665 101.219 51.2097C101.048 50.7545 100.883 50.2878 100.724 49.8098H95.7385C95.5791 50.2878 95.4141 50.7602 95.2434 51.2268C95.084 51.682 94.9247 52.1373 94.7653 52.5926H92.5288C92.9727 51.3292 93.3938 50.1626 93.7922 49.0928C94.1905 48.023 94.5775 47.01 94.9531 46.054C95.3401 45.098 95.7214 44.1875 96.097 43.3225C96.4726 42.4575 96.8595 41.6039 97.2579 40.7617H99.2895C99.6879 41.6039 100.075 42.4575 100.45 43.3225C100.826 44.1875 101.202 45.098 101.577 46.054C101.964 47.01 102.357 48.023 102.755 49.0928C103.165 50.1626 103.592 51.3292 104.036 52.5926H101.714ZM98.231 43.0493C97.9693 43.6526 97.6676 44.3866 97.3262 45.2516C96.9961 46.1166 96.649 47.0556 96.2848 48.0685H100.177C99.8131 47.0556 99.4602 46.1109 99.1188 45.2346C98.7774 44.3582 98.4814 43.6298 98.231 43.0493Z" fill="#1A1A1A"/>
<path d="M114.033 50.7317V52.5926H106.555V40.7617H108.707V50.7317H114.033Z" fill="#4A4A4A"/>
<path d="M114.033 50.7317V52.5926H106.555V40.7617H108.707V50.7317H114.033Z" fill="#1A1A1A"/>
<path d="M118.927 46.0028C119.439 45.1492 119.94 44.2842 120.429 43.4079C120.919 42.5315 121.363 41.6495 121.761 40.7617H124.151C123.514 41.9681 122.848 43.1689 122.154 44.3639C121.471 45.5475 120.737 46.7426 119.951 47.949V52.5926H117.8V47.9831C117.015 46.7653 116.275 45.5589 115.581 44.3639C114.886 43.1689 114.221 41.9681 113.583 40.7617H116.11C116.508 41.6495 116.946 42.5315 117.424 43.4079C117.903 44.2842 118.403 45.1492 118.927 46.0028Z" fill="#4A4A4A"/>
<path d="M118.927 46.0028C119.439 45.1492 119.94 44.2842 120.429 43.4079C120.919 42.5315 121.363 41.6495 121.761 40.7617H124.151C123.514 41.9681 122.848 43.1689 122.154 44.3639C121.471 45.5475 120.737 46.7426 119.951 47.949V52.5926H117.8V47.9831C117.015 46.7653 116.275 45.5589 115.581 44.3639C114.886 43.1689 114.221 41.9681 113.583 40.7617H116.11C116.508 41.6495 116.946 42.5315 117.424 43.4079C117.903 44.2842 118.403 45.1492 118.927 46.0028Z" fill="#1A1A1A"/>
<path d="M129.512 50.9878C130.286 50.9878 130.849 50.8569 131.202 50.5951C131.555 50.3334 131.731 49.9635 131.731 49.4855C131.731 49.2009 131.669 48.9562 131.543 48.7514C131.43 48.5465 131.259 48.3644 131.031 48.2051C130.815 48.0343 130.548 47.8807 130.229 47.7441C129.91 47.5962 129.546 47.4539 129.136 47.3173C128.726 47.1694 128.328 47.01 127.941 46.8393C127.566 46.6572 127.23 46.4353 126.934 46.1735C126.649 45.9117 126.416 45.5988 126.234 45.2346C126.063 44.8704 125.978 44.4322 125.978 43.92C125.978 42.8502 126.348 42.0137 127.087 41.4104C127.827 40.7959 128.835 40.4886 130.109 40.4886C130.849 40.4886 131.504 40.5739 132.073 40.7446C132.653 40.904 133.108 41.0804 133.438 41.2739L132.773 43.0152C132.386 42.799 131.959 42.6339 131.492 42.5201C131.037 42.4063 130.565 42.3494 130.075 42.3494C129.495 42.3494 129.039 42.4689 128.709 42.7079C128.391 42.9469 128.231 43.2827 128.231 43.7152C128.231 43.9769 128.283 44.2045 128.385 44.398C128.499 44.5801 128.652 44.7452 128.846 44.8931C129.051 45.0411 129.284 45.1776 129.546 45.3028C129.819 45.428 130.115 45.5475 130.434 45.6614C130.991 45.8662 131.487 46.0768 131.919 46.293C132.363 46.4979 132.733 46.7483 133.029 47.0442C133.336 47.3287 133.569 47.6701 133.729 48.0685C133.888 48.4555 133.968 48.9278 133.968 49.4855C133.968 50.5553 133.586 51.3861 132.824 51.978C132.073 52.5584 130.969 52.8486 129.512 52.8486C129.022 52.8486 128.573 52.8145 128.163 52.7462C127.765 52.6893 127.406 52.6153 127.087 52.5243C126.78 52.4332 126.513 52.3422 126.285 52.2511C126.057 52.1487 125.875 52.0576 125.739 51.978L126.37 50.2196C126.678 50.3903 127.093 50.561 127.617 50.7317C128.14 50.9024 128.772 50.9878 129.512 50.9878Z" fill="#4A4A4A"/>
<path d="M129.512 50.9878C130.286 50.9878 130.849 50.8569 131.202 50.5951C131.555 50.3334 131.731 49.9635 131.731 49.4855C131.731 49.2009 131.669 48.9562 131.543 48.7514C131.43 48.5465 131.259 48.3644 131.031 48.2051C130.815 48.0343 130.548 47.8807 130.229 47.7441C129.91 47.5962 129.546 47.4539 129.136 47.3173C128.726 47.1694 128.328 47.01 127.941 46.8393C127.566 46.6572 127.23 46.4353 126.934 46.1735C126.649 45.9117 126.416 45.5988 126.234 45.2346C126.063 44.8704 125.978 44.4322 125.978 43.92C125.978 42.8502 126.348 42.0137 127.087 41.4104C127.827 40.7959 128.835 40.4886 130.109 40.4886C130.849 40.4886 131.504 40.5739 132.073 40.7446C132.653 40.904 133.108 41.0804 133.438 41.2739L132.773 43.0152C132.386 42.799 131.959 42.6339 131.492 42.5201C131.037 42.4063 130.565 42.3494 130.075 42.3494C129.495 42.3494 129.039 42.4689 128.709 42.7079C128.391 42.9469 128.231 43.2827 128.231 43.7152C128.231 43.9769 128.283 44.2045 128.385 44.398C128.499 44.5801 128.652 44.7452 128.846 44.8931C129.051 45.0411 129.284 45.1776 129.546 45.3028C129.819 45.428 130.115 45.5475 130.434 45.6614C130.991 45.8662 131.487 46.0768 131.919 46.293C132.363 46.4979 132.733 46.7483 133.029 47.0442C133.336 47.3287 133.569 47.6701 133.729 48.0685C133.888 48.4555 133.968 48.9278 133.968 49.4855C133.968 50.5553 133.586 51.3861 132.824 51.978C132.073 52.5584 130.969 52.8486 129.512 52.8486C129.022 52.8486 128.573 52.8145 128.163 52.7462C127.765 52.6893 127.406 52.6153 127.087 52.5243C126.78 52.4332 126.513 52.3422 126.285 52.2511C126.057 52.1487 125.875 52.0576 125.739 51.978L126.37 50.2196C126.678 50.3903 127.093 50.561 127.617 50.7317C128.14 50.9024 128.772 50.9878 129.512 50.9878Z" fill="#1A1A1A"/>
<path d="M136.888 40.7617H139.039V52.5926H136.888V40.7617Z" fill="#4A4A4A"/>
<path d="M136.888 40.7617H139.039V52.5926H136.888V40.7617Z" fill="#1A1A1A"/>
<path d="M145.765 50.9878C146.539 50.9878 147.103 50.8569 147.455 50.5951C147.808 50.3334 147.985 49.9635 147.985 49.4855C147.985 49.2009 147.922 48.9562 147.797 48.7514C147.683 48.5465 147.512 48.3644 147.285 48.2051C147.069 48.0343 146.801 47.8807 146.482 47.7441C146.164 47.5962 145.799 47.4539 145.39 47.3173C144.98 47.1694 144.582 47.01 144.195 46.8393C143.819 46.6572 143.483 46.4353 143.187 46.1735C142.903 45.9117 142.67 45.5988 142.487 45.2346C142.317 44.8704 142.231 44.4322 142.231 43.92C142.231 42.8502 142.601 42.0137 143.341 41.4104C144.081 40.7959 145.088 40.4886 146.363 40.4886C147.103 40.4886 147.757 40.5739 148.326 40.7446C148.907 40.904 149.362 41.0804 149.692 41.2739L149.026 43.0152C148.639 42.799 148.212 42.6339 147.746 42.5201C147.29 42.4063 146.818 42.3494 146.329 42.3494C145.748 42.3494 145.293 42.4689 144.963 42.7079C144.644 42.9469 144.485 43.2827 144.485 43.7152C144.485 43.9769 144.536 44.2045 144.639 44.398C144.752 44.5801 144.906 44.7452 145.099 44.8931C145.304 45.0411 145.538 45.1776 145.799 45.3028C146.073 45.428 146.369 45.5475 146.687 45.6614C147.245 45.8662 147.74 46.0768 148.173 46.293C148.616 46.4979 148.986 46.7483 149.282 47.0442C149.59 47.3287 149.823 47.6701 149.982 48.0685C150.142 48.4555 150.221 48.9278 150.221 49.4855C150.221 50.5553 149.84 51.3861 149.077 51.978C148.326 52.5584 147.222 52.8486 145.765 52.8486C145.276 52.8486 144.826 52.8145 144.417 52.7462C144.018 52.6893 143.66 52.6153 143.341 52.5243C143.034 52.4332 142.766 52.3422 142.539 52.2511C142.311 52.1487 142.129 52.0576 141.992 51.978L142.624 50.2196C142.931 50.3903 143.347 50.561 143.87 50.7317C144.394 50.9024 145.026 50.9878 145.765 50.9878Z" fill="#4A4A4A"/>
<path d="M145.765 50.9878C146.539 50.9878 147.103 50.8569 147.455 50.5951C147.808 50.3334 147.985 49.9635 147.985 49.4855C147.985 49.2009 147.922 48.9562 147.797 48.7514C147.683 48.5465 147.512 48.3644 147.285 48.2051C147.069 48.0343 146.801 47.8807 146.482 47.7441C146.164 47.5962 145.799 47.4539 145.39 47.3173C144.98 47.1694 144.582 47.01 144.195 46.8393C143.819 46.6572 143.483 46.4353 143.187 46.1735C142.903 45.9117 142.67 45.5988 142.487 45.2346C142.317 44.8704 142.231 44.4322 142.231 43.92C142.231 42.8502 142.601 42.0137 143.341 41.4104C144.081 40.7959 145.088 40.4886 146.363 40.4886C147.103 40.4886 147.757 40.5739 148.326 40.7446C148.907 40.904 149.362 41.0804 149.692 41.2739L149.026 43.0152C148.639 42.799 148.212 42.6339 147.746 42.5201C147.29 42.4063 146.818 42.3494 146.329 42.3494C145.748 42.3494 145.293 42.4689 144.963 42.7079C144.644 42.9469 144.485 43.2827 144.485 43.7152C144.485 43.9769 144.536 44.2045 144.639 44.398C144.752 44.5801 144.906 44.7452 145.099 44.8931C145.304 45.0411 145.538 45.1776 145.799 45.3028C146.073 45.428 146.369 45.5475 146.687 45.6614C147.245 45.8662 147.74 46.0768 148.173 46.293C148.616 46.4979 148.986 46.7483 149.282 47.0442C149.59 47.3287 149.823 47.6701 149.982 48.0685C150.142 48.4555 150.221 48.9278 150.221 49.4855C150.221 50.5553 149.84 51.3861 149.077 51.978C148.326 52.5584 147.222 52.8486 145.765 52.8486C145.276 52.8486 144.826 52.8145 144.417 52.7462C144.018 52.6893 143.66 52.6153 143.341 52.5243C143.034 52.4332 142.766 52.3422 142.539 52.2511C142.311 52.1487 142.129 52.0576 141.992 51.978L142.624 50.2196C142.931 50.3903 143.347 50.561 143.87 50.7317C144.394 50.9024 145.026 50.9878 145.765 50.9878Z" fill="#1A1A1A"/>
<path d="M71.0717 34.8311C70.4457 34.8311 69.814 34.8084 69.1766 34.7629C68.5393 34.7287 67.9816 34.649 67.5035 34.5239V23.0344C67.7539 22.9889 68.0214 22.9491 68.3059 22.9149C68.5905 22.8694 68.8807 22.8353 69.1766 22.8125C69.4726 22.7897 69.7628 22.7727 70.0473 22.7613C70.3432 22.7499 70.6221 22.7442 70.8839 22.7442C71.6009 22.7442 72.2667 22.8011 72.8814 22.9149C73.496 23.0174 74.0252 23.1938 74.4691 23.4442C74.9244 23.6946 75.2772 24.0246 75.5276 24.4343C75.778 24.8441 75.9032 25.3505 75.9032 25.9537C75.9032 26.5114 75.7666 26.9894 75.4934 27.3878C75.2317 27.7861 74.8618 28.1048 74.3837 28.3438C75.1008 28.5828 75.63 28.9356 75.9715 29.4023C76.3129 29.8689 76.4836 30.4607 76.4836 31.1778C76.4836 32.3956 76.0398 33.3117 75.152 33.9263C74.2642 34.5295 72.9041 34.8311 71.0717 34.8311ZM69.6205 29.3681V32.9703C69.8595 32.9931 70.1156 33.0101 70.3888 33.0215C70.6619 33.0329 70.9123 33.0386 71.14 33.0386C71.5838 33.0386 71.9936 33.0101 72.3692 32.9532C72.7562 32.8963 73.0862 32.7996 73.3594 32.663C73.6439 32.5151 73.8659 32.3216 74.0252 32.0826C74.1959 31.8436 74.2813 31.5363 74.2813 31.1607C74.2813 30.4892 74.0366 30.0226 73.5472 29.7608C73.0578 29.499 72.3806 29.3681 71.5156 29.3681H69.6205ZM69.6205 27.678H71.14C71.9594 27.678 72.6025 27.5642 73.0692 27.3366C73.5358 27.0976 73.7691 26.6765 73.7691 26.0732C73.7691 25.5042 73.5244 25.1001 73.035 24.8611C72.557 24.6221 71.931 24.5026 71.157 24.5026C70.827 24.5026 70.531 24.5083 70.2693 24.5197C70.0189 24.5311 69.8026 24.5482 69.6205 24.5709V27.678Z" fill="#4A4A4A"/>
<path d="M71.0717 34.8311C70.4457 34.8311 69.814 34.8084 69.1766 34.7629C68.5393 34.7287 67.9816 34.649 67.5035 34.5239V23.0344C67.7539 22.9889 68.0214 22.9491 68.3059 22.9149C68.5905 22.8694 68.8807 22.8353 69.1766 22.8125C69.4726 22.7897 69.7628 22.7727 70.0473 22.7613C70.3432 22.7499 70.6221 22.7442 70.8839 22.7442C71.6009 22.7442 72.2667 22.8011 72.8814 22.9149C73.496 23.0174 74.0252 23.1938 74.4691 23.4442C74.9244 23.6946 75.2772 24.0246 75.5276 24.4343C75.778 24.8441 75.9032 25.3505 75.9032 25.9537C75.9032 26.5114 75.7666 26.9894 75.4934 27.3878C75.2317 27.7861 74.8618 28.1048 74.3837 28.3438C75.1008 28.5828 75.63 28.9356 75.9715 29.4023C76.3129 29.8689 76.4836 30.4607 76.4836 31.1778C76.4836 32.3956 76.0398 33.3117 75.152 33.9263C74.2642 34.5295 72.9041 34.8311 71.0717 34.8311ZM69.6205 29.3681V32.9703C69.8595 32.9931 70.1156 33.0101 70.3888 33.0215C70.6619 33.0329 70.9123 33.0386 71.14 33.0386C71.5838 33.0386 71.9936 33.0101 72.3692 32.9532C72.7562 32.8963 73.0862 32.7996 73.3594 32.663C73.6439 32.5151 73.8659 32.3216 74.0252 32.0826C74.1959 31.8436 74.2813 31.5363 74.2813 31.1607C74.2813 30.4892 74.0366 30.0226 73.5472 29.7608C73.0578 29.499 72.3806 29.3681 71.5156 29.3681H69.6205ZM69.6205 27.678H71.14C71.9594 27.678 72.6025 27.5642 73.0692 27.3366C73.5358 27.0976 73.7691 26.6765 73.7691 26.0732C73.7691 25.5042 73.5244 25.1001 73.035 24.8611C72.557 24.6221 71.931 24.5026 71.157 24.5026C70.827 24.5026 70.531 24.5083 70.2693 24.5197C70.0189 24.5311 69.8026 24.5482 69.6205 24.5709V27.678Z" fill="#1A1A1A"/>
<path d="M84.3067 34.9506C83.4986 34.9506 82.8043 34.8368 82.2239 34.6092C81.6434 34.3702 81.1597 34.0401 80.7727 33.619C80.3971 33.1979 80.1183 32.7028 79.9362 32.1338C79.754 31.5647 79.663 30.9387 79.663 30.2559V22.8637H81.8312V30.051C81.8312 30.5859 81.8881 31.0469 82.0019 31.4338C82.1271 31.8094 82.2978 32.1167 82.5141 32.3557C82.7417 32.5947 83.0035 32.7711 83.2994 32.8849C83.6067 32.9988 83.9482 33.0557 84.3238 33.0557C84.6994 33.0557 85.0408 32.9988 85.3481 32.8849C85.6554 32.7711 85.9172 32.5947 86.1335 32.3557C86.3611 32.1167 86.5318 31.8094 86.6456 31.4338C86.7708 31.0469 86.8334 30.5859 86.8334 30.051V22.8637H89.0016V30.2559C89.0016 30.9387 88.9049 31.5647 88.7114 32.1338C88.5293 32.7028 88.2448 33.1979 87.8578 33.619C87.4822 34.0401 86.9985 34.3702 86.4066 34.6092C85.8148 34.8368 85.1148 34.9506 84.3067 34.9506Z" fill="#4A4A4A"/>
<path d="M84.3067 34.9506C83.4986 34.9506 82.8043 34.8368 82.2239 34.6092C81.6434 34.3702 81.1597 34.0401 80.7727 33.619C80.3971 33.1979 80.1183 32.7028 79.9362 32.1338C79.754 31.5647 79.663 30.9387 79.663 30.2559V22.8637H81.8312V30.051C81.8312 30.5859 81.8881 31.0469 82.0019 31.4338C82.1271 31.8094 82.2978 32.1167 82.5141 32.3557C82.7417 32.5947 83.0035 32.7711 83.2994 32.8849C83.6067 32.9988 83.9482 33.0557 84.3238 33.0557C84.6994 33.0557 85.0408 32.9988 85.3481 32.8849C85.6554 32.7711 85.9172 32.5947 86.1335 32.3557C86.3611 32.1167 86.5318 31.8094 86.6456 31.4338C86.7708 31.0469 86.8334 30.5859 86.8334 30.051V22.8637H89.0016V30.2559C89.0016 30.9387 88.9049 31.5647 88.7114 32.1338C88.5293 32.7028 88.2448 33.1979 87.8578 33.619C87.4822 34.0401 86.9985 34.3702 86.4066 34.6092C85.8148 34.8368 85.1148 34.9506 84.3067 34.9506Z" fill="#1A1A1A"/>
<path d="M95.645 33.0898C96.4189 33.0898 96.9823 32.9589 97.3351 32.6972C97.688 32.4354 97.8644 32.0655 97.8644 31.5875C97.8644 31.3029 97.8018 31.0583 97.6766 30.8534C97.5628 30.6485 97.392 30.4664 97.1644 30.3071C96.9482 30.1364 96.6807 29.9827 96.362 29.8461C96.0433 29.6982 95.6791 29.5559 95.2694 29.4193C94.8596 29.2714 94.4613 29.1121 94.0743 28.9413C93.6987 28.7592 93.3629 28.5373 93.067 28.2755C92.7825 28.0138 92.5491 27.7008 92.367 27.3366C92.1963 26.9724 92.111 26.5342 92.111 26.022C92.111 24.9522 92.4809 24.1157 93.2207 23.5125C93.9605 22.8979 94.9677 22.5906 96.2425 22.5906C96.9823 22.5906 97.6367 22.6759 98.2058 22.8467C98.7863 23.006 99.2416 23.1824 99.5716 23.3759L98.9058 25.1172C98.5188 24.901 98.092 24.7359 97.6254 24.6221C97.1701 24.5083 96.6978 24.4514 96.2083 24.4514C95.6279 24.4514 95.1726 24.5709 94.8425 24.8099C94.5239 25.0489 94.3645 25.3847 94.3645 25.8172C94.3645 26.0789 94.4157 26.3066 94.5182 26.5C94.632 26.6821 94.7856 26.8472 94.9791 26.9951C95.184 27.1431 95.4173 27.2797 95.6791 27.4049C95.9523 27.5301 96.2482 27.6496 96.5669 27.7634C97.1246 27.9682 97.6197 28.1788 98.0522 28.395C98.4961 28.5999 98.866 28.8503 99.1619 29.1462C99.4692 29.4307 99.7025 29.7722 99.8619 30.1705C100.021 30.5575 100.101 31.0298 100.101 31.5875C100.101 32.6573 99.7196 33.4882 98.957 34.08C98.2058 34.6604 97.1018 34.9506 95.645 34.9506C95.1555 34.9506 94.706 34.9165 94.2962 34.8482C93.8979 34.7913 93.5393 34.7173 93.2207 34.6263C92.9134 34.5352 92.6459 34.4442 92.4183 34.3531C92.1906 34.2507 92.0085 34.1596 91.8719 34.08L92.5036 32.3216C92.8109 32.4923 93.2264 32.663 93.7499 32.8337C94.2735 33.0044 94.9051 33.0898 95.645 33.0898Z" fill="#4A4A4A"/>
<path d="M95.645 33.0898C96.4189 33.0898 96.9823 32.9589 97.3351 32.6972C97.688 32.4354 97.8644 32.0655 97.8644 31.5875C97.8644 31.3029 97.8018 31.0583 97.6766 30.8534C97.5628 30.6485 97.392 30.4664 97.1644 30.3071C96.9482 30.1364 96.6807 29.9827 96.362 29.8461C96.0433 29.6982 95.6791 29.5559 95.2694 29.4193C94.8596 29.2714 94.4613 29.1121 94.0743 28.9413C93.6987 28.7592 93.3629 28.5373 93.067 28.2755C92.7825 28.0138 92.5491 27.7008 92.367 27.3366C92.1963 26.9724 92.111 26.5342 92.111 26.022C92.111 24.9522 92.4809 24.1157 93.2207 23.5125C93.9605 22.8979 94.9677 22.5906 96.2425 22.5906C96.9823 22.5906 97.6367 22.6759 98.2058 22.8467C98.7863 23.006 99.2416 23.1824 99.5716 23.3759L98.9058 25.1172C98.5188 24.901 98.092 24.7359 97.6254 24.6221C97.1701 24.5083 96.6978 24.4514 96.2083 24.4514C95.6279 24.4514 95.1726 24.5709 94.8425 24.8099C94.5239 25.0489 94.3645 25.3847 94.3645 25.8172C94.3645 26.0789 94.4157 26.3066 94.5182 26.5C94.632 26.6821 94.7856 26.8472 94.9791 26.9951C95.184 27.1431 95.4173 27.2797 95.6791 27.4049C95.9523 27.5301 96.2482 27.6496 96.5669 27.7634C97.1246 27.9682 97.6197 28.1788 98.0522 28.395C98.4961 28.5999 98.866 28.8503 99.1619 29.1462C99.4692 29.4307 99.7025 29.7722 99.8619 30.1705C100.021 30.5575 100.101 31.0298 100.101 31.5875C100.101 32.6573 99.7196 33.4882 98.957 34.08C98.2058 34.6604 97.1018 34.9506 95.645 34.9506C95.1555 34.9506 94.706 34.9165 94.2962 34.8482C93.8979 34.7913 93.5393 34.7173 93.2207 34.6263C92.9134 34.5352 92.6459 34.4442 92.4183 34.3531C92.1906 34.2507 92.0085 34.1596 91.8719 34.08L92.5036 32.3216C92.8109 32.4923 93.2264 32.663 93.7499 32.8337C94.2735 33.0044 94.9051 33.0898 95.645 33.0898Z" fill="#1A1A1A"/>
<path d="M103.021 22.8637H105.172V34.6946H103.021V22.8637Z" fill="#4A4A4A"/>
<path d="M103.021 22.8637H105.172V34.6946H103.021V22.8637Z" fill="#1A1A1A"/>
<path d="M117.003 34.6946C116.616 34.0458 116.184 33.3516 115.706 32.6118C115.228 31.8606 114.733 31.1095 114.22 30.3583C113.708 29.5958 113.185 28.8617 112.65 28.156C112.126 27.439 111.625 26.796 111.147 26.2269V34.6946H109.03V22.8637H110.789C111.244 23.3417 111.733 23.9108 112.257 24.5709C112.781 25.2197 113.304 25.8968 113.828 26.6025C114.363 27.3081 114.875 28.0194 115.364 28.7365C115.865 29.4421 116.309 30.1022 116.696 30.7168V22.8637H118.83V34.6946H117.003Z" fill="#4A4A4A"/>
<path d="M117.003 34.6946C116.616 34.0458 116.184 33.3516 115.706 32.6118C115.228 31.8606 114.733 31.1095 114.22 30.3583C113.708 29.5958 113.185 28.8617 112.65 28.156C112.126 27.439 111.625 26.796 111.147 26.2269V34.6946H109.03V22.8637H110.789C111.244 23.3417 111.733 23.9108 112.257 24.5709C112.781 25.2197 113.304 25.8968 113.828 26.6025C114.363 27.3081 114.875 28.0194 115.364 28.7365C115.865 29.4421 116.309 30.1022 116.696 30.7168V22.8637H118.83V34.6946H117.003Z" fill="#1A1A1A"/>
<path d="M122.692 34.6946V22.8637H130.29V24.6904H124.843V27.6097H129.692V29.4023H124.843V32.8679H130.699V34.6946H122.692Z" fill="#4A4A4A"/>
<path d="M122.692 34.6946V22.8637H130.29V24.6904H124.843V27.6097H129.692V29.4023H124.843V32.8679H130.699V34.6946H122.692Z" fill="#1A1A1A"/>
<path d="M136.588 33.0898C137.362 33.0898 137.926 32.9589 138.278 32.6972C138.631 32.4354 138.808 32.0655 138.808 31.5875C138.808 31.3029 138.745 31.0583 138.62 30.8534C138.506 30.6485 138.335 30.4664 138.108 30.3071C137.891 30.1364 137.624 29.9827 137.305 29.8461C136.987 29.6982 136.622 29.5559 136.213 29.4193C135.803 29.2714 135.405 29.1121 135.018 28.9413C134.642 28.7592 134.306 28.5373 134.01 28.2755C133.726 28.0138 133.492 27.7008 133.31 27.3366C133.14 26.9724 133.054 26.5342 133.054 26.022C133.054 24.9522 133.424 24.1157 134.164 23.5125C134.904 22.8979 135.911 22.5906 137.186 22.5906C137.926 22.5906 138.58 22.6759 139.149 22.8467C139.73 23.006 140.185 23.1824 140.515 23.3759L139.849 25.1172C139.462 24.901 139.035 24.7359 138.569 24.6221C138.113 24.5083 137.641 24.4514 137.152 24.4514C136.571 24.4514 136.116 24.5709 135.786 24.8099C135.467 25.0489 135.308 25.3847 135.308 25.8172C135.308 26.0789 135.359 26.3066 135.461 26.5C135.575 26.6821 135.729 26.8472 135.922 26.9951C136.127 27.1431 136.361 27.2797 136.622 27.4049C136.896 27.5301 137.191 27.6496 137.51 27.7634C138.068 27.9682 138.563 28.1788 138.995 28.395C139.439 28.5999 139.809 28.8503 140.105 29.1462C140.412 29.4307 140.646 29.7722 140.805 30.1705C140.964 30.5575 141.044 31.0298 141.044 31.5875C141.044 32.6573 140.663 33.4882 139.9 34.08C139.149 34.6604 138.045 34.9506 136.588 34.9506C136.099 34.9506 135.649 34.9165 135.239 34.8482C134.841 34.7913 134.483 34.7173 134.164 34.6263C133.857 34.5352 133.589 34.4442 133.361 34.3531C133.134 34.2507 132.952 34.1596 132.815 34.08L133.447 32.3216C133.754 32.4923 134.17 32.663 134.693 32.8337C135.217 33.0044 135.848 33.0898 136.588 33.0898Z" fill="#4A4A4A"/>
<path d="M136.588 33.0898C137.362 33.0898 137.926 32.9589 138.278 32.6972C138.631 32.4354 138.808 32.0655 138.808 31.5875C138.808 31.3029 138.745 31.0583 138.62 30.8534C138.506 30.6485 138.335 30.4664 138.108 30.3071C137.891 30.1364 137.624 29.9827 137.305 29.8461C136.987 29.6982 136.622 29.5559 136.213 29.4193C135.803 29.2714 135.405 29.1121 135.018 28.9413C134.642 28.7592 134.306 28.5373 134.01 28.2755C133.726 28.0138 133.492 27.7008 133.31 27.3366C133.14 26.9724 133.054 26.5342 133.054 26.022C133.054 24.9522 133.424 24.1157 134.164 23.5125C134.904 22.8979 135.911 22.5906 137.186 22.5906C137.926 22.5906 138.58 22.6759 139.149 22.8467C139.73 23.006 140.185 23.1824 140.515 23.3759L139.849 25.1172C139.462 24.901 139.035 24.7359 138.569 24.6221C138.113 24.5083 137.641 24.4514 137.152 24.4514C136.571 24.4514 136.116 24.5709 135.786 24.8099C135.467 25.0489 135.308 25.3847 135.308 25.8172C135.308 26.0789 135.359 26.3066 135.461 26.5C135.575 26.6821 135.729 26.8472 135.922 26.9951C136.127 27.1431 136.361 27.2797 136.622 27.4049C136.896 27.5301 137.191 27.6496 137.51 27.7634C138.068 27.9682 138.563 28.1788 138.995 28.395C139.439 28.5999 139.809 28.8503 140.105 29.1462C140.412 29.4307 140.646 29.7722 140.805 30.1705C140.964 30.5575 141.044 31.0298 141.044 31.5875C141.044 32.6573 140.663 33.4882 139.9 34.08C139.149 34.6604 138.045 34.9506 136.588 34.9506C136.099 34.9506 135.649 34.9165 135.239 34.8482C134.841 34.7913 134.483 34.7173 134.164 34.6263C133.857 34.5352 133.589 34.4442 133.361 34.3531C133.134 34.2507 132.952 34.1596 132.815 34.08L133.447 32.3216C133.754 32.4923 134.17 32.663 134.693 32.8337C135.217 33.0044 135.848 33.0898 136.588 33.0898Z" fill="#1A1A1A"/>
<path d="M146.832 33.0898C147.606 33.0898 148.17 32.9589 148.523 32.6972C148.875 32.4354 149.052 32.0655 149.052 31.5875C149.052 31.3029 148.989 31.0583 148.864 30.8534C148.75 30.6485 148.579 30.4664 148.352 30.3071C148.136 30.1364 147.868 29.9827 147.549 29.8461C147.231 29.6982 146.866 29.5559 146.457 29.4193C146.047 29.2714 145.649 29.1121 145.262 28.9413C144.886 28.7592 144.55 28.5373 144.254 28.2755C143.97 28.0138 143.737 27.7008 143.554 27.3366C143.384 26.9724 143.298 26.5342 143.298 26.022C143.298 24.9522 143.668 24.1157 144.408 23.5125C145.148 22.8979 146.155 22.5906 147.43 22.5906C148.17 22.5906 148.824 22.6759 149.393 22.8467C149.974 23.006 150.429 23.1824 150.759 23.3759L150.093 25.1172C149.706 24.901 149.279 24.7359 148.813 24.6221C148.357 24.5083 147.885 24.4514 147.396 24.4514C146.815 24.4514 146.36 24.5709 146.03 24.8099C145.711 25.0489 145.552 25.3847 145.552 25.8172C145.552 26.0789 145.603 26.3066 145.706 26.5C145.819 26.6821 145.973 26.8472 146.167 26.9951C146.371 27.1431 146.605 27.2797 146.866 27.4049C147.14 27.5301 147.436 27.6496 147.754 27.7634C148.312 27.9682 148.807 28.1788 149.24 28.395C149.683 28.5999 150.053 28.8503 150.349 29.1462C150.657 29.4307 150.89 29.7722 151.049 30.1705C151.209 30.5575 151.288 31.0298 151.288 31.5875C151.288 32.6573 150.907 33.4882 150.144 34.08C149.393 34.6604 148.289 34.9506 146.832 34.9506C146.343 34.9506 145.893 34.9165 145.484 34.8482C145.085 34.7913 144.727 34.7173 144.408 34.6263C144.101 34.5352 143.833 34.4442 143.606 34.3531C143.378 34.2507 143.196 34.1596 143.059 34.08L143.691 32.3216C143.998 32.4923 144.414 32.663 144.937 32.8337C145.461 33.0044 146.093 33.0898 146.832 33.0898Z" fill="#4A4A4A"/>
<path d="M146.832 33.0898C147.606 33.0898 148.17 32.9589 148.523 32.6972C148.875 32.4354 149.052 32.0655 149.052 31.5875C149.052 31.3029 148.989 31.0583 148.864 30.8534C148.75 30.6485 148.579 30.4664 148.352 30.3071C148.136 30.1364 147.868 29.9827 147.549 29.8461C147.231 29.6982 146.866 29.5559 146.457 29.4193C146.047 29.2714 145.649 29.1121 145.262 28.9413C144.886 28.7592 144.55 28.5373 144.254 28.2755C143.97 28.0138 143.737 27.7008 143.554 27.3366C143.384 26.9724 143.298 26.5342 143.298 26.022C143.298 24.9522 143.668 24.1157 144.408 23.5125C145.148 22.8979 146.155 22.5906 147.43 22.5906C148.17 22.5906 148.824 22.6759 149.393 22.8467C149.974 23.006 150.429 23.1824 150.759 23.3759L150.093 25.1172C149.706 24.901 149.279 24.7359 148.813 24.6221C148.357 24.5083 147.885 24.4514 147.396 24.4514C146.815 24.4514 146.36 24.5709 146.03 24.8099C145.711 25.0489 145.552 25.3847 145.552 25.8172C145.552 26.0789 145.603 26.3066 145.706 26.5C145.819 26.6821 145.973 26.8472 146.167 26.9951C146.371 27.1431 146.605 27.2797 146.866 27.4049C147.14 27.5301 147.436 27.6496 147.754 27.7634C148.312 27.9682 148.807 28.1788 149.24 28.395C149.683 28.5999 150.053 28.8503 150.349 29.1462C150.657 29.4307 150.89 29.7722 151.049 30.1705C151.209 30.5575 151.288 31.0298 151.288 31.5875C151.288 32.6573 150.907 33.4882 150.144 34.08C149.393 34.6604 148.289 34.9506 146.832 34.9506C146.343 34.9506 145.893 34.9165 145.484 34.8482C145.085 34.7913 144.727 34.7173 144.408 34.6263C144.101 34.5352 143.833 34.4442 143.606 34.3531C143.378 34.2507 143.196 34.1596 143.059 34.08L143.691 32.3216C143.998 32.4923 144.414 32.663 144.937 32.8337C145.461 33.0044 146.093 33.0898 146.832 33.0898Z" fill="#1A1A1A"/>
</svg>
