<svg width="72" height="107" viewBox="0 0 72 107" fill="none" xmlns="http://www.w3.org/2000/svg">
<path fill-rule="evenodd" clip-rule="evenodd" d="M6 105.045H8V107H7H6V105.045ZM6 101.136H8V97.2273H6V101.136ZM6 93.3182H8V89.4091H6V93.3182ZM6 85.5H8V81.5909H6V85.5ZM6 77.6818H8V73.7727H6V77.6818ZM6 69.8636H8V65.9545H6V69.8636ZM6 62.0454H8V58.1364H6V62.0454ZM6 54.2273H8V50.3182H6V54.2273ZM6 46.4091H8V42.5H6V46.4091ZM6 38.5909H8V34.6818H6V38.5909ZM6 30.7727H8V26.8636H6V30.7727ZM6 22.9546H8V21C8 20.764 8.0043 20.5291 8.01282 20.2952C8.02701 19.9055 8.05293 19.5189 8.09022 19.1358L6.09963 18.942C6.05946 19.3548 6.03125 19.771 6.01534 20.1902C6.00514 20.4589 6 20.7289 6 21V22.9546ZM10.2395 12.0425C9.6569 13.1303 9.1772 14.2812 8.81331 15.4823L6.89923 14.9024C7.30177 13.5737 7.83235 12.3009 8.47651 11.0982L10.2395 12.0425ZM13.153 7.98992C12.8622 8.29931 12.5816 8.61844 12.3119 8.94676L10.7665 7.67711C11.0939 7.27869 11.4356 6.89254 11.7909 6.51946C12.0838 6.21196 12.3859 5.91333 12.6968 5.62402C13.0145 5.3283 13.3415 5.04232 13.6771 4.76654L14.9468 6.31185C14.5861 6.60819 14.2365 6.91756 13.8988 7.23923C13.6433 7.48252 13.3946 7.73286 13.153 7.98992ZM21.4823 2.8133C20.2812 3.17719 19.1303 3.6569 18.0425 4.23953L17.0982 2.4765C18.3009 1.83235 19.5737 1.30177 20.9024 0.899224L21.4823 2.8133ZM26.2498 2.01452C25.8755 2.02904 25.504 2.05438 25.1358 2.09022L24.942 0.0996287C25.3654 0.0584283 25.7923 0.029811 26.2224 0.0141417C26.4805 0.00474018 26.7397 0 27 0H28.875V2H27C26.7487 2 26.4987 2.00487 26.2498 2.01452ZM32.625 2H36.375V0H32.625V2ZM40.125 0V2H43.875V0H40.125ZM47.625 0V2H51.375V0H47.625ZM55.125 0V2H58.875V0H55.125ZM62.625 0V2H66.375V0H62.625ZM70.125 0V2H72V1V0H70.125Z" fill="#A4A2A2"/>
<path d="M7 107L0.937822 100.25H13.0622L7 107Z" fill="#395AFF"/>
</svg>
