<svg width="278" height="659" viewBox="0 0 278 659" fill="none" xmlns="http://www.w3.org/2000/svg">
<path fill-rule="evenodd" clip-rule="evenodd" d="M271.031 8V6H273V7V8H271.031ZM267.094 8V6H263.156V8H267.094ZM259.219 8V6H255.281V8H259.219ZM251.344 8V6H247.406V8H251.344ZM243.469 8V6H239.531V8H243.469ZM235.594 8V6H231.656V8H235.594ZM227.719 8V6H223.781V8H227.719ZM219.844 8V6H215.906V8H219.844ZM211.969 8V6H208.031V8H211.969ZM204.094 8V6H200.156V8H204.094ZM196.219 8V6H192.281V8H196.219ZM188.344 8V6H184.406V8H188.344ZM180.469 8V6H176.531V8H180.469ZM172.594 8V6H168.656V8H172.594ZM164.719 8V6H160.781V8H164.719ZM156.844 8V6H152.906V8H156.844ZM148.969 8V6H145.031V8H148.969ZM141.094 8V6H137.156V8H141.094ZM133.219 8V6H129.281V8H133.219ZM125.344 8V6H121.406V8H125.344ZM117.469 8V6H113.531V8H117.469ZM109.594 8V6H105.656V8H109.594ZM101.719 8V6H97.7812V8H101.719ZM93.8438 8V6H89.9062V8H93.8438ZM85.9688 8V6H82.0312V8H85.9688ZM78.0938 8V6H74.1562V8H78.0938ZM70.2188 8V6H66.2812V8H70.2188ZM62.3438 8V6H58.4062V8H62.3438ZM54.4688 8V6H50.5312V8H54.4688ZM46.5938 8V6H42.6562V8H46.5938ZM38.7188 8V6H34.7812V8H38.7188ZM30.8438 8V6H26.9062V8H30.8438ZM22.9688 8V6H21C20.7397 6 20.4805 6.00474 20.2224 6.01414C19.7923 6.02981 19.3654 6.05843 18.942 6.09963L19.1358 8.09022C19.507 8.05409 19.8815 8.02864 20.2589 8.01418C20.5047 8.00475 20.7518 8 21 8H22.9688ZM11.0982 8.47651C12.3009 7.83235 13.5737 7.30177 14.9024 6.89922L15.4823 8.8133C14.2812 9.17719 13.1303 9.6569 12.0425 10.2395L11.0982 8.47651ZM6.69631 11.6244C7.01421 11.3286 7.3413 11.0425 7.67711 10.7665L8.94677 12.3119C8.58609 12.6082 8.23651 12.9176 7.89876 13.2392C7.64588 13.4801 7.39963 13.7278 7.16032 13.9821C6.86689 14.2939 6.58388 14.6157 6.31185 14.9468L4.76654 13.6771C5.09389 13.2787 5.43562 12.8925 5.79094 12.5195C6.08366 12.2121 6.38559 11.9136 6.69631 11.6244ZM0.899224 20.9024C1.30177 19.5737 1.83235 18.3009 2.4765 17.0982L4.23954 18.0425C3.6569 19.1303 3.17719 20.2812 2.8133 21.4823L0.899224 20.9024ZM0.0153406 26.1902C0.031249 25.771 0.0594578 25.3548 0.0996287 24.942L2.09022 25.1358C2.05293 25.5189 2.02701 25.9055 2.01282 26.2952C2.0043 26.5291 2 26.764 2 27V29.0099H0V27C0 26.7289 0.00514328 26.4589 0.0153406 26.1902ZM0 33.0296V37.0493H2V33.0296H0ZM2 41.0691H0V45.0888H2V41.0691ZM2 49.1086H0V53.1283H2V49.1086ZM2 57.148H0V61.1678H2V57.148ZM2 65.1875H0V69.2072H2V65.1875ZM2 73.227H0V77.2467H2V73.227ZM2 81.2664H0V85.2862H2V81.2664ZM2 89.3059H0V93.3257H2V89.3059ZM2 97.3454H0V101.365H2V97.3454ZM2 105.385H0V109.405H2V105.385ZM2 113.424H0V117.444H2V113.424ZM2 121.464H0V125.484H2V121.464ZM2 129.503H0V133.523H2V129.503ZM2 137.543H0V141.562H2V137.543ZM2 145.582H0V149.602H2V145.582ZM2 153.622H0V157.641H2V153.622ZM2 161.661H0V165.681H2V161.661ZM2 169.701H0V173.72H2V169.701ZM2 177.74H0V181.76H2V177.74ZM2 185.78H0V189.799H2V185.78ZM2 193.819H0V197.839H2V193.819ZM2 201.858H0V205.878H2V201.858ZM2 209.898H0V213.918H2V209.898ZM2 217.937H0V221.957H2V217.937ZM2 225.977H0V229.997H2V225.977ZM2 234.016H0V238.036H2V234.016ZM2 242.056H0V246.076H2V242.056ZM2 250.095H0V254.115H2V250.095ZM2 258.135H0V262.154H2V258.135ZM2 266.174H0V270.194H2V266.174ZM2 274.214H0V278.233H2V274.214ZM2 282.253H0V286.273H2V282.253ZM2 290.293H0V294.312H2V290.293ZM2 298.332H0V302.352H2V298.332ZM2 306.372H0V310.391H2V306.372ZM2 314.411H0V318.431H2V314.411ZM2 322.451H0V326.47H2V322.451ZM2 330.49H0V334.51H2V330.49ZM2 338.529H0V342.549H2V338.529ZM2 346.569H0V350.589H2V346.569ZM2 354.608H0V358.628H2V354.608ZM2 362.648H0V366.668H2V362.648ZM2 370.687H0V374.707H2V370.687ZM2 378.727H0V382.747H2V378.727ZM2 386.766H0V390.786H2V386.766ZM2 394.806H0V398.826H2V394.806ZM2 402.845H0V406.865H2V402.845ZM2 410.885H0V414.905H2V410.885ZM2 418.924H0V422.944H2V418.924ZM2 426.964H0V430.984H2V426.964ZM2 435.003H0V439.023H2V435.003ZM2 443.043H0V447.063H2V443.043ZM2 451.082H0V455.102H2V451.082ZM2 459.122H0V463.142H2V459.122ZM2 467.161H0V471.181H2V467.161ZM2 475.201H0V479.221H2V475.201ZM2 483.24H0V487.26H2V483.24ZM2 491.28H0V495.3H2V491.28ZM2 499.319H0V503.339H2V499.319ZM2 507.359H0V511.379H2V507.359ZM2 515.398H0V519.418H2V515.398ZM2 523.438H0V527.457H2V523.438ZM2 531.477H0V535.497H2V531.477ZM2 539.517H0V543.536H2V539.517ZM2 547.556H0V551.576H2V547.556ZM2 555.596H0V559.615H2V555.596ZM2 563.635H0V567.655H2V563.635ZM2 571.674H0V575.694H2V571.674ZM2 579.714H0V583.734H2V579.714ZM2 587.753H0V591.773H2V587.753ZM2 595.793H0V599.812H2V595.793ZM2 603.832H0V607.852H2V603.832ZM2 611.872H0V615.891H2V611.872ZM2 619.911H0V623.931H2V619.911ZM2 627.95H0V631.97H2V627.95ZM2 635.99H0V638C0 638.26 0.00474018 638.52 0.0141417 638.778C0.029811 639.208 0.0584285 639.635 0.0996289 640.058L2.09022 639.864C2.06698 639.625 2.04815 639.385 2.03382 639.144C2.01138 638.765 2 638.384 2 638V635.99ZM2.47651 647.902C1.83235 646.699 1.30177 645.426 0.899225 644.098L2.81331 643.518C3.1772 644.719 3.6569 645.87 4.23954 646.957L2.47651 647.902ZM7.67711 654.233C6.61466 653.361 5.63948 652.385 4.76655 651.323L6.31185 650.053C7.10209 651.015 7.98496 651.898 8.94677 652.688L7.67711 654.233ZM14.9024 658.101C13.5737 657.698 12.3009 657.168 11.0982 656.523L12.0425 654.76C13.1303 655.343 14.2812 655.823 15.4823 656.187L14.9024 658.101ZM20.87 659C20.2201 658.996 19.5771 658.962 18.942 658.9L19.1358 656.91C19.7487 656.969 20.3704 657 20.9995 657C20.9997 657 20.9998 657 21 657H22.9688V659H21C20.9566 659 20.9133 659 20.87 659ZM26.9063 659H30.8438V657H26.9063V659ZM34.7813 657V659H38.7188V657H34.7813ZM42.6563 657V659H46.5938V657H42.6563ZM50.5313 657V659H54.4688V657H50.5313ZM58.4063 657V659H62.3438V657H58.4063ZM66.2812 657V659H70.2188V657H66.2812ZM74.1562 657V659H78.0938V657H74.1562ZM82.0312 657V659H85.9688V657H82.0312ZM89.9062 657V659H93.8438V657H89.9062ZM97.7812 657V659H101.719V657H97.7812ZM105.656 657V659H109.594V657H105.656ZM113.531 657V659H117.469V657H113.531ZM121.406 657V659H125.344V657H121.406ZM129.281 657V659H133.219V657H129.281ZM137.156 657V659H141.094V657H137.156ZM145.031 657V659H148.969V657H145.031ZM152.906 657V659H156.844V657H152.906ZM160.781 657V659H164.719V657H160.781ZM168.656 657V659H172.594V657H168.656ZM176.531 657V659H180.469V657H176.531ZM184.406 657V659H188.344V657H184.406ZM192.281 657V659H196.219V657H192.281ZM200.156 657V659H204.094V657H200.156ZM208.031 657V659H211.969V657H208.031ZM215.906 657V659H219.844V657H215.906ZM223.781 657V659H227.719V657H223.781ZM231.656 657V659H235.594V657H231.656ZM239.531 657V659H243.469V657H239.531ZM247.406 657V659H251.344V657H247.406ZM255.281 657V659H259.219V657H255.281ZM263.156 657V659H267.094V657H263.156ZM271.031 657V659H273V658V657H271.031Z" fill="#A4A2A2"/>
<path d="M278 7L271.25 13.0622L271.25 0.937822L278 7Z" fill="#395AFF"/>
</svg>
