<svg width="149" height="111" viewBox="0 0 149 111" fill="none" xmlns="http://www.w3.org/2000/svg">
<g filter="url(#filter0_d_598_8)">
<path fill-rule="evenodd" clip-rule="evenodd" d="M7 100.95H9V103H8H7V100.95ZM7 96.85H9V92.75H7V96.85ZM7 88.65H9V84.55H7V88.65ZM7 80.45H9V76.35H7V80.45ZM7 72.25H9V68.15H7V72.25ZM7 64.05H9V59.95H7V64.05ZM7 55.85H9V51.75H7V55.85ZM7 47.65H9V43.55H7V47.65ZM7 39.45H9V35.35H7V39.45ZM7 31.25H9V27.15H7V31.25ZM7 23.05H9V21C9 20.764 9.0043 20.5291 9.01282 20.2952C9.02701 19.9055 9.05293 19.5189 9.09022 19.1358L7.09963 18.942C7.05945 19.3549 7.03124 19.7711 7.01533 20.1904C7.00514 20.459 7 20.7289 7 21V23.05ZM11.2395 12.0425C10.6569 13.1303 10.1772 14.2812 9.81331 15.4823L7.89922 14.9024C8.30177 13.5737 8.83235 12.3009 9.47651 11.0982L11.2395 12.0425ZM14.156 7.98675C13.8641 8.29713 13.5825 8.61732 13.3119 8.94676L11.7665 7.67711C12.0939 7.27869 12.4356 6.89254 12.7909 6.51946C13.0838 6.21199 13.3858 5.91338 13.6967 5.6241C14.0145 5.32835 14.3414 5.04235 14.6771 4.76654L15.9468 6.31185C15.5861 6.60819 15.2365 6.91756 14.8988 7.23923C14.6443 7.48152 14.3966 7.7308 14.156 7.98675ZM22.4823 2.8133C21.2812 3.17719 20.1303 3.6569 19.0425 4.23954L18.0982 2.4765C19.3009 1.83235 20.5737 1.30177 21.9024 0.899224L22.4823 2.8133ZM27.2494 2.01454C26.8752 2.02907 26.5039 2.0544 26.1358 2.09022L25.942 0.0996287C26.3654 0.0584283 26.7923 0.029811 27.2224 0.0141417C27.4805 0.00474018 27.7397 0 28 0H29.95V2H28C27.7486 2 27.4983 2.00488 27.2494 2.01454ZM33.85 2H37.75V0H33.85V2ZM41.65 0V2H45.55V0H41.65ZM49.45 0V2H53.35V0H49.45ZM57.25 0V2H61.15V0H57.25ZM65.05 0V2H68.95V0H65.05ZM72.85 0V2H76.75V0H72.85ZM80.65 0V2H84.55V0H80.65ZM88.45 0V2H92.35V0H88.45ZM96.25 0V2H100.15V0H96.25ZM104.05 0V2H107.95V0H104.05ZM111.85 0V2H115.75V0H111.85ZM119.65 0V2H123.55V0H119.65ZM127.45 0V2H131.35V0H127.45ZM135.25 0V2H139.15V0H135.25ZM143.05 0V2H145V1V0H143.05Z" fill="#A4A2A2"/>
</g>
<path d="M8.03149 107L1.07644 100.25H14.9865L8.03149 107Z" fill="#395AFF"/>
<defs>
<filter id="filter0_d_598_8" x="3" y="0" width="146" height="111" filterUnits="userSpaceOnUse" color-interpolation-filters="sRGB">
<feFlood flood-opacity="0" result="BackgroundImageFix"/>
<feColorMatrix in="SourceAlpha" type="matrix" values="0 0 0 0 0 0 0 0 0 0 0 0 0 0 0 0 0 0 127 0" result="hardAlpha"/>
<feOffset dy="4"/>
<feGaussianBlur stdDeviation="2"/>
<feComposite in2="hardAlpha" operator="out"/>
<feColorMatrix type="matrix" values="0 0 0 0 0 0 0 0 0 0 0 0 0 0 0 0 0 0 0.25 0"/>
<feBlend mode="normal" in2="BackgroundImageFix" result="effect1_dropShadow_598_8"/>
<feBlend mode="normal" in="SourceGraphic" in2="effect1_dropShadow_598_8" result="shape"/>
</filter>
</defs>
</svg>
