<svg width="136" height="659" viewBox="0 0 136 659" fill="none" xmlns="http://www.w3.org/2000/svg">
<path fill-rule="evenodd" clip-rule="evenodd" d="M131 8V6H133V7V8H131ZM127 8V6H123V8H127ZM119 8V6H115V8H119ZM111 8V6H107V8H111ZM103 8V6H99V8H103ZM95 8V6H91V8H95ZM87 8V6H83V8H87ZM79 8V6H75V8H79ZM71 8V6H67V8H71ZM63 8V6H59V8H63ZM55 8V6H51V8H55ZM47 8V6H43V8H47ZM39 8V6H35V8H39ZM31 8V6H27V8H31ZM23 8V6H21C20.7397 6 20.4805 6.00474 20.2224 6.01414C19.7923 6.02981 19.3654 6.05843 18.942 6.09963L19.1358 8.09022C19.507 8.05409 19.8815 8.02864 20.2589 8.01418C20.5047 8.00475 20.7518 8 21 8H23ZM11.0982 8.47651C12.3009 7.83235 13.5737 7.30177 14.9024 6.89922L15.4823 8.8133C14.2812 9.17719 13.1303 9.6569 12.0425 10.2395L11.0982 8.47651ZM6.69631 11.6244C7.01421 11.3286 7.3413 11.0425 7.67711 10.7665L8.94677 12.3119C8.58609 12.6082 8.23651 12.9176 7.89876 13.2392C7.64588 13.4801 7.39963 13.7278 7.16032 13.9821C6.86689 14.2939 6.58388 14.6157 6.31185 14.9468L4.76654 13.6771C5.09389 13.2787 5.43562 12.8925 5.79094 12.5195C6.08366 12.2121 6.38559 11.9136 6.69631 11.6244ZM0.899224 20.9024C1.30177 19.5737 1.83235 18.3009 2.4765 17.0982L4.23954 18.0425C3.6569 19.1303 3.17719 20.2812 2.8133 21.4823L0.899224 20.9024ZM0.0153406 26.1902C0.031249 25.771 0.0594578 25.3548 0.0996287 24.942L2.09022 25.1358C2.05293 25.5189 2.02701 25.9055 2.01282 26.2952C2.0043 26.5291 2 26.764 2 27V29.0099H0V27C0 26.7289 0.00514328 26.4589 0.0153406 26.1902ZM0 33.0296V37.0493H2V33.0296H0ZM2 41.0691H0V45.0888H2V41.0691ZM2 49.1086H0V53.1283H2V49.1086ZM2 57.148H0V61.1678H2V57.148ZM2 65.1875H0V69.2072H2V65.1875ZM2 73.227H0V77.2467H2V73.227ZM2 81.2664H0V85.2862H2V81.2664ZM2 89.3059H0V93.3257H2V89.3059ZM2 97.3454H0V101.365H2V97.3454ZM2 105.385H0V109.405H2V105.385ZM2 113.424H0V117.444H2V113.424ZM2 121.464H0V125.484H2V121.464ZM2 129.503H0V133.523H2V129.503ZM2 137.543H0V141.562H2V137.543ZM2 145.582H0V149.602H2V145.582ZM2 153.622H0V157.641H2V153.622ZM2 161.661H0V165.681H2V161.661ZM2 169.701H0V173.72H2V169.701ZM2 177.74H0V181.76H2V177.74ZM2 185.78H0V189.799H2V185.78ZM2 193.819H0V197.839H2V193.819ZM2 201.858H0V205.878H2V201.858ZM2 209.898H0V213.918H2V209.898ZM2 217.937H0V221.957H2V217.937ZM2 225.977H0V229.997H2V225.977ZM2 234.016H0V238.036H2V234.016ZM2 242.056H0V246.076H2V242.056ZM2 250.095H0V254.115H2V250.095ZM2 258.135H0V262.154H2V258.135ZM2 266.174H0V270.194H2V266.174ZM2 274.214H0V278.233H2V274.214ZM2 282.253H0V286.273H2V282.253ZM2 290.293H0V294.312H2V290.293ZM2 298.332H0V302.352H2V298.332ZM2 306.372H0V310.391H2V306.372ZM2 314.411H0V318.431H2V314.411ZM2 322.451H0V326.47H2V322.451ZM2 330.49H0V334.51H2V330.49ZM2 338.529H0V342.549H2V338.529ZM2 346.569H0V350.589H2V346.569ZM2 354.608H0V358.628H2V354.608ZM2 362.648H0V366.668H2V362.648ZM2 370.687H0V374.707H2V370.687ZM2 378.727H0V382.747H2V378.727ZM2 386.766H0V390.786H2V386.766ZM2 394.806H0V398.826H2V394.806ZM2 402.845H0V406.865H2V402.845ZM2 410.885H0V414.905H2V410.885ZM2 418.924H0V422.944H2V418.924ZM2 426.964H0V430.984H2V426.964ZM2 435.003H0V439.023H2V435.003ZM2 443.043H0V447.063H2V443.043ZM2 451.082H0V455.102H2V451.082ZM2 459.122H0V463.142H2V459.122ZM2 467.161H0V471.181H2V467.161ZM2 475.201H0V479.221H2V475.201ZM2 483.24H0V487.26H2V483.24ZM2 491.28H0V495.3H2V491.28ZM2 499.319H0V503.339H2V499.319ZM2 507.359H0V511.379H2V507.359ZM2 515.398H0V519.418H2V515.398ZM2 523.438H0V527.457H2V523.438ZM2 531.477H0V535.497H2V531.477ZM2 539.517H0V543.536H2V539.517ZM2 547.556H0V551.576H2V547.556ZM2 555.596H0V559.615H2V555.596ZM2 563.635H0V567.655H2V563.635ZM2 571.674H0V575.694H2V571.674ZM2 579.714H0V583.734H2V579.714ZM2 587.753H0V591.773H2V587.753ZM2 595.793H0V599.812H2V595.793ZM2 603.832H0V607.852H2V603.832ZM2 611.872H0V615.891H2V611.872ZM2 619.911H0V623.931H2V619.911ZM2 627.95H0V631.97H2V627.95ZM2 635.99H0V638C0 638.26 0.00474018 638.52 0.0141417 638.778C0.029811 639.208 0.0584284 639.635 0.0996289 640.058L2.09022 639.864C2.06698 639.625 2.04815 639.385 2.03382 639.144C2.01138 638.765 2 638.384 2 638V635.99ZM2.4765 647.902C1.83235 646.699 1.30177 645.426 0.899225 644.098L2.8133 643.518C3.17719 644.719 3.6569 645.87 4.23954 646.957L2.4765 647.902ZM7.67711 654.233C6.61466 653.361 5.63947 652.385 4.76654 651.323L6.31185 650.053C7.10209 651.015 7.98496 651.898 8.94676 652.688L7.67711 654.233ZM14.9024 658.101C13.5737 657.698 12.3009 657.168 11.0982 656.523L12.0425 654.76C13.1303 655.343 14.2812 655.823 15.4823 656.187L14.9024 658.101ZM21 659C20.3059 659 19.6194 658.966 18.942 658.9L19.1358 656.91C19.7488 656.969 20.3707 657 21 657H23V659H21ZM27 659H31V657H27V659ZM35 657V659H39V657H35ZM43 657V659H47V657H43ZM51 657V659H55V657H51ZM59 657V659H63V657H59ZM67 657V659H71V657H67ZM75 657V659H79V657H75ZM83 657V659H87V657H83ZM91 657V659H95V657H91ZM99 657V659H103V657H99ZM107 657V659H111V657H107ZM115 657V659H119V657H115ZM123 657V659H127V657H123ZM131 657V659H133V658V657H131Z" fill="#A4A2A2"/>
<path d="M136 7L129.25 13.0622L129.25 0.937822L136 7Z" fill="#395AFF"/>
</svg>
