<svg width="146" height="90" viewBox="0 0 146 90" fill="none" xmlns="http://www.w3.org/2000/svg">
<g filter="url(#filter0_d_598_9)">
<path fill-rule="evenodd" clip-rule="evenodd" d="M4 1.90625H6V0H5H4V1.90625ZM4 5.71875H6V9.53125H4V5.71875ZM4 13.3438H6V17.1562H4V13.3438ZM4 20.9688H6V24.7812H4V20.9688ZM4 28.5938H6V32.4062H4V28.5938ZM4 36.2188H6V40.0312H4V36.2188ZM4 43.8438H6V47.6562H4V43.8438ZM4 51.4688H6V55.2813H4V51.4688ZM4 59.0938H6V61C6 61.236 6.0043 61.4709 6.01282 61.7048C6.02701 62.0945 6.05293 62.4811 6.09022 62.8642L4.09963 63.058C4.05958 62.6465 4.03142 62.2316 4.01549 61.8137C4.00519 61.5437 4 61.2724 4 61V59.0938ZM8.23954 69.9575C7.6569 68.8697 7.1772 67.7188 6.81331 66.5177L4.89922 67.0976C5.30177 68.4263 5.83235 69.6991 6.47651 70.9018L8.23954 69.9575ZM11.1691 74.0272C10.8725 73.7125 10.5866 73.3876 10.3119 73.0532L8.76655 74.3229C9.09389 74.7213 9.43562 75.1075 9.79094 75.4805C10.0977 75.8026 10.4146 76.115 10.7411 76.4171C11.0449 76.6982 11.357 76.9705 11.6771 77.2335L12.9468 75.6881C12.5861 75.3918 12.2365 75.0824 11.8988 74.7608C11.649 74.5229 11.4056 74.2782 11.1691 74.0272ZM19.4823 79.1867C18.2812 78.8228 17.1303 78.3431 16.0425 77.7605L15.0982 79.5235C16.3009 80.1676 17.5737 80.6982 18.9024 81.1008L19.4823 79.1867ZM24.2494 79.9855C23.8752 79.9709 23.5039 79.9456 23.1358 79.9098L22.942 81.9004C23.3654 81.9416 23.7923 81.9702 24.2224 81.9859C24.4805 81.9953 24.7397 82 25 82H26.95V80H25C24.7486 80 24.4983 79.9951 24.2494 79.9855ZM30.85 80H34.75V82H30.85V80ZM38.65 82V80H42.55V82H38.65ZM46.45 82V80H50.35V82H46.45ZM54.25 82V80H58.15V82H54.25ZM62.05 82V80H65.95V82H62.05ZM69.85 82V80H73.75V82H69.85ZM77.65 82V80H81.55V82H77.65ZM85.45 82V80H89.35V82H85.45ZM93.25 82V80H97.15V82H93.25ZM101.05 82V80H104.95V82H101.05ZM108.85 82V80H112.75V82H108.85ZM116.65 82V80H120.55V82H116.65ZM124.45 82V80H128.35V82H124.45ZM132.25 82V80H136.15V82H132.25ZM140.05 82V80H142V81V82H140.05Z" fill="#A4A2A2"/>
</g>
<path d="M145 81L138.25 87.0622L138.25 74.9378L145 81Z" fill="#395AFF"/>
<defs>
<filter id="filter0_d_598_9" x="0" y="0" width="146" height="90" filterUnits="userSpaceOnUse" color-interpolation-filters="sRGB">
<feFlood flood-opacity="0" result="BackgroundImageFix"/>
<feColorMatrix in="SourceAlpha" type="matrix" values="0 0 0 0 0 0 0 0 0 0 0 0 0 0 0 0 0 0 127 0" result="hardAlpha"/>
<feOffset dy="4"/>
<feGaussianBlur stdDeviation="2"/>
<feComposite in2="hardAlpha" operator="out"/>
<feColorMatrix type="matrix" values="0 0 0 0 0 0 0 0 0 0 0 0 0 0 0 0 0 0 0.25 0"/>
<feBlend mode="normal" in2="BackgroundImageFix" result="effect1_dropShadow_598_9"/>
<feBlend mode="normal" in="SourceGraphic" in2="effect1_dropShadow_598_9" result="shape"/>
</filter>
</defs>
</svg>
