<svg width="48" height="48" viewBox="0 0 48 48" fill="none" xmlns="http://www.w3.org/2000/svg">
<circle cx="24" cy="24" r="24" fill="#0706FF"/>
<path d="M25.0333 14.7592V15.0187L25.29 15.0561C27.2123 15.3359 28.6999 17.0169 28.6999 19.0476C28.6999 19.9112 28.0097 20.6048 27.1666 20.6048C26.3234 20.6048 25.6333 19.9112 25.6333 19.0476C25.6333 18.5443 25.2284 18.1286 24.7221 18.1286H22.2777C21.7714 18.1286 21.3666 18.5443 21.3666 19.0476V20.6126C21.3666 20.9602 21.5584 21.2765 21.8688 21.4338L21.8689 21.4339L26.4997 23.7793C27.8561 24.4663 28.7 25.8472 28.7 27.3876V28.9524C28.7 30.9831 27.2124 32.6641 25.2902 32.9439L25.0334 32.9813V33.2408V35.1429C25.0334 36.0065 24.3432 36.7 23.5001 36.7C22.6569 36.7 21.9667 36.0065 21.9667 35.1429V33.2408V32.9813L21.71 32.9439C19.7877 32.6641 18.3001 30.9831 18.3001 28.9524C18.3001 28.0888 18.9903 27.3952 19.8334 27.3952C20.6766 27.3952 21.3667 28.0888 21.3667 28.9524C21.3667 29.4557 21.7716 29.8714 22.2779 29.8714H24.7223C25.2286 29.8714 25.6334 29.4557 25.6334 28.9524V27.3874C25.6334 27.0398 25.4416 26.7235 25.1312 26.5662L25.1311 26.5661L20.5003 24.2207C19.1439 23.5337 18.3 22.1528 18.3 20.6124V19.0476C18.3 17.0169 19.7876 15.3359 21.7098 15.0561L21.9666 15.0187V14.7592V12.8571C21.9666 11.9935 22.6568 11.3 23.4999 11.3C24.3431 11.3 25.0333 11.9935 25.0333 12.8571V14.7592Z" fill="white" stroke="#0706FF" stroke-width="0.6"/>
</svg>
