<svg width="48" height="48" viewBox="0 0 48 48" fill="none" xmlns="http://www.w3.org/2000/svg">
<g clip-path="url(#clip0_2036_1632)">
<path d="M43.7812 0.09375H4.21875C1.89253 0.09375 0 1.98628 0 4.3125V38.0625C0 40.3887 1.89253 42.2812 4.21875 42.2812H15.1073C16.69 45.604 20.0811 47.9062 24 47.9062C27.9189 47.9062 31.31 45.604 32.8927 42.2812H43.7812C46.1075 42.2812 48 40.3887 48 38.0625V4.3125C48 1.98628 46.1075 0.09375 43.7812 0.09375ZM4.21875 2.90625H43.7812C44.5567 2.90625 45.1875 3.53709 45.1875 4.3125V11.3438H2.8125V4.3125C2.8125 3.53709 3.44334 2.90625 4.21875 2.90625ZM24 45.0938C20.123 45.0938 16.9688 41.9395 16.9688 38.0625C16.9688 34.1855 20.123 31.0312 24 31.0312C27.877 31.0312 31.0312 34.1855 31.0312 38.0625C31.0312 41.9395 27.877 45.0938 24 45.0938ZM43.7812 39.4688H33.7429C34.5947 33.5396 29.9868 28.2188 24 28.2188C18.0304 28.2188 13.4027 33.5215 14.2571 39.4688H4.21875C3.44334 39.4688 2.8125 38.8379 2.8125 38.0625V14.1562H45.1875V38.0625C45.1875 38.8379 44.5567 39.4688 43.7812 39.4688Z" fill="#1D1D1B"/>
<path d="M15.9039 17.0113C15.1503 16.823 14.3869 17.281 14.1986 18.0345L13.5633 20.5755L12.5142 19.0018C12.2533 18.6106 11.8142 18.3755 11.3441 18.3755C10.8739 18.3755 10.4348 18.6106 10.174 19.0018L9.12481 20.5755L8.48956 18.0345C8.30122 17.281 7.53753 16.8223 6.78425 17.0113C6.03078 17.1996 5.57272 17.9631 5.76106 18.7165L7.16731 24.3415C7.30231 24.8816 7.74312 25.2911 8.29156 25.3862C8.84009 25.4807 9.39284 25.2436 9.70165 24.7805L11.3441 22.317L12.9865 24.7805C13.2501 25.176 13.6916 25.4069 14.1564 25.4069C14.7999 25.4069 15.364 24.9693 15.5209 24.3416L16.9271 18.7166C17.1155 17.9632 16.6573 17.1996 15.9039 17.0113Z" fill="#1D1D1B"/>
<path d="M28.5601 17.0113C27.8066 16.823 27.0432 17.281 26.8548 18.0345L26.2196 20.5755L25.1704 19.0018C24.6141 18.1673 23.3862 18.168 22.8302 19.0018L21.7811 20.5755L21.1458 18.0345C20.9574 17.281 20.194 16.8223 19.4405 17.0113C18.687 17.1996 18.229 17.9631 18.4173 18.7165L19.8236 24.3415C19.9586 24.8816 20.3994 25.2911 20.9478 25.3862C21.4963 25.4807 22.0492 25.2436 22.3579 24.7805L24.0003 22.317L25.6427 24.7805C25.9064 25.176 26.3478 25.4069 26.8126 25.4069C27.4561 25.4069 28.0202 24.9693 28.1772 24.3416L29.5834 18.7166C29.7718 17.9632 29.3136 17.1996 28.5601 17.0113Z" fill="#1D1D1B"/>
<path d="M41.2164 17.0113C40.4628 16.823 39.6994 17.281 39.5111 18.0345L38.8758 20.5755L37.8267 19.0018C37.2703 18.1673 36.0424 18.168 35.4865 19.0018L34.4373 20.5755L33.8021 18.0345C33.6137 17.281 32.8501 16.8223 32.0968 17.0113C31.3433 17.1996 30.8852 17.9631 31.0736 18.7165L32.4798 24.3415C32.6148 24.8816 33.0556 25.2911 33.6041 25.3861C34.1524 25.4806 34.7054 25.2436 35.0142 24.7805L36.6566 22.317L38.299 24.7805C38.6046 25.239 39.1541 25.4818 39.7091 25.3861C40.2575 25.2911 40.6983 24.8816 40.8333 24.3415L42.2396 18.7165C42.428 17.9632 41.9699 17.1996 41.2164 17.0113Z" fill="#1D1D1B"/>
<path d="M26.3807 35.6624L22.875 39.168L21.5256 37.8186C20.9765 37.2695 20.0861 37.2695 19.5369 37.8186C18.9877 38.3676 18.9877 39.2581 19.5369 39.8073L21.8806 42.151C22.4298 42.7002 23.3202 42.7002 23.8693 42.151L28.3693 37.651C28.9185 37.1019 28.9185 36.2115 28.3693 35.6623C27.8202 35.1132 26.9298 35.1132 26.3807 35.6624Z" fill="#0706FF"/>
<path d="M7.125 8.53125C7.90165 8.53125 8.53125 7.90165 8.53125 7.125C8.53125 6.34835 7.90165 5.71875 7.125 5.71875C6.34835 5.71875 5.71875 6.34835 5.71875 7.125C5.71875 7.90165 6.34835 8.53125 7.125 8.53125Z" fill="#1D1D1B"/>
<path d="M12.75 8.53125C13.5267 8.53125 14.1562 7.90165 14.1562 7.125C14.1562 6.34835 13.5267 5.71875 12.75 5.71875C11.9733 5.71875 11.3438 6.34835 11.3438 7.125C11.3438 7.90165 11.9733 8.53125 12.75 8.53125Z" fill="#1D1D1B"/>
<path d="M18.375 8.53125C19.1517 8.53125 19.7812 7.90165 19.7812 7.125C19.7812 6.34835 19.1517 5.71875 18.375 5.71875C17.5983 5.71875 16.9688 6.34835 16.9688 7.125C16.9688 7.90165 17.5983 8.53125 18.375 8.53125Z" fill="#1D1D1B"/>
</g>
<defs>
<clipPath id="clip0_2036_1632">
<rect width="48" height="48" fill="white"/>
</clipPath>
</defs>
</svg>
