<svg width="48" height="48" viewBox="0 0 48 48" fill="none" xmlns="http://www.w3.org/2000/svg">
<g clip-path="url(#clip0_2036_1587)">
<path d="M46.7242 12.8495C46.0042 12.8495 45.4319 12.2679 45.4319 11.5572V2.631H36.515C35.795 2.631 35.2227 2.04946 35.2227 1.33869C35.2227 0.627925 35.8042 0.0463867 36.515 0.0463867H48.0257V11.5572C48.0165 12.2679 47.435 12.8495 46.7242 12.8495Z" fill="#1A1A1A" stroke="#1A1A1A" stroke-width="0.8"/>
<path d="M1.2259 12.8495C0.505902 12.8495 -0.0664062 12.2679 -0.0664062 11.5572V0.0463867H11.4444C12.1644 0.0463867 12.7367 0.627925 12.7367 1.33869C12.7367 2.04946 12.1551 2.631 11.4444 2.631H2.52744V11.5479C2.52744 12.2679 1.9459 12.8495 1.2259 12.8495Z" fill="#1A1A1A" stroke="#1A1A1A" stroke-width="0.8"/>
<path d="M11.4351 47.954H-0.0664062V36.4525C-0.0664062 35.7325 0.515132 35.1602 1.2259 35.1602C1.93667 35.1602 2.51821 35.7417 2.51821 36.4525V45.3694H11.4351C12.1551 45.3694 12.7274 45.9509 12.7274 46.6617C12.7367 47.3817 12.1551 47.954 11.4351 47.954Z" fill="#1A1A1A" stroke="#1A1A1A" stroke-width="0.8"/>
<path d="M48.0165 47.954H36.515C35.795 47.954 35.2227 47.3725 35.2227 46.6617C35.2227 45.9417 35.8042 45.3694 36.515 45.3694H45.4319V36.4525C45.4319 35.7325 46.0134 35.1602 46.7242 35.1602C47.435 35.1602 48.0165 35.7417 48.0165 36.4525V47.954Z" fill="#1A1A1A" stroke="#1A1A1A" stroke-width="0.8"/>
<path d="M24.0231 11.4348C29.614 11.4348 34.9061 13.5486 38.9235 17.3776L43.5826 21.8217C44.1891 22.4022 44.5232 23.1732 44.5232 24.0048C44.5232 24.8365 44.1891 25.6161 43.5826 26.1879L38.9235 30.632C34.9061 34.4611 29.614 36.5748 24.0231 36.5748C18.4761 36.5748 13.2104 34.4957 9.20181 30.71L4.41962 26.2052C3.81305 25.6161 3.47021 24.8365 3.47021 23.9962C3.47021 23.1558 3.80426 22.3762 4.41962 21.7958L9.20181 17.291C13.2104 13.5139 18.4761 11.4348 24.0231 11.4348ZM24.0231 9.00049C18.0717 9.00049 12.1203 11.1749 7.49639 15.5411L2.7142 20.0458C0.428599 22.2029 0.428599 25.7981 2.7142 27.9552L7.49639 32.4599C12.1203 36.8174 18.0717 39.0005 24.0231 39.0005C30.0184 39.0005 36.0137 36.7914 40.6465 32.3733L45.3056 27.9292C47.5648 25.7807 47.5648 22.2116 45.3056 20.0632L40.6465 15.619C36.0137 11.2096 30.0184 9.00049 24.0231 9.00049Z" fill="#1A1A1A" stroke="#1A1A1A" stroke-width="0.8"/>
<path d="M23.9969 16.5235C28.1323 16.5235 31.5015 19.8928 31.5015 24.0281C31.5015 28.1635 28.1323 31.5328 23.9969 31.5328C19.8615 31.5328 16.4923 28.1635 16.4923 24.0281C16.4923 19.8928 19.8615 16.5235 23.9969 16.5235ZM23.9969 13.9297C18.4215 13.9297 13.8984 18.4528 13.8984 24.0281C13.8984 29.6035 18.4215 34.1266 23.9969 34.1266C29.5723 34.1266 34.0954 29.6035 34.0954 24.0281C34.0954 18.4528 29.5723 13.9297 23.9969 13.9297Z" fill="#0706FF"/>
<path d="M23.9975 28.3847C26.4038 28.3847 28.3545 26.4341 28.3545 24.0278C28.3545 21.6216 26.4038 19.6709 23.9975 19.6709C21.5913 19.6709 19.6406 21.6216 19.6406 24.0278C19.6406 26.4341 21.5913 28.3847 23.9975 28.3847Z" fill="#1A1A1A"/>
</g>
<defs>
<clipPath id="clip0_2036_1587">
<rect width="48" height="48" fill="white"/>
</clipPath>
</defs>
</svg>
