<svg width="48" height="48" viewBox="0 0 48 48" fill="none" xmlns="http://www.w3.org/2000/svg">
<g clip-path="url(#clip0_2036_1616)">
<path d="M43.7812 0.09375H4.21875C1.89253 0.09375 0 1.98628 0 4.3125V43.6875C0 46.0137 1.89253 47.9062 4.21875 47.9062H43.7812C46.1075 47.9062 48 46.0137 48 43.6875V4.3125C48 1.98628 46.1075 0.09375 43.7812 0.09375ZM4.21875 2.90625H43.7812C44.5567 2.90625 45.1875 3.53709 45.1875 4.3125V11.3438H2.8125V4.3125C2.8125 3.53709 3.44334 2.90625 4.21875 2.90625ZM43.7812 45.0938H4.21875C3.44334 45.0938 2.8125 44.4629 2.8125 43.6875V14.1562H45.1875V43.6875C45.1875 44.4629 44.5567 45.0938 43.7812 45.0938Z" fill="#1D1D1B"/>
<path d="M40.875 16.9688H29.625C28.8484 16.9688 28.2188 17.5984 28.2188 18.375V24C28.2188 24.7766 28.8484 25.4062 29.625 25.4062H40.875C41.6516 25.4062 42.2812 24.7766 42.2812 24V18.375C42.2812 17.5984 41.6516 16.9688 40.875 16.9688ZM39.4688 22.5938H31.0312V19.7812H39.4688V22.5938Z" fill="#1D1D1B"/>
<path d="M40.875 28.2188H29.625C28.8484 28.2188 28.2188 28.8484 28.2188 29.625C28.2188 30.4016 28.8484 31.0312 29.625 31.0312H40.875C41.6516 31.0312 42.2812 30.4016 42.2812 29.625C42.2812 28.8484 41.6516 28.2188 40.875 28.2188Z" fill="#1D1D1B"/>
<path d="M40.875 33.8438H29.625C28.8484 33.8438 28.2188 34.4734 28.2188 35.25C28.2188 36.0266 28.8484 36.6562 29.625 36.6562H40.875C41.6516 36.6562 42.2812 36.0266 42.2812 35.25C42.2812 34.4734 41.6516 33.8438 40.875 33.8438Z" fill="#1D1D1B"/>
<path d="M40.875 39.4688H29.625C28.8484 39.4688 28.2188 40.0984 28.2188 40.875C28.2188 41.6516 28.8484 42.2812 29.625 42.2812H40.875C41.6516 42.2812 42.2812 41.6516 42.2812 40.875C42.2812 40.0984 41.6516 39.4688 40.875 39.4688Z" fill="#1D1D1B"/>
<path d="M24 16.875H7.03125C6.25462 16.875 5.625 17.5046 5.625 18.2812C5.625 19.0579 6.25462 19.6875 7.03125 19.6875H24C24.7766 19.6875 25.4062 19.0579 25.4062 18.2812C25.4062 17.5046 24.7766 16.875 24 16.875Z" fill="#1D1D1B"/>
<path d="M23.9999 39.4672H8.53116V35.9516L12.7977 32.7517L16.1887 35.0123C16.6982 35.3519 17.3689 35.3229 17.8472 34.9403L24.8784 29.3153C25.4849 28.8301 25.5833 27.9452 25.098 27.3388C24.6129 26.7325 23.728 26.6339 23.1215 27.1192L16.8932 32.1018L13.53 29.8597C13.034 29.5289 12.3832 29.5471 11.9063 29.9048L8.53125 32.436V23.9985C8.53125 23.2219 7.90163 22.5923 7.125 22.5923C6.34838 22.5923 5.71875 23.2219 5.71875 23.9985V40.8735C5.71875 41.6502 6.34838 42.2798 7.125 42.2798H24C24.7766 42.2798 25.4063 41.6502 25.4063 40.8735C25.4063 40.0969 24.7765 39.4672 23.9999 39.4672Z" fill="#0706FF"/>
<path d="M7.125 8.53125C7.90165 8.53125 8.53125 7.90165 8.53125 7.125C8.53125 6.34835 7.90165 5.71875 7.125 5.71875C6.34835 5.71875 5.71875 6.34835 5.71875 7.125C5.71875 7.90165 6.34835 8.53125 7.125 8.53125Z" fill="#1D1D1B"/>
<path d="M12.75 8.53125C13.5267 8.53125 14.1562 7.90165 14.1562 7.125C14.1562 6.34835 13.5267 5.71875 12.75 5.71875C11.9733 5.71875 11.3438 6.34835 11.3438 7.125C11.3438 7.90165 11.9733 8.53125 12.75 8.53125Z" fill="#1D1D1B"/>
<path d="M18.375 8.53125C19.1517 8.53125 19.7812 7.90165 19.7812 7.125C19.7812 6.34835 19.1517 5.71875 18.375 5.71875C17.5983 5.71875 16.9688 6.34835 16.9688 7.125C16.9688 7.90165 17.5983 8.53125 18.375 8.53125Z" fill="#1D1D1B"/>
</g>
<defs>
<clipPath id="clip0_2036_1616">
<rect width="48" height="48" fill="white"/>
</clipPath>
</defs>
</svg>
