<svg width="48" height="48" viewBox="0 0 48 48" fill="none" xmlns="http://www.w3.org/2000/svg">
<g clip-path="url(#clip0_2036_1609)">
<path d="M32.5508 19.7998C32.5508 26.8414 26.8424 32.5498 19.8008 32.5498C12.7592 32.5498 7.05078 26.8414 7.05078 19.7998C7.05078 12.7582 12.7592 7.0498 19.8008 7.0498C26.8424 7.0498 32.5508 12.7582 32.5508 19.7998Z" stroke="#0706FF" stroke-width="2.5"/>
<path d="M46.7581 40.7987L39.0569 33.1288C38.5075 32.5816 37.6187 32.5824 37.0703 33.1308L36.0938 34.1073L34.7205 32.7339C37.7348 29.2612 39.5616 24.731 39.5616 19.7821C39.5617 8.87419 30.688 0 19.7809 0C8.87372 0 0 8.87419 0 19.7821C0 30.69 8.87363 39.5642 19.7809 39.5642C24.7295 39.5642 29.2594 37.7374 32.732 34.7228L34.1052 36.0961L33.1129 37.0884C32.5642 37.6372 32.5637 38.5282 33.1129 39.0773L40.8023 46.7672C42.4461 48.4109 45.1206 48.411 46.7643 46.7672C48.4142 45.1172 48.4117 42.4457 46.7581 40.7987ZM2.81241 19.7821C2.81241 10.4251 10.4244 2.81259 19.7808 2.81259C29.1371 2.81259 36.7492 10.4251 36.7492 19.7821C36.7492 29.1391 29.1371 36.7516 19.7808 36.7516C10.4244 36.7516 2.81241 29.1391 2.81241 19.7821ZM44.7756 44.7783C44.2284 45.3255 43.3382 45.3255 42.791 44.7783L36.0958 38.0827L38.0666 36.1119L44.7735 42.7914C45.3237 43.3398 45.3249 44.229 44.7756 44.7783Z" fill="#1A1A1A"/>
</g>
<defs>
<clipPath id="clip0_2036_1609">
<rect width="48" height="48" fill="white"/>
</clipPath>
</defs>
</svg>
