<svg width="48" height="48" viewBox="0 0 48 48" fill="none" xmlns="http://www.w3.org/2000/svg">
<g clip-path="url(#clip0_2036_1645)">
<path d="M42.2812 19.5338C42.2812 19.3977 42.2689 18.2689 42.2689 18.2689C42.2689 8.19544 34.0734 0 24 0C13.9266 0 5.73112 8.19544 5.73112 18.2689C5.73112 18.2689 5.71875 19.3976 5.71875 19.5338C2.43834 20.1536 0 23.0303 0 26.442C0 29.8525 2.43731 32.7301 5.71875 33.3503V33.4733C5.71875 34.25 6.34837 34.8796 7.125 34.8796H10.9688C12.778 34.8796 14.25 33.4076 14.25 31.5983V21.2858C14.25 19.4766 12.778 18.0046 10.9688 18.0046H8.547C8.589 15.5142 9.22284 13.1656 10.3138 11.0933L12.3253 13.1047C12.6287 13.408 13.0446 13.5483 13.4488 13.5106L14.8838 13.3783C15.2985 13.3401 15.6749 13.1199 15.9117 12.7773C17.749 10.1178 20.7727 8.52994 24 8.52994C27.2164 8.52994 30.234 10.1092 32.0723 12.7542C32.3095 13.0957 32.6857 13.3146 33.0998 13.3522L34.5335 13.4824C34.9483 13.5196 35.3599 13.3713 35.655 13.0763L37.6695 11.0617C38.7707 13.1419 39.4108 15.5017 39.453 18.0047H37.125C35.3157 18.0047 33.8438 19.4767 33.8438 21.2859V31.5984C33.8438 33.2485 35.0683 34.6175 36.6562 34.8457V38.1562C36.6562 40.4825 34.7637 42.375 32.4375 42.375H29.625V40.9688C29.625 40.1921 28.9954 39.5625 28.2188 39.5625H19.7812C19.0046 39.5625 18.375 40.1921 18.375 40.9688V46.5938C18.375 47.3704 19.0046 48 19.7812 48H28.2188C28.9954 48 29.625 47.3704 29.625 46.5938V45.1875H32.4375C36.3145 45.1875 39.4688 42.0333 39.4688 38.1562V34.8795H40.875C41.6516 34.8795 42.2812 34.2499 42.2812 33.4733V33.3502C45.5617 32.7303 48 29.8537 48 26.4419C48 23.0315 45.5627 20.1539 42.2812 19.5338ZM26.8125 45.1875H21.1875V42.375H26.8125V45.1875ZM2.8125 26.442C2.8125 24.5685 4.01119 22.9796 5.71875 22.4295V30.4544C4.01119 29.9044 2.8125 28.3155 2.8125 26.442ZM11.4375 21.2858V31.5983C11.4375 31.8567 11.2272 32.067 10.9688 32.067H8.53125V20.817H10.9688C11.2272 20.817 11.4375 21.0273 11.4375 21.2858ZM34.1319 10.6216L33.9844 10.6082C28.9114 4.07616 19.0409 4.09941 13.9943 10.6357L13.8475 10.6493L11.8827 8.68463C18.0767 0.870188 29.8796 0.850968 36.0957 8.65791L34.1319 10.6216ZM39.4688 32.067H37.125C36.8665 32.067 36.6562 31.8567 36.6562 31.5983V21.2858C36.6562 21.0273 36.8665 20.817 37.125 20.817H39.4688V32.067ZM42.2812 30.4544V22.4295C43.9888 22.9796 45.1875 24.5685 45.1875 26.442C45.1875 28.3155 43.9888 29.9044 42.2812 30.4544Z" fill="#1D1D1B"/>
<path d="M22.5938 31.0313V35.25C22.5938 35.8188 22.9363 36.3315 23.4619 36.5492C23.9849 36.7659 24.5906 36.6482 24.9944 36.2443L30.6194 30.6193C30.8831 30.3557 31.0312 29.998 31.0312 29.625V21.1875C31.0312 20.4109 30.4016 19.7812 29.625 19.7812H18.375C17.5984 19.7812 16.9688 20.4109 16.9688 21.1875V29.625C16.9688 30.4016 17.5984 31.0313 18.375 31.0313H22.5938ZM19.7812 22.5938H28.2188V29.0425L25.4062 31.855V29.625C25.4062 28.8484 24.7766 28.2188 24 28.2188H19.7812V22.5938Z" fill="#0706FF"/>
</g>
<defs>
<clipPath id="clip0_2036_1645">
<rect width="48" height="48" fill="white"/>
</clipPath>
</defs>
</svg>
