<svg width="800" height="800" viewBox="0 0 800 800" fill="none" xmlns="http://www.w3.org/2000/svg">
<g clip-path="url(#clip0_19_103)">
<path d="M177.813 0H620.937C642.5 0 663.437 3.4375 683.75 10.625C713.125 21.25 739.687 40 759.687 64.375C780 88.75 793.437 118.75 798.125 150C800 161.563 800.312 173.125 800.312 184.687V616.875C800.312 630.625 799.687 644.688 796.875 658.125C790.625 689.063 775.937 718.125 754.687 741.563C733.75 765 706.25 782.5 676.562 791.875C658.437 797.5 639.687 800 620.625 800C612.187 800 176.563 800 170 799.687C138.125 798.125 106.563 787.812 80 770C54.0625 752.5 32.8125 728.125 19.0625 700C7.18754 675.938 1.25004 649.063 1.25004 622.188V177.813C0.625039 151.25 6.25004 125 17.8125 101.25C31.25 73.125 52.1875 48.4375 78.125 30.9375C104.688 12.8125 135.938 2.1875 167.813 0.625C170.938 0 174.375 0 177.813 0Z" fill="url(#paint0_linear_19_103)"/>
<path d="M675 654.375C672.188 650 669.063 645.625 665.625 641.563C657.813 632.188 648.75 624.063 638.75 617.188C626.25 608.75 611.563 603.437 596.563 602.812C585.938 602.187 575.313 604.062 565.313 607.812C555.313 611.25 545.625 616.25 536.25 621.25C525.313 626.875 514.375 632.5 502.813 637.187C489.063 642.812 474.688 647.188 460 650.313C441.563 653.75 422.813 655 404.375 654.688C370.938 654.062 337.5 649.062 305.625 639.687C277.5 631.25 250.625 619.688 225.313 605C203.125 592.188 182.5 577.5 163.125 560.938C147.188 547.187 132.5 532.5 118.75 516.875C109.375 505.937 100.313 494.375 91.875 482.5C88.4375 477.812 85.3125 472.812 82.5 467.812L0 378.75V177.188C0 79.375 79.0625 0 176.875 0H334.688L451.563 118.75C715.313 298.125 630 495.937 630 495.937C630 495.937 705 580.312 675 654.375Z" fill="url(#paint1_linear_19_103)"/>
<path d="M452.188 118.75C715.938 298.125 630.625 495.937 630.625 495.937C630.625 495.937 705.625 580.625 675.313 654.688C675.313 654.688 644.375 602.812 592.5 602.812C542.5 602.812 513.125 654.688 412.5 654.688C188.438 654.688 82.5 467.5 82.5 467.5C284.375 600.313 422.188 506.25 422.188 506.25C331.25 453.438 137.813 200.938 137.813 200.938C306.25 344.375 379.063 382.188 379.063 382.188C335.625 346.25 213.75 170.625 213.75 170.625C311.25 269.375 505 407.188 505 407.188C560 254.688 452.188 118.75 452.188 118.75Z" fill="white"/>
</g>
<defs>
<linearGradient id="paint0_linear_19_103" x1="475.909" y1="-28.5469" x2="324.763" y2="828.644" gradientUnits="userSpaceOnUse">
<stop stop-color="#FAAE42"/>
<stop offset="1" stop-color="#EF3E31"/>
</linearGradient>
<linearGradient id="paint1_linear_19_103" x1="408.163" y1="12.925" x2="297.541" y2="640.291" gradientUnits="userSpaceOnUse">
<stop stop-color="#E39F3A"/>
<stop offset="1" stop-color="#D33929"/>
</linearGradient>
<clipPath id="clip0_19_103">
<rect width="800" height="800" fill="white"/>
</clipPath>
</defs>
</svg>
