<svg width="52" height="43" viewBox="0 0 52 43" fill="none" xmlns="http://www.w3.org/2000/svg">
<path d="M5.79959 36.7285C4.57013 36.7285 3.74283 37.7138 3.74283 38.9807C3.74283 40.2476 4.57013 41.2329 5.79959 41.2329C7.02906 41.2329 7.85638 40.2476 7.85638 38.9807C7.84487 37.7138 7.01755 36.7285 5.79959 36.7285ZM5.52383 35.3325C6.51198 35.3325 7.3393 35.8486 7.72995 36.4118V35.4733H9.24666V42.4998H8.07465C7.98332 42.4995 7.89583 42.4624 7.83122 42.3964C7.76668 42.3305 7.73021 42.2411 7.72995 42.1479V41.5613C7.3393 42.1245 6.52349 42.6406 5.52383 42.6406C3.63941 42.6406 2.20312 40.9983 2.20312 38.9924C2.20312 36.9865 3.62792 35.3325 5.52383 35.3325ZM10.9703 35.4733H12.487V36.4234C12.9006 35.7196 13.6819 35.3325 14.5782 35.3325C16.1753 35.3325 17.2095 36.4821 17.2095 38.2651V42.4998H16.049C15.9577 42.4995 15.8701 42.4624 15.8055 42.3964C15.7409 42.3305 15.7045 42.2411 15.7043 42.1479V38.5232C15.7043 37.4088 15.1527 36.7402 14.268 36.7402C13.2683 36.7402 12.487 37.5379 12.487 39.0393V42.4998H11.3265C11.2351 42.4995 11.1476 42.4624 11.083 42.3964C11.0184 42.3305 10.982 42.2411 10.9817 42.1479L10.9703 35.4733ZM21.9895 36.7285C20.76 36.7285 19.9327 37.7138 19.9327 38.9807C19.9327 40.2476 20.76 41.2329 21.9895 41.2329C23.2189 41.2329 24.0463 40.2476 24.0463 38.9807C24.0463 37.7138 23.2189 36.7285 21.9895 36.7285ZM21.7137 35.3325C22.7019 35.3325 23.5292 35.8486 23.9198 36.4118V31.9542H25.4365V42.4998H24.276C24.1847 42.4995 24.0971 42.4624 24.0326 42.3964C23.968 42.3305 23.9316 42.2411 23.9313 42.1479V41.5613C23.5407 42.1245 22.7249 42.6406 21.7252 42.6406C19.8407 42.6406 18.4044 40.9983 18.4044 38.9924C18.4044 36.9865 19.8292 35.3325 21.7137 35.3325ZM27.1601 35.4733H28.6768V36.7285C28.81 36.3443 29.0556 36.0112 29.3803 35.7741C29.705 35.537 30.0931 35.4074 30.4923 35.4029C30.6892 35.3991 30.8859 35.4188 31.0783 35.4616V37.0451C30.8338 36.9615 30.5778 36.918 30.3199 36.9161C29.4582 36.9161 28.6653 37.6669 28.6653 39.0628V42.4881H27.5048C27.4134 42.4878 27.326 42.4506 27.2613 42.3847C27.1968 42.3188 27.1604 42.2294 27.1601 42.1361V35.4733ZM35.1573 41.1977C36.3639 41.1977 37.2257 40.2241 37.2257 38.9807C37.2257 37.7255 36.3753 36.7637 35.1573 36.7637C33.9279 36.7637 33.0776 37.7373 33.0776 38.9807C33.0891 40.2358 33.9279 41.1977 35.1573 41.1977ZM35.1573 42.6406C34.4504 42.6348 33.761 42.4154 33.176 42.0102C32.5911 41.6049 32.1367 41.0319 31.8704 40.3633C31.6041 39.6948 31.5376 38.9606 31.6794 38.2536C31.8212 37.5465 32.1649 36.8982 32.6672 36.3903C33.1695 35.8824 33.8078 35.5378 34.5018 35.3998C35.1956 35.2618 35.9141 35.3368 36.5664 35.6151C37.2186 35.8934 37.7756 36.3627 38.1669 36.9637C38.5582 37.5648 38.7665 38.2707 38.7653 38.9924C38.7677 39.4752 38.6757 39.9536 38.4948 40.3995C38.3139 40.8455 38.0477 41.2503 37.7117 41.5899C37.3758 41.9296 36.9768 42.1975 36.5382 42.3779C36.0996 42.5584 35.6302 42.6476 35.1573 42.6406ZM39.9948 35.4733H41.5115V42.4998H40.351C40.2597 42.4995 40.1722 42.4624 40.1076 42.3964C40.0429 42.3305 40.0065 42.2411 40.0063 42.1479L39.9948 35.4733ZM40.7531 33.9366C40.4827 33.934 40.2241 33.8232 40.0329 33.628C39.8416 33.4327 39.7331 33.1687 39.7305 32.8926C39.736 32.6196 39.8461 32.3597 40.0374 32.1688C40.2286 31.978 40.4857 31.8714 40.7531 31.8721C41.0213 31.8721 41.2785 31.9808 41.4681 32.1744C41.6577 32.368 41.7643 32.6305 41.7643 32.9043C41.7643 33.1781 41.6577 33.4407 41.4681 33.6343C41.2785 33.8278 41.0213 33.9366 40.7531 33.9366ZM46.3489 36.7285C45.1194 36.7285 44.2922 37.7138 44.2922 38.9807C44.2922 40.2476 45.1194 41.2329 46.3489 41.2329C47.5784 41.2329 48.4057 40.2476 48.4057 38.9807C48.3827 37.7138 47.5784 36.7285 46.3489 36.7285ZM46.0732 35.3325C47.0613 35.3325 47.8886 35.8486 48.2793 36.4118V31.9542H49.7961V42.4998H48.6355C48.5442 42.4995 48.4567 42.4624 48.3921 42.3964C48.3275 42.3305 48.2911 42.2411 48.2908 42.1479V41.5613C47.9001 42.1245 47.0843 42.6406 46.0846 42.6406C44.2002 42.6406 42.764 40.9983 42.764 38.9924C42.764 36.9865 44.1888 35.3325 46.0732 35.3325Z" fill="#1A1A1A"/>
<path d="M37.6623 8.37595L41.6264 1.37293C41.7327 1.18024 41.7604 0.952562 41.7035 0.739188C41.6466 0.525812 41.5096 0.343911 41.3223 0.232864C41.1349 0.121818 40.9123 0.0905628 40.7026 0.145866C40.4928 0.201168 40.3128 0.338578 40.2016 0.528347L36.1915 7.61349C32.9904 6.14435 29.5207 5.38473 26.0111 5.38473C22.5015 5.38473 19.0317 6.14435 15.8306 7.61349L11.8205 0.528347C11.7093 0.338578 11.5293 0.201168 11.3196 0.145866C11.1098 0.0905628 10.8872 0.121818 10.6999 0.232864C10.5125 0.343911 10.3756 0.525812 10.3186 0.739188C10.2618 0.952562 10.2894 1.18024 10.3957 1.37293L14.3599 8.37595C7.52312 12.1532 2.88106 19.1796 2.20312 27.4731H49.7731C49.0951 19.1796 44.4416 12.1532 37.6623 8.37595ZM15.0493 20.5521C14.6584 20.5521 14.2763 20.4338 13.9513 20.2121C13.6263 19.9904 13.373 19.6753 13.2234 19.3066C13.0738 18.938 13.0347 18.5322 13.1109 18.1409C13.1872 17.7495 13.3754 17.39 13.6518 17.1078C13.9282 16.8256 14.2804 16.6335 14.6638 16.5556C15.0471 16.4778 15.4445 16.5177 15.8056 16.6704C16.1668 16.8231 16.4754 17.0818 16.6925 17.4136C16.9097 17.7454 17.0257 18.1354 17.0257 18.5345C17.0257 19.0696 16.8174 19.5828 16.4468 19.9612C16.0761 20.3396 15.5734 20.5521 15.0493 20.5521ZM36.9499 20.5521C36.5589 20.5521 36.1769 20.4338 35.8519 20.2121C35.5269 19.9904 35.2736 19.6753 35.1239 19.3066C34.9744 18.938 34.9352 18.5322 35.0115 18.1409C35.0877 17.7495 35.276 17.39 35.5524 17.1078C35.8288 16.8256 36.1809 16.6335 36.5643 16.5556C36.9476 16.4778 37.3451 16.5177 37.7062 16.6704C38.0673 16.8231 38.376 17.0818 38.5931 17.4136C38.8103 17.7454 38.9262 18.1354 38.9262 18.5345C38.9262 19.0696 38.718 19.5828 38.3474 19.9612C37.9767 20.3396 37.474 20.5521 36.9499 20.5521Z" fill="#3DDC84"/>
</svg>
