<svg width="123" height="35" viewBox="0 0 123 35" fill="none" xmlns="http://www.w3.org/2000/svg">
<path fill-rule="evenodd" clip-rule="evenodd" d="M111.678 11.5602C108.748 12.0781 107.164 14.7995 108.07 17.7559C108.31 18.5389 108.571 19.0052 109.041 19.4891C109.893 20.3684 110.247 20.5316 112.707 21.1792C113.858 21.4824 115.065 21.9034 115.388 22.1149C116.88 23.0895 117.059 25.5344 115.726 26.7355C115.135 27.2686 114.407 27.4991 113.318 27.498C112.123 27.4969 111.446 27.2874 110.719 26.6928C110.093 26.1809 109.441 24.7983 109.363 24.3295C109.349 24.2514 109.304 24.0431 109.304 23.9516C109.126 23.9389 108.338 23.9389 108.338 23.9389L107.596 23.9516L107.697 24.6705C107.853 25.7819 108.637 27.2322 109.496 27.9966C110.539 28.925 111.455 29.2192 113.302 29.2192C115.763 29.2192 117.114 28.5097 117.976 26.7653C118.54 25.6234 118.589 23.765 118.086 22.6552C117.34 21.0094 116.44 20.4039 113.596 19.6325C111.016 18.9324 110.409 18.6067 109.915 17.6552C108.987 15.8688 109.94 13.7419 111.875 13.282C114.042 12.7669 115.913 13.842 116.407 16.2489C116.407 16.2489 116.623 16.2489 117.26 16.2489H118.074L117.991 15.6345C117.891 14.8969 117.36 13.8036 116.74 13.058C115.778 11.9019 113.522 11.2341 111.678 11.5602ZM40.4862 20.3505L40.5298 29.0952H45.3394H50.2249V28.2042V27.3427H46.2038H42.1826V24.2177V21.0927H45.8095H49.4365V20.2333V19.3739H45.8095H42.1826V16.4078V13.4417L46.1643 13.4L50.1611 13.3676V12.5864V11.7177H45.3434H40.4453L40.4862 20.3505ZM53.7323 20.3427L53.773 28.9833H54.5615H55.3499L55.4288 21.952L55.5076 14.9208L55.9491 15.6239C56.192 16.0106 58.1434 19.1747 60.2857 22.6552L64.1837 29.0952H65.051H65.8365V20.3977V11.7177H65.048H64.2595V18.6708C64.2595 22.495 64.1982 25.6239 64.1233 25.6239C64.0484 25.6239 63.3132 24.5164 62.4896 23.163C61.1147 20.9038 59.0986 17.6211 56.5161 13.4364L55.5458 11.7166H54.5996L53.7323 11.7073V20.3427ZM69.5015 20.3505L69.5422 28.9833H74.4307H79.3191L79.3668 28.163L79.4146 27.3427H75.3062H71.198V24.2177V21.0927H74.9038H78.6095V20.2333V19.3739H74.9038H71.198V16.4078V13.4417L75.2586 13.4L79.3191 13.3583V12.5005V11.7177H74.4376H69.4607L69.5015 20.3505ZM93.2899 11.8051C93.2899 11.8426 94.5877 14.0959 96.1922 16.8364L99.1095 21.8191V25.4484V29.0033L99.9071 28.9981L100.765 28.9833L100.844 25.3114L100.923 21.6395L102.522 18.9052C103.401 17.4013 104.696 15.1864 105.399 13.9833L106.678 11.7958L105.748 11.8051C105.275 11.8051 104.96 11.8049 104.801 11.8051C104.801 11.8051 104.748 11.8731 104.712 11.9224C104.623 12.0445 103.556 13.8738 102.342 15.9872C101.128 18.1005 100.066 19.81 99.9824 19.7859C99.8988 19.7619 98.7696 17.9367 97.473 15.7299L95.1822 11.8051H94.1572C93.651 11.8051 93.3687 11.8051 93.2899 11.8051Z" fill="#4E5054"/>
<path d="M85.7655 11.568C82.836 12.0859 81.2514 14.8074 82.1578 17.7637C82.3978 18.5467 82.6588 19.0129 83.1282 19.4969C83.981 20.3762 84.3347 20.5394 86.7941 21.187C87.9454 21.4901 89.1522 21.9112 89.4756 22.1226C90.9673 23.0973 91.1461 25.5422 89.8136 26.7433C89.2222 27.2764 88.4942 27.5069 87.4053 27.5058C86.2103 27.5047 85.5338 27.2951 84.8065 26.7006C84.1803 26.1887 83.5289 24.8061 83.4501 24.3373C83.4368 24.2592 83.3911 24.0511 83.3911 23.9594C83.2135 23.9467 82.4251 23.9467 82.4251 23.9467L81.6836 23.9594L81.7844 24.6783C81.9402 25.7897 82.7248 27.24 83.5836 28.0044C84.6269 28.9328 85.5425 29.227 87.3894 29.227C89.8505 29.227 91.2019 28.5175 92.0632 26.7731C92.6271 25.6312 92.677 23.7728 92.1736 22.6629C91.4271 21.0172 90.5278 20.4117 87.6838 19.6403C85.1033 18.9401 84.497 18.6145 84.0026 17.6629C83.0748 15.8765 84.028 13.7497 85.9626 13.2899C88.1294 12.7747 90.0004 13.8498 90.4945 16.2567H91.3475H92.1616L92.0785 15.6423C91.9787 14.9047 91.4479 13.8114 90.8275 13.0658C89.8659 11.9097 87.6092 11.2419 85.7655 11.568Z" fill="#4E5054"/>
<path d="M29.1761 11.7267C27.4177 12.2919 26.1085 13.5998 25.5172 15.3823C25.1286 16.5538 25.0296 23.0864 25.3779 24.5744C25.8467 26.5775 26.8434 27.8628 28.5551 28.6723C29.7796 29.2513 31.6419 29.3861 32.9028 28.9867C34.6263 28.4411 35.7385 27.4364 36.5394 25.7019C36.8582 25.0111 36.9063 24.6264 36.9546 22.3816L37.009 19.8425H34.0781H31.1472V20.6973V21.5522L33.2367 21.5958L35.3261 21.6394L35.3767 22.2536C35.4463 23.0958 35.1337 24.7702 34.78 25.4516C33.9157 27.1159 31.7285 27.918 29.6976 27.315C28.8659 27.0681 27.7993 26.1091 27.3421 25.1972C26.9772 24.4695 26.9684 24.3538 26.9689 20.3113C26.9693 15.7425 26.9943 15.6034 28.0175 14.4484C28.8555 13.5028 29.6039 13.2056 31.1472 13.2056C32.217 13.2056 32.6149 13.2733 33.1184 13.5409C34.0185 14.0195 34.5785 14.6639 35.0115 15.7195L35.3887 16.6394H36.1459H36.903L36.8226 16.0941C36.7437 15.3909 36.1732 14.0339 35.624 13.387C34.1442 11.6445 31.5276 10.9708 29.1761 11.7267Z" fill="#4E5054"/>
<path fill-rule="evenodd" clip-rule="evenodd" d="M13.5602 8.125C13.5602 6.74428 14.6898 5.625 16.0833 5.625C17.4768 5.625 18.6064 6.74428 18.6064 8.125C18.6064 9.50572 17.4768 10.625 16.0833 10.625C14.6898 10.625 13.5602 9.50572 13.5602 8.125ZM16.0833 7.03125C15.4737 7.03125 14.9794 7.52094 14.9794 8.125C14.9794 8.72906 15.4737 9.21875 16.0833 9.21875C16.6929 9.21875 17.1871 8.72906 17.1871 8.125C17.1871 7.52094 16.6929 7.03125 16.0833 7.03125ZM4.41406 15.625C4.41406 13.4676 6.1791 11.7188 8.35637 11.7188H14.6641C16.8413 11.7188 18.6064 13.4676 18.6064 15.625C18.6064 17.7823 16.8413 19.5313 14.6641 19.5313H8.35637C6.1791 19.5313 4.41406 17.7823 4.41406 15.625ZM8.35637 13.125C6.96291 13.125 5.83329 14.2443 5.83329 15.625C5.83329 17.0058 6.96291 18.125 8.35637 18.125H14.6641C16.0576 18.125 17.1871 17.0058 17.1871 15.625C17.1871 14.2443 16.0576 13.125 14.6641 13.125H8.35637ZM11.9833 21.0938C9.80602 21.0938 8.04099 22.8427 8.04099 25C8.04099 27.1573 9.80602 28.9063 11.9833 28.9063H14.6641C16.8413 28.9063 18.6064 27.1573 18.6064 25C18.6064 22.8427 16.8413 21.0938 14.6641 21.0938H11.9833ZM9.46022 25C9.46022 23.6192 10.5898 22.5 11.9833 22.5H14.6641C16.0576 22.5 17.1871 23.6192 17.1871 25C17.1871 26.3808 16.0576 27.5 14.6641 27.5H11.9833C10.5898 27.5 9.46022 26.3808 9.46022 25Z" fill="#FF4F1F"/>
</svg>
