<svg width="102" height="30" viewBox="0 0 102 30" fill="none" xmlns="http://www.w3.org/2000/svg">
<mask id="mask0_2036_2015" style="mask-type:luminance" maskUnits="userSpaceOnUse" x="3" y="4" width="21" height="22">
<path d="M23.2772 4.95508H3.26953V25.4461H23.2772V4.95508Z" fill="white"/>
</mask>
<g mask="url(#mask0_2036_2015)">
<path d="M23.2758 4.95508H13.3136L3.80078 15.2006H13.2544L13.2986 15.1545L23.2758 4.95508Z" fill="url(#paint0_linear_2036_2015)"/>
<path d="M13.2981 15.1543L13.2539 15.2004H13.3431L13.2981 15.1543Z" fill="url(#paint1_linear_2036_2015)"/>
<path d="M13.3151 4.95508H3.26953V15.7744V15.2006H3.80223L13.3151 4.95508Z" fill="url(#paint2_linear_2036_2015)"/>
<path d="M13.2559 15.2002H3.80223L3.26953 15.7739V25.4457L13.2559 15.2002Z" fill="url(#paint3_linear_2036_2015)"/>
<path d="M13.345 15.2002H13.2559L3.26953 25.4457H23.2772L13.345 15.2002Z" fill="url(#paint4_linear_2036_2015)"/>
<path d="M3.80223 15.2002H3.26953V15.7739L3.80223 15.2002Z" fill="url(#paint5_linear_2036_2015)"/>
</g>
<path fill-rule="evenodd" clip-rule="evenodd" d="M72.5779 14.7987V25.446H74.7356H76.8933V14.7987V4.15137H74.7356H72.5779V14.7987ZM78.4626 6.09333V8.0353H80.751H83.0395V6.09333V4.15137H80.751H78.4626V6.09333ZM29.8164 15.2005V25.446H31.9741H34.1318L34.1381 22.3322L34.1445 19.2183L35.3215 17.949C36.0317 17.183 36.5349 16.7377 36.5903 16.8264C36.6406 16.9073 38.0353 18.8796 39.6895 21.2096L42.6972 25.4457L45.2799 25.4459C46.7004 25.446 47.8626 25.4093 47.8626 25.3646C47.8626 25.3197 45.9941 22.6957 43.7106 19.5331C41.427 16.3706 39.5587 13.7275 39.5587 13.6596C39.5587 13.5919 41.3387 11.6381 43.5145 9.3182C45.6901 6.99829 47.4703 5.06744 47.4703 5.02753C47.4703 4.98762 46.3014 4.95494 44.8729 4.95494H42.2757L41.0479 6.32222C37.511 10.2611 34.3396 13.7323 34.242 13.7719C34.1814 13.7965 34.1318 11.8227 34.1318 9.3857V4.95494H31.9741H29.8164V15.2005ZM51.6831 9.77891C49.7001 10.311 48.085 11.4748 46.9784 13.1694C46.0449 14.599 45.7049 15.7847 45.7049 17.6112C45.7049 20.061 46.3369 21.6447 47.9783 23.3077C49.6527 25.0042 51.3935 25.7139 53.8806 25.7139C55.4631 25.7139 56.4052 25.5051 57.7356 24.8594C59.0016 24.2449 60.0176 23.3504 60.7865 22.1731C61.5721 20.9701 61.9073 20.095 62.1118 18.7137C62.7114 14.6626 60.15 10.8198 56.1521 9.77262C54.8343 9.42748 52.9831 9.43003 51.6831 9.77891ZM91.6993 9.76512C90.874 10.0781 89.876 10.804 89.3299 11.4885L88.9329 11.9862L88.9285 10.8813L88.9241 9.77637H86.7664H84.6087V17.6112V25.446H86.7664H88.9241V20.7829C88.9241 17.0306 88.9624 15.9877 89.12 15.4441C89.5199 14.0652 90.3682 13.4662 91.804 13.5493C92.8848 13.6118 93.5068 13.9973 93.928 14.8657C94.2124 15.4521 94.2213 15.6029 94.259 20.4572L94.2975 25.446H96.4493H98.601L98.5991 19.8545C98.5971 13.9496 98.538 13.2324 97.9592 12.0825C97.5083 11.1866 96.7947 10.4751 95.8896 10.0188C95.109 9.62516 94.8779 9.54306 93.6972 9.50851C92.6476 9.47784 92.2499 9.55632 91.6993 9.76512ZM78.5933 17.6112V25.446H80.751H82.9087V17.6112V9.77637H80.751H78.5933V17.6112ZM55.0098 13.4581C57.5078 14.2178 58.6441 17.2655 57.3798 19.8151C56.8686 20.8458 56.1488 21.4624 55.0882 21.7782C53.2023 22.3398 51.3048 21.4786 50.3882 19.6452C49.9307 18.7298 49.8178 17.0985 50.1428 16.0963C50.8386 13.9509 52.9201 12.8226 55.0098 13.4581Z" fill="#231F20"/>
<path d="M63.4245 7.76772V9.77665H62.5091H61.5938V11.6516V13.5266H62.5013H63.4088L63.4494 18.1137C63.4494 18.1137 63.2938 22.0311 63.6861 23.1695C64.0784 24.3079 64.9043 24.8936 64.9043 24.8936C65.7202 25.4685 67.0086 25.763 68.2852 25.6662C69.2474 25.5933 70.7316 25.2003 71.0745 24.9106C71.1046 24.8851 71.2707 24.7766 71.2707 24.7766C71.2707 24.7766 71.2707 23.9184 71.2707 23.0192C71.2707 22.0706 71.2484 21.2945 71.2212 21.2945C71.194 21.2945 70.9734 21.3775 70.7309 21.4789C70.0331 21.7708 69.0897 21.8652 68.5832 21.694C67.7782 21.4219 67.7399 21.2158 67.7399 17.1494V13.5266H69.5053H71.2707V11.6516V9.77665H69.5053H67.7399V7.76772V5.75879H65.5822H63.4245V7.76772Z" fill="#231F20"/>
<defs>
<linearGradient id="paint0_linear_2036_2015" x1="-0.302891" y1="23.6811" x2="18.7597" y2="5.06819" gradientUnits="userSpaceOnUse">
<stop stop-color="#C757BC"/>
<stop offset="0.108" stop-color="#C757BC"/>
<stop offset="0.173" stop-color="#CD5CA9"/>
<stop offset="0.492" stop-color="#E8744F"/>
<stop offset="0.716" stop-color="#F88316"/>
<stop offset="0.823" stop-color="#FF8900"/>
<stop offset="1" stop-color="#FF8900"/>
</linearGradient>
<linearGradient id="paint1_linear_2036_2015" x1="9.73086" y1="29.137" x2="19.0224" y2="20.0648" gradientUnits="userSpaceOnUse">
<stop stop-color="#00AFFF"/>
<stop offset="0.296" stop-color="#00AFFF"/>
<stop offset="0.694" stop-color="#5282FF"/>
<stop offset="1" stop-color="#945DFF"/>
</linearGradient>
<linearGradient id="paint2_linear_2036_2015" x1="3.05852" y1="10.618" x2="9.57658" y2="4.25357" gradientUnits="userSpaceOnUse">
<stop stop-color="#00AFFF"/>
<stop offset="0.296" stop-color="#00AFFF"/>
<stop offset="0.694" stop-color="#5282FF"/>
<stop offset="1" stop-color="#945DFF"/>
</linearGradient>
<linearGradient id="paint3_linear_2036_2015" x1="-0.189729" y1="23.7951" x2="18.8728" y2="5.18219" gradientUnits="userSpaceOnUse">
<stop stop-color="#AD4CA4"/>
<stop offset="0.108" stop-color="#AD4CA4"/>
<stop offset="0.173" stop-color="#B25093"/>
<stop offset="0.492" stop-color="#CA6545"/>
<stop offset="0.716" stop-color="#D87213"/>
<stop offset="0.823" stop-color="#DE7700"/>
<stop offset="1" stop-color="#DE7700"/>
</linearGradient>
<linearGradient id="paint4_linear_2036_2015" x1="9.7328" y1="29.1368" x2="19.0243" y2="20.0645" gradientUnits="userSpaceOnUse">
<stop stop-color="#0098DE"/>
<stop offset="0.296" stop-color="#0098DE"/>
<stop offset="0.694" stop-color="#4771DE"/>
<stop offset="1" stop-color="#8151DE"/>
</linearGradient>
<linearGradient id="paint5_linear_2036_2015" x1="5.56046" y1="13.1799" x2="12.0785" y2="6.81547" gradientUnits="userSpaceOnUse">
<stop stop-color="#0098DE"/>
<stop offset="0.296" stop-color="#0098DE"/>
<stop offset="0.694" stop-color="#4771DE"/>
<stop offset="1" stop-color="#8151DE"/>
</linearGradient>
</defs>
</svg>
