<svg width="50" height="52" viewBox="0 0 50 52" fill="none" xmlns="http://www.w3.org/2000/svg">
<g clip-path="url(#clip0_2036_1946)">
<mask id="mask0_2036_1946" style="mask-type:luminance" maskUnits="userSpaceOnUse" x="0" y="0" width="50" height="52">
<path d="M49.92 0H0V51.6129H49.92V0Z" fill="white"/>
</mask>
<g mask="url(#mask0_2036_1946)">
<path d="M49.8031 11.776C49.8216 11.8444 49.831 11.9149 49.8312 11.9858V22.997C49.8312 23.1383 49.794 23.2771 49.7231 23.3994C49.6522 23.5217 49.5504 23.6231 49.4278 23.6934L40.1859 29.0143V39.5609C40.1859 39.8479 40.0334 40.1128 39.7845 40.2574L20.4928 51.3628C20.4487 51.3879 20.4006 51.404 20.3524 51.4211C20.3343 51.4271 20.3172 51.4381 20.2982 51.4431C20.1633 51.4786 20.0216 51.4786 19.8867 51.4431C19.8646 51.4371 19.8446 51.4251 19.8235 51.417C19.7793 51.401 19.7332 51.3869 19.691 51.3628L0.403434 40.2574C0.280906 40.187 0.179098 40.0855 0.108269 39.9632C0.0374415 39.8409 9.70847e-05 39.7022 0 39.5609V6.52738C0 6.45512 0.0100357 6.38487 0.0280999 6.31663C0.0341214 6.29354 0.0481714 6.27247 0.0561999 6.24939C0.0712534 6.20724 0.0853034 6.16409 0.107382 6.12494C0.122435 6.09885 0.144514 6.07778 0.162579 6.05369C0.18566 6.02158 0.206735 5.98846 0.233832 5.96036C0.256913 5.93728 0.287021 5.92021 0.313114 5.90014C0.342217 5.87606 0.368309 5.84996 0.401427 5.8309L10.0467 0.278151C10.1689 0.207882 10.3073 0.170898 10.4482 0.170898C10.589 0.170898 10.7275 0.207882 10.8496 0.278151L20.4939 5.8309H20.4959C20.528 5.85097 20.5551 5.87606 20.5842 5.89915C20.6103 5.91922 20.6394 5.93728 20.6625 5.95936C20.6906 5.98846 20.7107 6.02158 20.7348 6.05369C20.7518 6.07778 20.7749 6.09885 20.7889 6.12494C20.812 6.16508 20.8251 6.20724 20.8411 6.24939C20.8492 6.27247 20.8632 6.29354 20.8693 6.31763C20.8877 6.38602 20.8972 6.45654 20.8973 6.52738V27.1598L28.9339 22.5322V11.9848C28.9339 11.9145 28.944 11.8432 28.962 11.776C28.9691 11.752 28.9821 11.7308 28.9901 11.7078C29.0061 11.6656 29.0202 11.6225 29.0422 11.5834C29.0574 11.5573 29.0794 11.5362 29.0965 11.5121C29.1206 11.48 29.1406 11.4469 29.1688 11.4187C29.1918 11.3957 29.221 11.3786 29.247 11.3586C29.2771 11.3345 29.3032 11.3084 29.3353 11.2893L38.9817 5.73657C39.1037 5.66619 39.2421 5.62916 39.3831 5.62916C39.524 5.62916 39.6624 5.66619 39.7845 5.73657L49.4288 11.2893C49.4629 11.3094 49.489 11.3345 49.5192 11.3576C49.5442 11.3776 49.5733 11.3957 49.5964 11.4177C49.6245 11.4469 49.6446 11.48 49.6687 11.5121C49.6867 11.5362 49.7088 11.5573 49.7229 11.5834C49.746 11.6225 49.759 11.6656 49.775 11.7078C49.7841 11.7308 49.7971 11.752 49.8031 11.776ZM48.2235 22.5322V13.3757L44.8485 15.3186L40.1859 18.0032V27.1598L48.2245 22.5322H48.2235ZM38.5792 39.0962V29.9337L33.9929 32.5529L20.8963 40.0275V49.2764L38.5792 39.0962ZM1.60772 7.91732V39.0962L19.2886 49.2754V40.0285L10.0517 34.8009L10.0487 34.7989L10.0447 34.7969C10.0136 34.7788 9.98752 34.7527 9.95842 34.7306C9.93333 34.7106 9.90422 34.6945 9.88215 34.6725L9.88014 34.6694C9.85404 34.6443 9.83598 34.6133 9.8139 34.5852C9.79383 34.5581 9.76975 34.535 9.75369 34.5068L9.75268 34.5039C9.73462 34.4738 9.72358 34.4376 9.71053 34.4035C9.69749 34.3734 9.68042 34.3454 9.6724 34.3132C9.66236 34.2751 9.66035 34.234 9.65634 34.1948C9.65233 34.1647 9.6443 34.1346 9.6443 34.1044V12.5448L4.98272 9.85923L1.60772 7.91732ZM10.4492 1.90193L2.41359 6.52738L10.4472 11.1528L18.4818 6.52637L10.4472 1.90193H10.4492ZM14.628 30.7686L19.2896 28.0851V7.91732L15.9146 9.86023L11.252 12.5448V32.7125L14.628 30.7686ZM39.3831 7.36033L31.3485 11.9858L39.3831 16.6113L47.4166 11.9848L39.3831 7.36033ZM38.5792 18.0032L33.9166 15.3186L30.5416 13.3757V22.5322L35.2032 25.2158L38.5792 27.1598V18.0032ZM20.0914 38.6376L31.8764 31.9097L37.7673 28.5477L29.7388 23.9253L20.4949 29.2472L12.07 34.0975L20.0914 38.6376Z" fill="#FF2D20"/>
</g>
</g>
<defs>
<clipPath id="clip0_2036_1946">
<rect width="50" height="51.6129" fill="white"/>
</clipPath>
</defs>
</svg>
