<svg width="50" height="50" viewBox="0 0 50 50" fill="none" xmlns="http://www.w3.org/2000/svg">
<g clip-path="url(#clip0_2036_1936)">
<mask id="mask0_2036_1936" style="mask-type:luminance" maskUnits="userSpaceOnUse" x="0" y="0" width="50" height="50">
<path d="M50 0H0V50H50V0Z" fill="white"/>
</mask>
<g mask="url(#mask0_2036_1936)">
<path d="M23.3649 0.0388333C23.2575 0.048598 22.9157 0.0827744 22.6081 0.107186C15.5141 0.746773 8.86924 4.57452 4.66068 10.4577C2.31716 13.7289 0.81828 17.4395 0.251931 21.3698C0.0517554 22.7417 0.0273438 23.1469 0.0273438 25.0071C0.0273438 26.8673 0.0517554 27.2725 0.251931 28.6445C1.60922 38.0234 8.28337 45.9035 17.3352 48.8232C18.9562 49.3455 20.665 49.702 22.6081 49.9168C23.3649 49.9998 26.6361 49.9998 27.3928 49.9168C30.747 49.5457 33.5885 48.7157 36.391 47.2852C36.8206 47.0655 36.9036 47.0069 36.8451 46.9581C36.806 46.9288 34.9751 44.473 32.7781 41.5045L28.7843 36.1095L23.7799 28.703C21.0262 24.6312 18.7609 21.3014 18.7413 21.3014C18.7218 21.2965 18.7023 24.5872 18.6925 28.6054C18.6779 35.6408 18.673 35.924 18.5851 36.09C18.4582 36.3292 18.3605 36.4269 18.1554 36.5343C17.9992 36.6124 17.8625 36.627 17.1253 36.627H16.2806L16.0561 36.4855C15.9096 36.3927 15.8022 36.2707 15.7289 36.129L15.6264 35.9093L15.6362 26.1203L15.6508 16.3263L15.8022 16.1359C15.8803 16.0333 16.0463 15.9015 16.1635 15.8381C16.3636 15.7404 16.4417 15.7307 17.2864 15.7307C18.2824 15.7307 18.4484 15.7697 18.7072 16.0529C18.7804 16.131 21.4901 20.2127 24.732 25.1292C27.9738 30.0457 32.407 36.7589 34.5845 40.0545L38.5392 46.0451L38.7394 45.9133C40.5117 44.761 42.3865 43.1206 43.8707 41.4117C47.0296 37.7842 49.0656 33.3608 49.7491 28.6445C49.9492 27.2725 49.9736 26.8673 49.9736 25.0071C49.9736 23.1469 49.9492 22.7417 49.7491 21.3698C48.3917 11.9908 41.7176 4.1107 32.6657 1.19107C31.0692 0.673535 29.3702 0.317126 27.4661 0.102304C26.9974 0.0534803 23.7701 -0.000225348 23.3649 0.0388333ZM33.5885 15.1448C33.8229 15.262 34.0133 15.4865 34.0816 15.7209C34.1207 15.8478 34.1304 18.5624 34.1207 24.68L34.1061 33.4584L32.5584 31.0856L31.0057 28.7128V22.3316C31.0057 18.206 31.0253 15.8869 31.0546 15.7746C31.1327 15.5012 31.3036 15.2863 31.5379 15.1594C31.7381 15.0569 31.8114 15.0472 32.5779 15.0472C33.3005 15.0472 33.4274 15.0569 33.5885 15.1448Z" fill="#1A1A1A"/>
</g>
</g>
<defs>
<clipPath id="clip0_2036_1936">
<rect width="50" height="50" fill="white"/>
</clipPath>
</defs>
</svg>
