<svg width="50" height="50" viewBox="0 0 50 50" fill="none" xmlns="http://www.w3.org/2000/svg">
<g clip-path="url(#clip0_2036_2009)">
<mask id="mask0_2036_2009" style="mask-type:luminance" maskUnits="userSpaceOnUse" x="0" y="0" width="50" height="50">
<path d="M50 0H0V50H50V0Z" fill="white"/>
</mask>
<g mask="url(#mask0_2036_2009)">
<path d="M24.9275 50C11.4971 50 0.106076 38.6558 0.000621901 25.1288C-0.0461359 18.5429 2.54544 12.2118 7.19731 7.54987C9.51569 5.17544 12.2827 3.28527 15.3376 1.9892C18.3926 0.693125 21.6747 0.0169689 24.9931 1.01677e-05C31.5741 -0.00595891 37.8864 2.61646 42.5263 7.28231C44.8626 9.55944 46.7251 12.2765 48.0063 15.2768C49.2876 18.2771 49.9623 21.5014 49.9916 24.7638C50.0533 38.5792 38.9459 49.8507 25.1205 49.9911L24.9275 50ZM24.9971 1.32714C21.8526 1.34546 18.7429 1.98816 15.8487 3.21795C12.9545 4.44773 10.3334 6.2401 8.1375 8.491C5.95331 10.6749 4.22433 13.2706 3.05078 16.1276C1.87723 18.9846 1.28244 22.0462 1.30089 25.1348C1.40037 37.9444 12.1944 48.6878 24.9126 48.6878H25.0817C38.1917 48.5594 48.7342 37.8778 48.6745 24.7786C48.6451 21.688 48.0044 18.6337 46.7894 15.7917C45.5744 12.9497 43.8091 10.3762 41.5951 8.21944C39.4239 6.02938 36.8398 4.29174 33.9924 3.10714C31.1451 1.92253 28.091 1.31448 25.0071 1.31818L24.9971 1.32714ZM5.59762 32.3166V17.7122H9.14925V19.0205H7.265V31.0333H9.14925V32.3415L5.59762 32.3166ZM17.6651 24.8702C17.6651 27.5334 16.0495 29.0505 13.8578 29.0505C11.6662 29.0505 10.2067 27.3434 10.2067 25.0074C10.2067 22.5671 11.7388 20.846 13.9753 20.846C16.2116 20.846 17.6562 22.6388 17.6562 24.8692L17.6651 24.8702ZM11.7378 24.9876C11.7378 26.6032 12.5486 27.8856 13.9424 27.8856C15.3362 27.8856 16.1341 26.5773 16.1341 24.9289C16.1341 23.4306 15.3949 22.0179 13.9424 22.0179C12.4899 22.0179 11.7239 23.3849 11.7239 25.0224L11.7378 24.9876ZM18.8967 21.1216C19.5926 21.0013 20.2976 20.942 21.0038 20.9445C21.7971 20.8668 22.5945 21.043 23.281 21.4479C23.8053 21.7464 24.1207 22.3254 24.1068 22.9332C24.0869 23.7291 23.5596 24.4225 22.7985 24.6543C23.2511 24.7462 23.6579 24.9919 23.9499 25.3497C24.2418 25.7075 24.4009 26.1553 24.4002 26.6171C24.4053 26.9299 24.3391 27.2398 24.2065 27.5232C24.0739 27.8066 23.8786 28.0561 23.6352 28.2526C23.0721 28.7501 22.1369 28.9918 20.6904 28.9918C20.0956 28.9948 19.5011 28.9599 18.9107 28.8874L18.8967 21.1216ZM20.3363 24.2554H21.0754C22.0763 24.2554 22.6394 23.7848 22.6394 23.1113C22.6394 22.4377 22.0763 22.0249 21.1541 22.0249C20.8775 22.0149 20.6019 22.0349 20.3283 22.0846L20.3363 24.2554ZM20.3363 27.9064C20.5904 27.9327 20.8459 27.9437 21.1013 27.9393C22.0305 27.9393 22.8542 27.5861 22.8542 26.6311C22.8542 25.676 22.0564 25.3228 21.0556 25.3228H20.3363V27.9064ZM27.2574 21.0171H28.7029V26.1903C28.7029 28.382 27.6434 29.1152 26.0865 29.1152C25.6709 29.1102 25.2585 29.0432 24.8628 28.9162L25.0399 27.7523C25.3302 27.8431 25.6321 27.8916 25.9363 27.8965C26.762 27.8965 27.2445 27.5184 27.2445 26.1436L27.2574 21.0171ZM32.8286 25.3149V26.3157H29.8191V25.3149H32.8286ZM39.8452 28.7173C39.1948 28.9763 38.4974 29.0966 37.7978 29.0704C35.2789 29.0704 33.7488 27.4936 33.7488 25.0791C33.7188 24.5166 33.8084 23.9542 34.0114 23.4287C34.2145 22.9034 34.5265 22.4269 34.9269 22.0308C35.3274 21.6347 35.8072 21.3279 36.3348 21.1305C36.8623 20.9331 37.4257 20.8498 37.9878 20.8858C38.6601 20.8578 39.3303 20.9784 39.9507 21.239L39.6303 22.39C39.1379 22.1911 38.6076 22.0756 38.0734 22.0916C36.4578 22.0916 35.2928 23.1063 35.2928 25.0164C35.2928 26.7574 36.3195 27.8816 38.0604 27.8816C38.6007 27.8896 39.1369 27.7891 39.6373 27.5871L39.8452 28.7173ZM44.3966 17.6724V32.3166H40.8451V31.0084H42.7293V18.9827H40.8351V17.6724H44.3966Z" fill="#F1592A"/>
</g>
</g>
<defs>
<clipPath id="clip0_2036_2009">
<rect width="50" height="50" fill="white"/>
</clipPath>
</defs>
</svg>
