<svg width="76" height="38" viewBox="0 0 76 38" fill="none" xmlns="http://www.w3.org/2000/svg">
<g clip-path="url(#clip0_2036_1902)">
<path fill-rule="evenodd" clip-rule="evenodd" d="M38.1278 38.0194C58.9048 38.0194 75.7478 29.5084 75.7478 19.0097C75.7478 8.51093 58.9048 0 38.1278 0C17.3509 0 0.507812 8.51093 0.507812 19.0097C0.507812 29.5084 17.3509 38.0194 38.1278 38.0194ZM17.5312 21.6507H20.2785C22.0993 21.6507 23.4558 21.3146 24.3469 20.6419C25.2379 19.9692 25.8394 18.8465 26.1517 17.2732C26.4505 15.7626 26.3145 14.6967 25.7435 14.0756C25.1725 13.4544 24.0279 13.144 22.3124 13.144H19.2179L17.5313 21.6505L17.5312 21.6507ZM24.0227 9.93665C26.6354 9.93665 28.5414 10.6088 29.7395 11.9531C30.9375 13.2974 31.2981 15.1742 30.8201 17.5834C30.6234 18.5759 30.2907 19.4833 29.8223 20.3055C29.3538 21.1277 28.7409 21.8803 27.9841 22.5624C27.0822 23.3898 26.0803 23.9792 24.9779 24.3306C23.8754 24.6828 22.4714 24.858 20.7644 24.858H16.8957L15.8246 30.2618H11.3081L15.3372 9.93665H24.0224H24.0227ZM37.9738 9.93593L39.045 4.5322H39.0448H34.5639L30.5342 24.8572H35.0152L37.3233 13.213H40.9049C42.0513 13.213 42.801 13.3993 43.1532 13.7714C43.5054 14.1434 43.58 14.8413 43.3771 15.8643L41.5947 24.8572H46.1467L48.0216 15.3991C48.4026 13.4749 48.1172 12.0826 47.1635 11.2242C46.2099 10.3657 44.4774 9.93593 41.9657 9.93593H37.9738ZM52.7834 21.6506H55.5306C57.3514 21.6506 58.7079 21.3146 59.599 20.6419C60.49 19.9691 61.0915 18.8464 61.4038 17.2731C61.7028 15.7626 61.5667 14.6966 60.9956 14.0755C60.4244 13.4544 59.28 13.144 57.5645 13.144H54.4699L52.7836 21.6505L52.7834 21.6506ZM59.2748 9.93662C61.8875 9.93662 63.7935 10.6088 64.9916 11.9531C66.1896 13.2974 66.5502 15.1741 66.0722 17.5834C65.8755 18.5759 65.5428 19.4833 65.0743 20.3055C64.6059 21.1277 63.993 21.8803 63.2362 22.5624C62.3343 23.3897 61.3324 23.9792 60.23 24.3306C59.1275 24.6827 57.7235 24.858 56.0165 24.858H52.1478L51.0767 30.2617H46.5602L50.5899 9.93676H59.2749L59.2748 9.93662Z" fill="#6181B6"/>
</g>
<defs>
<clipPath id="clip0_2036_1902">
<rect width="76" height="38" fill="white"/>
</clipPath>
</defs>
</svg>
