<svg width="122" height="35" viewBox="0 0 122 35" fill="none" xmlns="http://www.w3.org/2000/svg">
<g clip-path="url(#clip0_2036_1925)">
<mask id="mask0_2036_1925" style="mask-type:luminance" maskUnits="userSpaceOnUse" x="0" y="0" width="122" height="35">
<path d="M122 0H0V34.8795H122V0Z" fill="white"/>
</mask>
<g mask="url(#mask0_2036_1925)">
<path d="M13.786 1.21972C14.03 1.21972 14.152 1.34168 14.396 1.46364C12.932 2.07342 11.468 3.65885 10.736 7.07364L8.052 7.80537C8.906 5.36625 10.614 1.21972 13.786 1.21972ZM15.128 2.43929C15.372 3.17103 15.616 4.02473 15.616 5.36625C15.616 5.4882 15.616 5.4882 15.616 5.61015L12.078 6.58581C12.81 4.02473 14.03 2.92712 15.128 2.43929ZM18.3 4.63451L16.714 5.12232C16.714 5.00037 16.714 4.87842 16.714 4.75646C16.714 3.65885 16.592 2.80515 16.348 2.07342C17.202 2.31734 17.934 3.41493 18.3 4.63451ZM26.23 6.58581C26.23 6.46385 26.108 6.34189 25.986 6.34189C25.742 6.34189 23.18 6.09798 23.18 6.09798C23.18 6.09798 21.35 4.26864 21.106 4.14668C20.862 3.90276 20.496 4.02471 20.374 4.02471C20.374 4.02471 20.008 4.14668 19.398 4.39059C18.788 2.6832 17.69 1.09777 15.86 1.09777H15.738C15.25 0.366028 14.518 0.122116 13.908 0.122116C9.516 0.000159964 7.442 5.4882 6.71 8.2932C5.734 8.5371 4.758 8.90298 3.66 9.26886C2.684 9.51276 2.684 9.63472 2.562 10.4884C2.44 11.0982 0 30.3674 0 30.3674L19.398 34.026L29.89 31.7088C29.89 31.7088 26.23 6.82971 26.23 6.58581Z" fill="#8DB849"/>
<path d="M25.8644 6.34159C25.7424 6.34159 23.1804 6.09768 23.1804 6.09768C23.1804 6.09768 21.3504 4.26834 21.1064 4.14638C20.9844 4.02441 20.9844 4.02441 20.8624 4.02441L19.3984 34.0257L29.8904 31.7085C29.8904 31.7085 26.2304 6.82941 26.2304 6.58551C26.2304 6.46355 25.9864 6.34159 25.8644 6.34159Z" fill="#5A863E"/>
<path d="M15.8616 12.1954L14.5196 16.098C14.5196 16.098 13.4216 15.4882 11.9576 15.4882C9.88363 15.4882 9.76162 16.7077 9.76162 17.0736C9.76162 18.781 14.3976 19.5127 14.3976 23.6593C14.3976 26.9521 12.3236 29.0254 9.51762 29.0254C6.22362 29.0254 4.51562 26.9521 4.51562 26.9521L5.36962 24.025C5.36962 24.025 7.07763 25.4886 8.54163 25.4886C9.51762 25.4886 9.88362 24.7569 9.88362 24.1471C9.88362 21.8299 6.10162 21.708 6.10162 17.9272C6.10162 14.7564 8.41962 11.7075 12.9336 11.7075C15.0076 11.5856 15.8616 12.1954 15.8616 12.1954Z" fill="#FFFFFE"/>
<path d="M42.2115 19.3915C41.1135 18.7816 40.6255 18.2938 40.6255 17.6841C40.6255 16.8304 41.3575 16.3426 42.5775 16.3426C43.9195 16.3426 45.1395 16.9523 45.1395 16.9523L46.1155 14.0254C46.1155 14.0254 45.2615 13.2936 42.6995 13.2936C39.0395 13.2936 36.5995 15.3669 36.5995 18.2938C36.5995 20.0013 37.8195 21.2209 39.2835 22.0745C40.5035 22.8062 40.9915 23.2942 40.9915 24.0259C40.9915 24.7576 40.3815 25.4893 39.1615 25.4893C37.4535 25.4893 35.7455 24.6356 35.7455 24.6356L34.7695 27.5626C34.7695 27.5626 36.2335 28.5382 38.7955 28.5382C42.4555 28.5382 45.1395 26.7088 45.1395 23.416C45.1395 21.5867 43.7975 20.2452 42.2115 19.3915ZM56.9735 13.1717C55.1435 13.1717 53.6795 14.0254 52.5815 15.3669L54.1675 7.07388H50.0195L45.9935 28.1723H50.1415L51.4835 20.977C51.9715 18.2938 53.4355 16.5865 54.7775 16.5865C55.7535 16.5865 56.1195 17.1963 56.1195 18.172C56.1195 18.7816 56.1195 19.3915 55.9975 20.0013L54.4115 28.2943H58.5595L60.1455 19.7573C60.2675 18.9037 60.3895 17.806 60.3895 17.0743C60.3895 14.6352 59.1695 13.1717 56.9735 13.1717ZM67.5875 25.2454C66.1235 25.2454 65.6355 24.0259 65.6355 22.5623C65.6355 20.2452 66.8555 16.3426 69.0515 16.3426C70.5155 16.3426 71.0035 17.5621 71.0035 18.7816C71.0035 21.4648 69.7835 25.2454 67.5875 25.2454ZM69.6615 13.1717C64.6595 13.1717 61.3655 17.6842 61.3655 22.6843C61.3655 25.8552 63.3175 28.4162 67.0995 28.4162C71.9795 28.4162 75.2735 24.0259 75.2735 18.9037C75.2735 15.9767 73.5655 13.1717 69.6615 13.1717ZM81.8615 25.3673C80.7635 25.3673 80.1535 24.7576 80.1535 24.7576L80.8855 20.8549C81.3735 18.2938 82.7155 16.5865 84.1795 16.5865C85.3995 16.5865 85.8875 17.806 85.8875 18.9037C85.7655 21.5867 84.1795 25.3673 81.8615 25.3673ZM85.8875 13.1717C83.0815 13.1717 81.4955 15.6108 81.4955 15.6108L81.7395 13.4156H78.0795C77.9575 14.8791 77.5915 17.1963 77.2255 18.9037L74.2975 34.0262H78.4455L79.5435 27.9284H79.6655C79.6655 27.9284 80.5195 28.4162 82.1055 28.4162C86.9855 28.4162 90.1575 23.416 90.1575 18.4159C90.1575 15.7327 88.9375 13.1717 85.8875 13.1717ZM96.0135 7.31779C94.6715 7.31779 93.6955 8.4154 93.6955 9.75691C93.6955 10.9765 94.4275 11.8302 95.6475 11.8302C96.9895 11.8302 98.0875 10.9765 98.0875 9.39106C98.0875 8.17149 97.2335 7.31779 96.0135 7.31779ZM90.2795 28.1723H94.4275L97.2335 13.5376H93.0855L90.2795 28.1723ZM107.726 13.5376H104.798L104.92 12.8058C105.164 11.3424 106.018 10.1228 107.36 10.1228C108.092 10.1228 108.702 10.3667 108.702 10.3667L109.556 7.07388C109.556 7.07388 108.824 6.70801 107.36 6.70801C105.896 6.70801 104.432 7.07388 103.334 8.04952C101.87 9.2691 101.26 10.9765 100.894 12.6839L100.772 13.4156H98.8195L98.2095 16.5865H100.162L97.9655 28.1723H102.114L104.31 16.5865H107.116L107.726 13.5376ZM117.608 13.5376C117.608 13.5376 115.046 20.0012 113.826 23.5381C113.704 22.4404 112.85 13.5376 112.85 13.5376H108.458L110.898 26.9527C110.898 27.1966 110.898 27.4406 110.776 27.6845C110.288 28.6602 109.434 29.5138 108.58 30.1237C107.848 30.7334 106.872 31.0993 106.262 31.3432L107.36 34.8799C108.214 34.7581 109.922 34.0262 111.386 32.6848C113.216 30.9773 115.046 28.1723 116.754 24.5137L121.756 13.6595L117.608 13.5376Z" fill="#1A1919"/>
</g>
</g>
<defs>
<clipPath id="clip0_2036_1925">
<rect width="122" height="35" fill="white"/>
</clipPath>
</defs>
</svg>
