<svg width="48" height="48" viewBox="0 0 48 48" fill="none" xmlns="http://www.w3.org/2000/svg">
<g clip-path="url(#clip0_2036_2001)">
<mask id="mask0_2036_2001" style="mask-type:luminance" maskUnits="userSpaceOnUse" x="0" y="0" width="48" height="48">
<path d="M48 0H0V48H48V0Z" fill="white"/>
</mask>
<g mask="url(#mask0_2036_2001)">
<path d="M10.6669 0H37.2543C38.5481 0 39.8043 0.20625 41.0231 0.6375C42.7856 1.275 44.3793 2.4 45.5793 3.8625C46.7981 5.325 47.6043 7.125 47.8856 9C47.9981 9.69378 48.0168 10.3875 48.0168 11.0812V37.0125C48.0168 37.8375 47.9793 38.6813 47.8106 39.4875C47.4356 41.3438 46.5543 43.0875 45.2793 44.4938C44.0231 45.9 42.3731 46.95 40.5918 47.5125C39.5043 47.85 38.3793 48 37.2356 48C36.7293 48 10.5919 48 10.1981 47.9812C8.28562 47.8875 6.3919 47.2687 4.79812 46.2C3.24187 45.15 1.96687 43.6875 1.14188 42C0.429377 40.5563 0.0731274 38.9438 0.0731274 37.3313V10.6688C0.0356273 9.075 0.373127 7.5 1.06687 6.075C1.87312 4.3875 3.12937 2.90625 4.68563 1.85625C6.2794 0.76875 8.1544 0.13125 10.0669 0.0375C10.2544 0 10.4606 0 10.6669 0Z" fill="url(#paint0_linear_2036_2001)"/>
<path d="M40.5 39.2625C40.3313 39 40.1438 38.7375 39.9375 38.4938C39.4688 37.9313 38.925 37.4438 38.325 37.0313C37.575 36.525 36.6938 36.2062 35.7938 36.1687C35.1563 36.1312 34.5188 36.2437 33.9188 36.4687C33.3188 36.675 32.7375 36.975 32.175 37.275C31.5188 37.6125 30.8625 37.95 30.1688 38.2312C29.3438 38.5687 28.4813 38.8313 27.6 39.0188C26.4938 39.225 25.3688 39.3 24.2625 39.2813C22.2563 39.2437 20.25 38.9437 18.3375 38.3812C16.65 37.875 15.0375 37.1813 13.5188 36.3C12.1875 35.5313 10.95 34.65 9.7875 33.6563C8.83128 32.8312 7.95 31.95 7.125 31.0125C6.5625 30.3562 6.01878 29.6625 5.5125 28.95C5.30625 28.6687 5.11875 28.3687 4.95 28.0687L0 22.725V10.6313C0 4.7625 4.74375 0 10.6125 0H20.0813L27.0938 7.125C42.9188 17.8875 37.8 29.7562 37.8 29.7562C37.8 29.7562 42.3 34.8187 40.5 39.2625Z" fill="url(#paint1_linear_2036_2001)"/>
<path d="M27.1305 7.125C42.9555 17.8875 37.8367 29.7562 37.8367 29.7562C37.8367 29.7562 42.3367 34.8375 40.518 39.2813C40.518 39.2813 38.6617 36.1687 35.5492 36.1687C32.5492 36.1687 30.7867 39.2813 24.7492 39.2813C11.3055 39.2813 4.94922 28.05 4.94922 28.05C17.0617 36.0188 25.3305 30.375 25.3305 30.375C19.8742 27.2063 8.268 12.0563 8.268 12.0563C18.3742 20.6625 22.743 22.9313 22.743 22.9313C20.1367 20.775 12.8242 10.2375 12.8242 10.2375C18.6742 16.1625 30.2992 24.4313 30.2992 24.4313C33.5992 15.2813 27.1305 7.125 27.1305 7.125Z" fill="white"/>
</g>
</g>
<defs>
<linearGradient id="paint0_linear_2036_2001" x1="28.5527" y1="-1.71281" x2="19.4839" y2="49.7186" gradientUnits="userSpaceOnUse">
<stop stop-color="#FAAE42"/>
<stop offset="1" stop-color="#EF3E31"/>
</linearGradient>
<linearGradient id="paint1_linear_2036_2001" x1="24.4898" y1="0.7755" x2="17.8525" y2="38.4175" gradientUnits="userSpaceOnUse">
<stop stop-color="#E39F3A"/>
<stop offset="1" stop-color="#D33929"/>
</linearGradient>
<clipPath id="clip0_2036_2001">
<rect width="48" height="48" fill="white"/>
</clipPath>
</defs>
</svg>
