<svg width="24" height="24" viewBox="0 0 24 24" fill="none" xmlns="http://www.w3.org/2000/svg">
<g clip-path="url(#clip0_22_175)">
<path d="M8.00111 12C8.00111 9.79094 9.79142 7.99968 12.0005 7.99968C14.2095 7.99968 16.0008 9.79094 16.0008 12C16.0008 14.2091 14.2095 16.0003 12.0005 16.0003C9.79142 16.0003 8.00111 14.2091 8.00111 12ZM5.83862 12C5.83862 15.4032 8.59727 18.1619 12.0005 18.1619C15.4037 18.1619 18.1623 15.4032 18.1623 12C18.1623 8.5968 15.4037 5.83814 12.0005 5.83814C8.59727 5.83814 5.83862 8.5968 5.83862 12ZM16.9663 5.59382C16.9662 5.87863 17.0505 6.15707 17.2086 6.39394C17.3668 6.63081 17.5916 6.81547 17.8547 6.92457C18.1177 7.03366 18.4073 7.06229 18.6866 7.00684C18.966 6.95139 19.2226 6.81435 19.4241 6.61304C19.6256 6.41173 19.7628 6.15521 19.8185 5.8759C19.8742 5.59658 19.8458 5.30704 19.7369 5.04387C19.628 4.7807 19.4435 4.55573 19.2068 4.3974C18.97 4.23908 18.6916 4.15451 18.4068 4.1544H18.4063C18.0245 4.15458 17.6584 4.30627 17.3884 4.57616C17.1184 4.84605 16.9666 5.21207 16.9663 5.59382ZM7.15247 21.7677C5.98252 21.7144 5.34662 21.5196 4.92402 21.3549C4.36377 21.1368 3.96402 20.877 3.54374 20.4573C3.12345 20.0376 2.86329 19.6382 2.64614 19.078C2.4814 18.6556 2.28652 18.0195 2.23334 16.8495C2.17516 15.5846 2.16354 15.2047 2.16354 12.0001C2.16354 8.79552 2.17612 8.41661 2.23334 7.15066C2.28662 5.9807 2.48294 5.34586 2.64614 4.92221C2.86425 4.36195 3.12402 3.96221 3.54374 3.54192C3.96345 3.12163 4.36281 2.86147 4.92402 2.64432C5.34642 2.47958 5.98252 2.2847 7.15247 2.23152C8.41737 2.17334 8.79734 2.16173 12.0005 2.16173C15.2036 2.16173 15.584 2.1743 16.8499 2.23152C18.0199 2.2848 18.6547 2.48112 19.0784 2.64432C19.6386 2.86147 20.0384 3.12221 20.4586 3.54192C20.8789 3.96163 21.1381 4.36195 21.3562 4.92221C21.521 5.34461 21.7159 5.9807 21.769 7.15066C21.8272 8.41661 21.8388 8.79552 21.8388 12.0001C21.8388 15.2047 21.8272 15.5836 21.769 16.8495C21.7158 18.0195 21.5199 18.6554 21.3562 19.078C21.1381 19.6382 20.8784 20.038 20.4586 20.4573C20.0389 20.8766 19.6386 21.1368 19.0784 21.3549C18.656 21.5196 18.0199 21.7145 16.8499 21.7677C15.585 21.8259 15.205 21.8375 12.0005 21.8375C8.7959 21.8375 8.41698 21.8259 7.15247 21.7677ZM7.05311 0.072672C5.77564 0.130848 4.90271 0.333408 4.14038 0.630048C3.35087 0.936384 2.68252 1.34736 2.01465 2.01418C1.34678 2.68099 0.936857 3.3504 0.630521 4.1399C0.333881 4.90272 0.131321 5.77517 0.073145 7.05264C0.014009 8.33213 0.000473022 8.74118 0.000473022 12C0.000473022 15.2588 0.014009 15.6679 0.073145 16.9474C0.131321 18.2249 0.333881 19.0973 0.630521 19.8601C0.936857 20.6491 1.34687 21.3193 2.01465 21.9858C2.68242 22.6524 3.35087 23.0628 4.14038 23.37C4.90415 23.6666 5.77564 23.8692 7.05311 23.9273C8.33327 23.9855 8.74166 24 12.0005 24C15.2593 24 15.6683 23.9865 16.9478 23.9273C18.2254 23.8692 19.0978 23.6666 19.8606 23.37C20.6496 23.0628 21.3184 22.6526 21.9863 21.9858C22.6542 21.319 23.0632 20.6491 23.3704 19.8601C23.6671 19.0973 23.8706 18.2248 23.9278 16.9474C23.986 15.6669 23.9995 15.2588 23.9995 12C23.9995 8.74118 23.986 8.33213 23.9278 7.05264C23.8696 5.77507 23.6671 4.90224 23.3704 4.1399C23.0632 3.35088 22.6531 2.68205 21.9863 2.01418C21.3195 1.3463 20.6496 0.936384 19.8615 0.630048C19.0978 0.333408 18.2253 0.129888 16.9488 0.072672C15.6693 0.014496 15.2602 0 12.0014 0C8.74262 0 8.33327 0.013536 7.05311 0.072672Z" fill="white"/>
<path d="M8.00111 12C8.00111 9.79094 9.79142 7.99968 12.0005 7.99968C14.2095 7.99968 16.0008 9.79094 16.0008 12C16.0008 14.2091 14.2095 16.0003 12.0005 16.0003C9.79142 16.0003 8.00111 14.2091 8.00111 12ZM5.83862 12C5.83862 15.4032 8.59727 18.1619 12.0005 18.1619C15.4037 18.1619 18.1623 15.4032 18.1623 12C18.1623 8.5968 15.4037 5.83814 12.0005 5.83814C8.59727 5.83814 5.83862 8.5968 5.83862 12ZM16.9663 5.59382C16.9662 5.87863 17.0505 6.15707 17.2086 6.39394C17.3668 6.63081 17.5916 6.81547 17.8547 6.92457C18.1177 7.03366 18.4073 7.06229 18.6866 7.00684C18.966 6.95139 19.2226 6.81435 19.4241 6.61304C19.6256 6.41173 19.7628 6.15521 19.8185 5.8759C19.8742 5.59658 19.8458 5.30704 19.7369 5.04387C19.628 4.7807 19.4435 4.55573 19.2068 4.3974C18.97 4.23908 18.6916 4.15451 18.4068 4.1544H18.4063C18.0245 4.15458 17.6584 4.30627 17.3884 4.57616C17.1184 4.84605 16.9666 5.21207 16.9663 5.59382ZM7.15247 21.7677C5.98252 21.7144 5.34662 21.5196 4.92402 21.3549C4.36377 21.1368 3.96402 20.877 3.54374 20.4573C3.12345 20.0376 2.86329 19.6382 2.64614 19.078C2.4814 18.6556 2.28652 18.0195 2.23334 16.8495C2.17516 15.5846 2.16354 15.2047 2.16354 12.0001C2.16354 8.79552 2.17612 8.41661 2.23334 7.15066C2.28662 5.9807 2.48294 5.34586 2.64614 4.92221C2.86425 4.36195 3.12402 3.96221 3.54374 3.54192C3.96345 3.12163 4.36281 2.86147 4.92402 2.64432C5.34642 2.47958 5.98252 2.2847 7.15247 2.23152C8.41737 2.17334 8.79734 2.16173 12.0005 2.16173C15.2036 2.16173 15.584 2.1743 16.8499 2.23152C18.0199 2.2848 18.6547 2.48112 19.0784 2.64432C19.6386 2.86147 20.0384 3.12221 20.4586 3.54192C20.8789 3.96163 21.1381 4.36195 21.3562 4.92221C21.521 5.34461 21.7159 5.9807 21.769 7.15066C21.8272 8.41661 21.8388 8.79552 21.8388 12.0001C21.8388 15.2047 21.8272 15.5836 21.769 16.8495C21.7158 18.0195 21.5199 18.6554 21.3562 19.078C21.1381 19.6382 20.8784 20.038 20.4586 20.4573C20.0389 20.8766 19.6386 21.1368 19.0784 21.3549C18.656 21.5196 18.0199 21.7145 16.8499 21.7677C15.585 21.8259 15.205 21.8375 12.0005 21.8375C8.7959 21.8375 8.41698 21.8259 7.15247 21.7677ZM7.05311 0.072672C5.77564 0.130848 4.90271 0.333408 4.14038 0.630048C3.35087 0.936384 2.68252 1.34736 2.01465 2.01418C1.34678 2.68099 0.936857 3.3504 0.630521 4.1399C0.333881 4.90272 0.131321 5.77517 0.073145 7.05264C0.014009 8.33213 0.000473022 8.74118 0.000473022 12C0.000473022 15.2588 0.014009 15.6679 0.073145 16.9474C0.131321 18.2249 0.333881 19.0973 0.630521 19.8601C0.936857 20.6491 1.34687 21.3193 2.01465 21.9858C2.68242 22.6524 3.35087 23.0628 4.14038 23.37C4.90415 23.6666 5.77564 23.8692 7.05311 23.9273C8.33327 23.9855 8.74166 24 12.0005 24C15.2593 24 15.6683 23.9865 16.9478 23.9273C18.2254 23.8692 19.0978 23.6666 19.8606 23.37C20.6496 23.0628 21.3184 22.6526 21.9863 21.9858C22.6542 21.319 23.0632 20.6491 23.3704 19.8601C23.6671 19.0973 23.8706 18.2248 23.9278 16.9474C23.986 15.6669 23.9995 15.2588 23.9995 12C23.9995 8.74118 23.986 8.33213 23.9278 7.05264C23.8696 5.77507 23.6671 4.90224 23.3704 4.1399C23.0632 3.35088 22.6531 2.68205 21.9863 2.01418C21.3195 1.3463 20.6496 0.936384 19.8615 0.630048C19.0978 0.333408 18.2253 0.129888 16.9488 0.072672C15.6693 0.014496 15.2602 0 12.0014 0C8.74262 0 8.33327 0.013536 7.05311 0.072672Z" fill="white"/>
</g>
<defs>
<clipPath id="clip0_22_175">
<rect width="24" height="24" fill="white"/>
</clipPath>
</defs>
</svg>
