<svg width="24" height="25" viewBox="0 0 24 25" fill="none" xmlns="http://www.w3.org/2000/svg">
<g clip-path="url(#clip0_1010_6970)">
<path d="M23.994 24.7871V24.7861H24V15.9841C24 11.6781 23.073 8.36108 18.039 8.36108C15.619 8.36108 13.995 9.68908 13.332 10.9481H13.262V8.76308H8.48903V24.7861H13.459V16.8521C13.459 14.7631 13.855 12.7431 16.442 12.7431C18.991 12.7431 19.029 15.1271 19.029 16.9861V24.7871H23.994Z" fill="white"/>
<path d="M0.395996 8.76416H5.372V24.7872H0.395996V8.76416Z" fill="white"/>
<path d="M2.882 0.787109C1.291 0.787109 0 2.07811 0 3.66911C0 5.26011 1.291 6.57811 2.882 6.57811C4.473 6.57811 5.764 5.26011 5.764 3.66911C5.763 2.07811 4.472 0.787109 2.882 0.787109V0.787109Z" fill="white"/>
</g>
<defs>
<clipPath id="clip0_1010_6970">
<rect width="24" height="24" fill="white" transform="translate(0 0.787109)"/>
</clipPath>
</defs>
</svg>
