<svg width="24" height="24" viewBox="0 0 24 24" fill="none" xmlns="http://www.w3.org/2000/svg">
<path d="M12 2C8.12997 2 4.99997 5.13 4.99997 9C4.99997 14.25 12 22 12 22C12 22 19 14.25 19 9C19 5.13 15.87 2 12 2ZM6.99997 9C6.99997 6.24 9.23997 4 12 4C14.76 4 17 6.24 17 9C17 11.88 14.12 16.19 12 18.88C9.91997 16.21 6.99997 11.85 6.99997 9Z" fill="#FFFFFF"/>
<path d="M12 11.5C13.3807 11.5 14.5 10.3807 14.5 9C14.5 7.61929 13.3807 6.5 12 6.5C10.6193 6.5 9.49997 7.61929 9.49997 9C9.49997 10.3807 10.6193 11.5 12 11.5Z" fill="#FFFFFF"/>
</svg>
