<svg width="24" height="24" viewBox="0 0 24 24" fill="none" xmlns="http://www.w3.org/2000/svg">
<path d="M3 5.00012C3 4.46969 3.21071 3.96098 3.58579 3.58591C3.96086 3.21084 4.46957 3.00012 5 3.00012H8.28C8.48979 3.00028 8.69422 3.06642 8.86436 3.18917C9.03449 3.31193 9.1617 3.48508 9.228 3.68412L10.726 8.17712C10.8019 8.40546 10.7929 8.65351 10.7007 8.87577C10.6085 9.09802 10.4393 9.27958 10.224 9.38712L7.967 10.5171C9.07332 12.9657 11.0345 14.9268 13.483 16.0331L14.613 13.7761C14.7205 13.5609 14.9021 13.3916 15.1244 13.2994C15.3466 13.2072 15.5947 13.1982 15.823 13.2741L20.316 14.7721C20.5152 14.8385 20.6885 14.9658 20.8112 15.1362C20.934 15.3065 21.0001 15.5112 21 15.7211V19.0001C21 19.5306 20.7893 20.0393 20.4142 20.4143C20.0391 20.7894 19.5304 21.0001 19 21.0001H18C9.716 21.0001 3 14.2841 3 6.00012V5.00012Z" stroke="#FFFFFF" stroke-width="2" stroke-linecap="round" stroke-linejoin="round"/>
</svg>
